SplineFontDB: 3.2
FontName: malayalam15m
FullName: malayalam15m
FamilyName: malayalam15m
Weight: Regular
Copyright: Copyright 2022 The Noto Project Authors (https://github.com/notofonts/malayalam)
Version: 2.103
ItalicAngle: 0
UnderlinePosition: -125
UnderlineWidth: 50
Ascent: 800
Descent: 200
InvalidEm: 0
sfntRevision: 0x00021a5e
LayerCount: 2
Layer: 0 1 "Back" 1
Layer: 1 1 "Fore" 0
XUID: [1021 467 -1121320856 7943623]
StyleMap: 0x0040
FSType: 0
OS2Version: 4
OS2_WeightWidthSlopeOnly: 0
OS2_UseTypoMetrics: 1
CreationTime: 1634401886
ModificationTime: 1741115379
PfmFamily: 81
TTFWeight: 400
TTFWidth: 5
LineGap: 0
VLineGap: 0
Panose: 0 0 0 0 0 0 0 0 0 0
OS2TypoAscent: 864
OS2TypoAOffset: 0
OS2TypoDescent: -383
OS2TypoDOffset: 0
OS2TypoLinegap: 0
OS2WinAscent: 864
OS2WinAOffset: 0
OS2WinDescent: 383
OS2WinDOffset: 0
HheadAscent: 864
HheadAOffset: 0
HheadDescent: -383
HheadDOffset: 0
OS2SubXSize: 650
OS2SubYSize: 600
OS2SubXOff: 0
OS2SubYOff: 75
OS2SupXSize: 650
OS2SupYSize: 600
OS2SupXOff: 0
OS2SupYOff: 350
OS2StrikeYSize: 50
OS2StrikeYPos: 332
OS2CapHeight: 714
OS2XHeight: 554
OS2Vendor: 'GOOG'
OS2CodePages: 00000093.00000000
OS2UnicodeRanges: 80808043.00002042.00000000.00000000










































































MarkAttachClasses: 1
DEI: 91125

 165 ae b eth e eacute ecaron ecircumflex edieresis edotaccent egrave emacron eogonek o oacute ocircumflex odieresis ograve ohungarumlaut omacron oslash otilde oe p thorn
 98 a aacute abreve acircumflex adieresis agrave amacron aogonek aring atilde h m n nacute uni0146 eng
 95 D Eth Dcaron Dcroat O Oacute Ocircumflex Odieresis Ograve Ohungarumlaut Omacron Oslash Otilde Q
 77 v w wacute wcircumflex wdieresis wgrave y yacute ycircumflex ydieresis ygrave
 73 A Aacute Abreve Acircumflex Adieresis Agrave Amacron Aogonek Aring Atilde
 80 U Uacute Ubreve Ucircumflex Udieresis Ugrave Uhungarumlaut Umacron Uogonek Uring
 39 V W Wacute Wcircumflex Wdieresis Wgrave

StartChar: exclam.mlym
Encoding: 33 33 3
Width: 1200
Flags: W
LayerCount: 2
Fore
SplineSet
595 112 m 0,0,1
 579 112 579 112 570 123 c 128,-1,2
 561 134 561 134 556.5 161 c 128,-1,3
 552 188 552 188 551 233.5 c 128,-1,4
 550 279 550 279 550 348 c 0,5,6
 550 445 550 445 551 499 c 128,-1,7
 552 553 552 553 558 579 c 128,-1,8
 564 605 564 605 576.5 610.5 c 128,-1,9
 589 616 589 616 612 616 c 0,10,11
 624 616 624 616 631 609 c 128,-1,12
 638 602 638 602 642.5 579 c 128,-1,13
 647 556 647 556 648.5 511 c 128,-1,14
 650 466 650 466 650 389 c 0,15,16
 650 249 650 249 640 180.5 c 128,-1,17
 630 112 630 112 595 112 c 0,0,1
582 593 m 0,18,19
 578 593 578 593 572 581 c 128,-1,20
 566 569 566 569 566 544 c 0,21,22
 566 531 566 531 567.5 518.5 c 128,-1,23
 569 506 569 506 576 506 c 0,24,25
 582 506 582 506 584 510 c 128,-1,26
 586 514 586 514 586 519.5 c 128,-1,27
 586 525 586 525 585.5 532 c 128,-1,28
 585 539 585 539 585 545 c 0,29,30
 586 562 586 562 588 577.5 c 128,-1,31
 590 593 590 593 582 593 c 0,18,19
596 -8 m 0,32,33
 577 -8 577 -8 565.5 4.5 c 128,-1,34
 554 17 554 17 554 38 c 0,35,36
 554 57 554 57 564 73.5 c 128,-1,37
 574 90 574 90 596 90 c 0,38,39
 619 90 619 90 631 74.5 c 128,-1,40
 643 59 643 59 643 38 c 0,41,42
 643 15 643 15 629.5 3.5 c 128,-1,43
 616 -8 616 -8 596 -8 c 0,32,33
578 44 m 0,44,45
 579 55 579 55 583 64 c 128,-1,46
 587 73 587 73 582 73 c 0,47,48
 575 73 575 73 570.5 58.5 c 128,-1,49
 566 44 566 44 566 33 c 0,50,51
 566 23 566 23 571 23 c 0,52,53
 575 23 575 23 576 30.5 c 128,-1,54
 577 38 577 38 578 44 c 0,44,45
EndSplineSet
EndChar

StartChar: quotedbl.mlym
Encoding: 34 34 4
Width: 1200
Flags: W
LayerCount: 2
Fore
SplineSet
556 714 m 1,0,-1
 536 456 l 1,1,-1
 481 456 l 1,2,-1
 461 714 l 1,3,-1
 556 714 l 1,0,-1
739 714 m 1,4,-1
 719 456 l 1,5,-1
 664 456 l 1,6,-1
 644 714 l 1,7,-1
 739 714 l 1,4,-1
EndSplineSet
EndChar

StartChar: numbersign.mlym
Encoding: 35 35 5
Width: 1200
Flags: W
LayerCount: 2
Fore
SplineSet
613.954101562 108 m 0,0,1
 595.954101562 108 595.954101562 108 589.454101562 120 c 128,-1,2
 582.954101562 132 582.954101562 132 581.954101562 147 c 0,3,4
 580.954101562 164 580.954101562 164 587.454101562 181 c 128,-1,5
 593.954101562 198 593.954101562 198 592.954101562 211 c 0,6,7
 592.954101562 214 592.954101562 214 585.454101562 215 c 128,-1,8
 577.954101562 216 577.954101562 216 575.954101562 216 c 2,9,-1
 544.954101562 216 l 1,10,11
 541.954101562 207 541.954101562 207 535.954101562 192 c 128,-1,12
 529.954101562 177 529.954101562 177 521.954101562 162 c 128,-1,13
 513.954101562 147 513.954101562 147 503.454101562 136.5 c 128,-1,14
 492.954101562 126 492.954101562 126 479.954101562 126 c 0,15,16
 463.954101562 126 463.954101562 126 457.454101562 136 c 128,-1,17
 450.954101562 146 450.954101562 146 449.954101562 160 c 0,18,19
 448.954101562 177 448.954101562 177 453.454101562 187.5 c 128,-1,20
 457.954101562 198 457.954101562 198 456.954101562 214 c 0,21,22
 456.954101562 222 456.954101562 222 447.454101562 222.5 c 128,-1,23
 437.954101562 223 437.954101562 223 425.954101562 225 c 128,-1,24
 413.954101562 227 413.954101562 227 403.954101562 234.5 c 128,-1,25
 393.954101562 242 393.954101562 242 392.954101562 264 c 0,26,27
 392.954101562 276 392.954101562 276 398.954101562 283.5 c 128,-1,28
 404.954101562 291 404.954101562 291 413.954101562 295 c 128,-1,29
 422.954101562 299 422.954101562 299 433.954101562 300.5 c 128,-1,30
 444.954101562 302 444.954101562 302 454.954101562 302 c 0,31,32
 466.954101562 302 466.954101562 302 474.454101562 309.5 c 128,-1,33
 481.954101562 317 481.954101562 317 485.954101562 328 c 128,-1,34
 489.954101562 339 489.954101562 339 492.454101562 351 c 128,-1,35
 494.954101562 363 494.954101562 363 496.954101562 372 c 1,36,37
 488.954101562 372 488.954101562 372 476.954101562 373.5 c 128,-1,38
 464.954101562 375 464.954101562 375 453.454101562 378.5 c 128,-1,39
 441.954101562 382 441.954101562 382 433.954101562 389.5 c 128,-1,40
 425.954101562 397 425.954101562 397 425.954101562 409 c 0,41,42
 424.954101562 435 424.954101562 435 439.454101562 442 c 128,-1,43
 453.954101562 449 453.954101562 449 491.954101562 449 c 0,44,45
 507.954101562 449 507.954101562 449 513.954101562 452.5 c 128,-1,46
 519.954101562 456 519.954101562 456 524.954101562 472 c 0,47,48
 527.954101562 479 527.954101562 479 530.954101562 489.5 c 128,-1,49
 533.954101562 500 533.954101562 500 539.454101562 510 c 128,-1,50
 544.954101562 520 544.954101562 520 553.954101562 527 c 128,-1,51
 562.954101562 534 562.954101562 534 577.954101562 534 c 0,52,53
 597.954101562 534 597.954101562 534 605.454101562 522 c 128,-1,54
 612.954101562 510 612.954101562 510 613.954101562 499 c 0,55,56
 613.954101562 489 613.954101562 489 610.454101562 480.5 c 128,-1,57
 606.954101562 472 606.954101562 472 607.954101562 462 c 0,58,59
 607.954101562 457 607.954101562 457 612.454101562 454.5 c 128,-1,60
 616.954101562 452 616.954101562 452 622.454101562 450.5 c 128,-1,61
 627.954101562 449 627.954101562 449 633.954101562 449 c 128,-1,62
 639.954101562 449 639.954101562 449 642.954101562 449 c 0,63,64
 652.954101562 449 652.954101562 449 658.954101562 461 c 128,-1,65
 664.954101562 473 664.954101562 473 670.954101562 488 c 128,-1,66
 676.954101562 503 676.954101562 503 684.954101562 515 c 128,-1,67
 692.954101562 527 692.954101562 527 707.954101562 527 c 0,68,69
 727.954101562 527 727.954101562 527 736.954101562 511 c 128,-1,70
 745.954101562 495 745.954101562 495 746.954101562 483 c 0,71,72
 746.954101562 475 746.954101562 475 743.954101562 467.5 c 128,-1,73
 740.954101562 460 740.954101562 460 740.954101562 451 c 0,74,75
 740.954101562 444 740.954101562 444 751.454101562 443.5 c 128,-1,76
 761.954101562 443 761.954101562 443 773.954101562 441.5 c 128,-1,77
 785.954101562 440 785.954101562 440 795.954101562 434.5 c 128,-1,78
 805.954101562 429 805.954101562 429 806.954101562 412 c 0,79,80
 807.954101562 398 807.954101562 398 797.954101562 390 c 128,-1,81
 787.954101562 382 787.954101562 382 774.454101562 377.5 c 128,-1,82
 760.954101562 373 760.954101562 373 745.954101562 371.5 c 128,-1,83
 730.954101562 370 730.954101562 370 721.954101562 370 c 1,84,85
 714.954101562 351 714.954101562 351 710.454101562 335 c 128,-1,86
 705.954101562 319 705.954101562 319 698.954101562 299 c 1,87,88
 709.954101562 299 709.954101562 299 721.954101562 299.5 c 128,-1,89
 733.954101562 300 733.954101562 300 743.954101562 297.5 c 128,-1,90
 753.954101562 295 753.954101562 295 760.454101562 288 c 128,-1,91
 766.954101562 281 766.954101562 281 767.954101562 265 c 0,92,93
 768.954101562 251 768.954101562 251 762.954101562 241.5 c 128,-1,94
 756.954101562 232 756.954101562 232 746.954101562 226 c 128,-1,95
 736.954101562 220 736.954101562 220 725.454101562 217.5 c 128,-1,96
 713.954101562 215 713.954101562 215 702.954101562 215 c 2,97,-1
 697.954101562 215 l 1,98,-1
 686.954101562 216 l 1,99,-1
 681.954101562 216 l 1,100,101
 678.954101562 204 678.954101562 204 675.454101562 186 c 128,-1,102
 671.954101562 168 671.954101562 168 665.454101562 150.5 c 128,-1,103
 658.954101562 133 658.954101562 133 646.954101562 120.5 c 128,-1,104
 634.954101562 108 634.954101562 108 613.954101562 108 c 0,0,1
545.954101562 457 m 0,105,106
 548.954101562 457 548.954101562 457 552.954101562 463 c 128,-1,107
 556.954101562 469 556.954101562 469 560.454101562 476.5 c 128,-1,108
 563.954101562 484 563.954101562 484 566.954101562 492 c 128,-1,109
 569.954101562 500 569.954101562 500 569.954101562 503 c 0,110,111
 569.954101562 508 569.954101562 508 564.954101562 508 c 0,112,113
 560.954101562 509 560.954101562 509 556.454101562 504 c 128,-1,114
 551.954101562 499 551.954101562 499 548.454101562 492 c 128,-1,115
 544.954101562 485 544.954101562 485 542.454101562 477.5 c 128,-1,116
 539.954101562 470 539.954101562 470 539.954101562 466 c 0,117,118
 539.954101562 463 539.954101562 463 541.954101562 460 c 128,-1,119
 543.954101562 457 543.954101562 457 545.954101562 457 c 0,105,106
443.954101562 404 m 0,120,121
 448.954101562 404 448.954101562 404 451.954101562 415 c 128,-1,122
 454.954101562 426 454.954101562 426 453.954101562 430 c 0,123,124
 453.954101562 434 453.954101562 434 450.954101562 434 c 0,125,126
 445.954101562 436 445.954101562 436 441.454101562 429 c 128,-1,127
 436.954101562 422 436.954101562 422 437.954101562 416 c 0,128,129
 437.954101562 404 437.954101562 404 443.954101562 404 c 0,120,121
590.954101562 298 m 0,130,131
 601.954101562 298 601.954101562 298 609.954101562 305.5 c 128,-1,132
 617.954101562 313 617.954101562 313 622.954101562 323.5 c 128,-1,133
 627.954101562 334 627.954101562 334 629.954101562 345.5 c 128,-1,134
 631.954101562 357 631.954101562 357 631.954101562 366 c 0,135,136
 631.954101562 369 631.954101562 369 630.954101562 372 c 128,-1,137
 629.954101562 375 629.954101562 375 625.954101562 375 c 0,138,139
 602.954101562 375 602.954101562 375 593.954101562 369 c 128,-1,140
 584.954101562 363 584.954101562 363 576.954101562 342 c 0,141,142
 574.954101562 336 574.954101562 336 570.454101562 323 c 128,-1,143
 565.954101562 310 565.954101562 310 566.954101562 304 c 2,144,-1
 566.954101562 303 l 1,145,146
 571.954101562 300 571.954101562 300 578.454101562 299 c 128,-1,147
 584.954101562 298 584.954101562 298 590.954101562 298 c 0,130,131
425.954101562 279 m 0,148,149
 425.954101562 285 425.954101562 285 418.954101562 285 c 0,150,151
 409.954101562 285 409.954101562 285 406.954101562 273 c 128,-1,152
 403.954101562 261 403.954101562 261 405.954101562 256 c 256,153,154
 407.954101562 251 407.954101562 251 409.954101562 250 c 0,155,156
 411.954101562 250 411.954101562 250 414.954101562 253.5 c 128,-1,157
 417.954101562 257 417.954101562 257 420.454101562 262 c 128,-1,158
 422.954101562 267 422.954101562 267 424.454101562 272 c 128,-1,159
 425.954101562 277 425.954101562 277 425.954101562 279 c 0,148,149
EndSplineSet
EndChar

StartChar: percent.mlym
Encoding: 37 37 6
Width: 1200
Flags: W
LayerCount: 2
Fore
SplineSet
462.5 -6 m 0,0,1
 458.5 -6 458.5 -6 451 -4 c 128,-1,2
 443.5 -2 443.5 -2 436.5 2 c 128,-1,3
 429.5 6 429.5 6 424.5 11.5 c 128,-1,4
 419.5 17 419.5 17 419.5 23 c 0,5,6
 419.5 30 419.5 30 423.5 46.5 c 128,-1,7
 427.5 63 427.5 63 439.5 93 c 128,-1,8
 451.5 123 451.5 123 473 168.5 c 128,-1,9
 494.5 214 494.5 214 529.5 280 c 0,10,11
 583.5 383 583.5 383 617 450 c 128,-1,12
 650.5 517 650.5 517 671.5 556 c 0,13,14
 692.5 596 692.5 596 710 607.5 c 128,-1,15
 727.5 619 727.5 619 740.5 619 c 0,16,17
 757.5 619 757.5 619 764 607 c 128,-1,18
 770.5 595 770.5 595 769.5 577.5 c 128,-1,19
 768.5 560 768.5 560 763 541.5 c 128,-1,20
 757.5 523 757.5 523 751.5 510 c 0,21,22
 737.5 481 737.5 481 714.5 434.5 c 128,-1,23
 691.5 388 691.5 388 665 335.5 c 128,-1,24
 638.5 283 638.5 283 611 229 c 128,-1,25
 583.5 175 583.5 175 560.5 130.5 c 128,-1,26
 537.5 86 537.5 86 522 56 c 128,-1,27
 506.5 26 506.5 26 503.5 22 c 0,28,29
 492.5 5 492.5 5 482 -0.5 c 128,-1,30
 471.5 -6 471.5 -6 462.5 -6 c 0,0,1
468.5 393 m 0,31,32
 445.5 393 445.5 393 428 402.5 c 128,-1,33
 410.5 412 410.5 412 398.5 428 c 128,-1,34
 386.5 444 386.5 444 380.5 465 c 128,-1,35
 374.5 486 374.5 486 374.5 510 c 0,36,37
 374.5 529 374.5 529 381 548 c 128,-1,38
 387.5 567 387.5 567 399.5 582.5 c 128,-1,39
 411.5 598 411.5 598 428.5 608 c 128,-1,40
 445.5 618 445.5 618 466.5 618 c 0,41,42
 508.5 618 508.5 618 532.5 594.5 c 128,-1,43
 556.5 571 556.5 571 556.5 517 c 0,44,45
 556.5 490 556.5 490 549.5 467.5 c 128,-1,46
 542.5 445 542.5 445 530.5 428.5 c 128,-1,47
 518.5 412 518.5 412 502.5 402.5 c 128,-1,48
 486.5 393 486.5 393 468.5 393 c 0,31,32
468.5 460 m 0,49,50
 475.5 460 475.5 460 480.5 465.5 c 128,-1,51
 485.5 471 485.5 471 488.5 479.5 c 128,-1,52
 491.5 488 491.5 488 493 498 c 128,-1,53
 494.5 508 494.5 508 494.5 517 c 0,54,55
 494.5 534 494.5 534 487.5 546 c 128,-1,56
 480.5 558 480.5 558 468.5 558 c 0,57,58
 457.5 558 457.5 558 449.5 543.5 c 128,-1,59
 441.5 529 441.5 529 441.5 512 c 256,60,61
 441.5 495 441.5 495 448.5 477.5 c 128,-1,62
 455.5 460 455.5 460 468.5 460 c 0,49,50
400.5 512 m 256,63,64
 400.5 528 400.5 528 400.5 535.5 c 128,-1,65
 400.5 543 400.5 543 397.5 543 c 0,66,67
 391.5 543 391.5 543 389.5 530.5 c 128,-1,68
 387.5 518 387.5 518 387.5 514 c 0,69,70
 387.5 511 387.5 511 387.5 505.5 c 128,-1,71
 387.5 500 387.5 500 389 494.5 c 128,-1,72
 390.5 489 390.5 489 393 484.5 c 128,-1,73
 395.5 480 395.5 480 400.5 480 c 0,74,75
 404.5 480 404.5 480 402.5 488 c 128,-1,76
 400.5 496 400.5 496 400.5 512 c 256,63,64
425.5 453 m 0,77,78
 425.5 464 425.5 464 416.5 464 c 0,79,80
 410.5 464 410.5 464 410.5 456 c 0,81,82
 410.5 454 410.5 454 413 450 c 128,-1,83
 415.5 446 415.5 446 418.5 446 c 0,84,85
 425.5 446 425.5 446 425.5 453 c 0,77,78
737.5 -6 m 0,86,87
 714.5 -6 714.5 -6 697 3.5 c 128,-1,88
 679.5 13 679.5 13 667.5 29 c 128,-1,89
 655.5 45 655.5 45 649.5 66 c 128,-1,90
 643.5 87 643.5 87 643.5 111 c 0,91,92
 643.5 130 643.5 130 650 149 c 128,-1,93
 656.5 168 656.5 168 668.5 183.5 c 128,-1,94
 680.5 199 680.5 199 697.5 209 c 128,-1,95
 714.5 219 714.5 219 735.5 219 c 0,96,97
 777.5 219 777.5 219 801.5 195.5 c 128,-1,98
 825.5 172 825.5 172 825.5 118 c 0,99,100
 825.5 91 825.5 91 818.5 68.5 c 128,-1,101
 811.5 46 811.5 46 799.5 29.5 c 128,-1,102
 787.5 13 787.5 13 771.5 3.5 c 128,-1,103
 755.5 -6 755.5 -6 737.5 -6 c 0,86,87
737.5 61 m 0,104,105
 744.5 61 744.5 61 749.5 66.5 c 128,-1,106
 754.5 72 754.5 72 757.5 80.5 c 128,-1,107
 760.5 89 760.5 89 762 99 c 128,-1,108
 763.5 109 763.5 109 763.5 118 c 0,109,110
 763.5 135 763.5 135 756.5 147 c 128,-1,111
 749.5 159 749.5 159 737.5 159 c 0,112,113
 726.5 159 726.5 159 718.5 144.5 c 128,-1,114
 710.5 130 710.5 130 710.5 113 c 256,115,116
 710.5 96 710.5 96 717.5 78.5 c 128,-1,117
 724.5 61 724.5 61 737.5 61 c 0,104,105
669.5 113 m 256,118,119
 669.5 129 669.5 129 669.5 136.5 c 128,-1,120
 669.5 144 669.5 144 666.5 144 c 0,121,122
 660.5 144 660.5 144 658.5 131.5 c 128,-1,123
 656.5 119 656.5 119 656.5 115 c 0,124,125
 656.5 112 656.5 112 656.5 106.5 c 128,-1,126
 656.5 101 656.5 101 658 95.5 c 128,-1,127
 659.5 90 659.5 90 662 85.5 c 128,-1,128
 664.5 81 664.5 81 669.5 81 c 0,129,130
 673.5 81 673.5 81 671.5 89 c 128,-1,131
 669.5 97 669.5 97 669.5 113 c 256,118,119
460.5 82 m 0,132,133
 455.5 87 455.5 87 450 82 c 128,-1,134
 444.5 77 444.5 77 441.5 69 c 256,135,136
 438.5 61 438.5 61 435.5 50 c 128,-1,137
 432.5 39 432.5 39 432.5 34 c 0,138,139
 433.5 23 433.5 23 437 23 c 128,-1,140
 440.5 23 440.5 23 447.5 40 c 0,141,142
 452.5 52 452.5 52 457.5 66 c 128,-1,143
 462.5 80 462.5 80 460.5 82 c 0,132,133
694.5 54 m 0,144,145
 694.5 65 694.5 65 685.5 65 c 0,146,147
 679.5 65 679.5 65 679.5 57 c 0,148,149
 679.5 55 679.5 55 682 51 c 128,-1,150
 684.5 47 684.5 47 687.5 47 c 0,151,152
 694.5 47 694.5 47 694.5 54 c 0,144,145
EndSplineSet
EndChar

StartChar: quotesingle.mlym
Encoding: 39 39 7
Width: 1200
Flags: W
LayerCount: 2
Fore
SplineSet
647.5 714 m 1,0,-1
 627.5 456 l 1,1,-1
 572.5 456 l 1,2,-1
 552.5 714 l 1,3,-1
 647.5 714 l 1,0,-1
EndSplineSet
EndChar

StartChar: parenleft.mlym
Encoding: 40 40 8
Width: 1200
Flags: W
LayerCount: 2
Fore
SplineSet
664.5 -72 m 0,0,1
 610.5 -51 610.5 -51 574 -13 c 128,-1,2
 537.5 25 537.5 25 515 71.5 c 128,-1,3
 492.5 118 492.5 118 482.5 169.5 c 128,-1,4
 472.5 221 472.5 221 472.5 269 c 0,5,6
 472.5 315 472.5 315 481 363 c 128,-1,7
 489.5 411 489.5 411 505 456 c 128,-1,8
 520.5 501 520.5 501 543.5 540.5 c 128,-1,9
 566.5 580 566.5 580 594.5 609 c 0,10,11
 621.5 636 621.5 636 646.5 654 c 128,-1,12
 671.5 672 671.5 672 691.5 672 c 0,13,14
 706.5 672 706.5 672 715.5 660 c 128,-1,15
 724.5 648 724.5 648 724.5 636 c 0,16,17
 724.5 628 724.5 628 712 617 c 128,-1,18
 699.5 606 699.5 606 676.5 582 c 0,19,20
 646.5 550 646.5 550 626.5 512 c 128,-1,21
 606.5 474 606.5 474 594.5 433.5 c 128,-1,22
 582.5 393 582.5 393 578 351.5 c 128,-1,23
 573.5 310 573.5 310 573.5 272 c 256,24,25
 573.5 234 573.5 234 579.5 192.5 c 128,-1,26
 585.5 151 585.5 151 599.5 113 c 128,-1,27
 613.5 75 613.5 75 636.5 43.5 c 128,-1,28
 659.5 12 659.5 12 693.5 -7 c 0,29,30
 710.5 -16 710.5 -16 719 -22.5 c 128,-1,31
 727.5 -29 727.5 -29 727.5 -43 c 0,32,33
 727.5 -56 727.5 -56 714.5 -66 c 128,-1,34
 701.5 -76 701.5 -76 684.5 -76 c 0,35,36
 673.5 -76 673.5 -76 664.5 -72 c 0,0,1
650.5 620 m 0,37,38
 655.5 625 655.5 625 661.5 630.5 c 128,-1,39
 667.5 636 667.5 636 660.5 636 c 0,40,41
 652.5 636 652.5 636 642 628.5 c 128,-1,42
 631.5 621 631.5 621 621.5 611 c 128,-1,43
 611.5 601 611.5 601 605 590.5 c 128,-1,44
 598.5 580 598.5 580 598.5 574 c 0,45,46
 598.5 569 598.5 569 602.5 569 c 0,47,48
 607.5 569 607.5 569 612 575.5 c 128,-1,49
 616.5 582 616.5 582 619.5 587 c 0,50,51
 623.5 594 623.5 594 630.5 601.5 c 128,-1,52
 637.5 609 637.5 609 650.5 620 c 0,37,38
592.5 547 m 0,53,54
 592.5 555 592.5 555 586.5 555 c 0,55,56
 574.5 555 574.5 555 574.5 547 c 0,57,58
 574.5 541 574.5 541 577.5 539.5 c 128,-1,59
 580.5 538 580.5 538 582.5 538 c 256,60,61
 584.5 538 584.5 538 588.5 539.5 c 128,-1,62
 592.5 541 592.5 541 592.5 547 c 0,53,54
EndSplineSet
EndChar

StartChar: parenright.mlym
Encoding: 41 41 9
Width: 1200
Flags: W
LayerCount: 2
Fore
SplineSet
529 -93 m 0,0,1
 515 -93 515 -93 502.5 -84.5 c 128,-1,2
 490 -76 490 -76 490 -66 c 0,3,4
 490 -57 490 -57 500 -43 c 128,-1,5
 510 -29 510 -29 524.5 -8.5 c 128,-1,6
 539 12 539 12 556.5 41 c 128,-1,7
 574 70 574 70 588.5 108 c 128,-1,8
 603 146 603 146 613 195 c 128,-1,9
 623 244 623 244 623 305 c 0,10,11
 623 352 623 352 615.5 398.5 c 128,-1,12
 608 445 608 445 594 484 c 128,-1,13
 580 523 580 523 560.5 552 c 128,-1,14
 541 581 541 581 517 594 c 0,15,16
 505 601 505 601 491 610.5 c 128,-1,17
 477 620 477 620 477 638 c 0,18,19
 477 653 477 653 490 662.5 c 128,-1,20
 503 672 503 672 524 672 c 0,21,22
 561 672 561 672 597 646 c 128,-1,23
 633 620 633 620 661 572 c 128,-1,24
 689 524 689 524 706 455.5 c 128,-1,25
 723 387 723 387 723 302 c 0,26,27
 723 227 723 227 714.5 175 c 128,-1,28
 706 123 706 123 690.5 85 c 128,-1,29
 675 47 675 47 654 17 c 128,-1,30
 633 -13 633 -13 608 -44 c 0,31,32
 585 -73 585 -73 565.5 -83 c 128,-1,33
 546 -93 546 -93 529 -93 c 0,0,1
497 621 m 0,34,35
 501 621 501 621 504.5 628.5 c 128,-1,36
 508 636 508 636 508 644 c 0,37,38
 508 657 508 657 501 657 c 0,39,40
 497 657 497 657 493.5 649.5 c 128,-1,41
 490 642 490 642 490 634 c 0,42,43
 490 621 490 621 497 621 c 0,34,35
524 -60 m 256,44,45
 529 -50 529 -50 529.5 -40 c 128,-1,46
 530 -30 530 -30 526 -29 c 0,47,48
 524 -29 524 -29 520.5 -33 c 128,-1,49
 517 -37 517 -37 513.5 -43 c 128,-1,50
 510 -49 510 -49 507.5 -55 c 128,-1,51
 505 -61 505 -61 505 -64 c 0,52,53
 505 -72 505 -72 509 -73 c 0,54,55
 512 -74 512 -74 515.5 -72 c 128,-1,56
 519 -70 519 -70 524 -60 c 256,44,45
EndSplineSet
EndChar

StartChar: asterisk.mlym
Encoding: 42 42 10
Width: 1200
Flags: W
LayerCount: 2
Fore
SplineSet
647.5 760 m 1,0,-1
 627.5 568 l 1,1,-1
 819.5 622 l 1,2,-1
 833.5 530 l 1,3,-1
 649.5 515 l 1,4,-1
 768.5 357 l 1,5,-1
 682.5 310 l 1,6,-1
 597.5 485 l 1,7,-1
 520.5 310 l 1,8,-1
 431.5 357 l 1,9,-1
 548.5 515 l 1,10,-1
 366.5 530 l 1,11,-1
 380.5 622 l 1,12,-1
 570.5 568 l 1,13,-1
 549.5 760 l 1,14,-1
 647.5 760 l 1,0,-1
EndSplineSet
EndChar

StartChar: plus.mlym
Encoding: 43 43 11
Width: 1200
Flags: W
LayerCount: 2
Fore
SplineSet
636 388 m 1,0,-1
 835 388 l 1,1,-1
 835 317 l 1,2,-1
 636 317 l 1,3,-1
 636 111 l 1,4,-1
 564 111 l 1,5,-1
 564 317 l 1,6,-1
 365 317 l 1,7,-1
 365 388 l 1,8,-1
 564 388 l 1,9,-1
 564 595 l 1,10,-1
 636 595 l 1,11,-1
 636 388 l 1,0,-1
EndSplineSet
EndChar

StartChar: comma.mlym
Encoding: 44 44 12
Width: 1200
Flags: W
LayerCount: 2
Fore
SplineSet
675.5 105 m 1,0,1
 666.5 70 666.5 70 652.5 29 c 128,-1,2
 638.5 -12 638.5 -12 622 -52.5 c 128,-1,3
 605.5 -93 605.5 -93 589.5 -129 c 1,4,-1
 524.5 -129 l 1,5,6
 534.5 -91 534.5 -91 544 -47.5 c 128,-1,7
 553.5 -4 553.5 -4 561.5 38.5 c 128,-1,8
 569.5 81 569.5 81 574.5 116 c 1,9,-1
 668.5 116 l 1,10,-1
 675.5 105 l 1,0,1
EndSplineSet
EndChar

StartChar: hyphen.mlym
Encoding: 45 45 13
Width: 1200
Flags: W
LayerCount: 2
Fore
SplineSet
479 229 m 1,0,-1
 479 307 l 1,1,-1
 721 307 l 1,2,-1
 721 229 l 1,3,-1
 479 229 l 1,0,-1
EndSplineSet
EndChar

StartChar: period.mlym
Encoding: 46 46 14
Width: 1200
Flags: W
LayerCount: 2
Fore
SplineSet
594.5 -8 m 0,0,1
 554.5 -8 554.5 -8 526 20 c 128,-1,2
 497.5 48 497.5 48 497.5 92 c 0,3,4
 497.5 116 497.5 116 506 137.5 c 128,-1,5
 514.5 159 514.5 159 529.5 174.5 c 128,-1,6
 544.5 190 544.5 190 565.5 199.5 c 128,-1,7
 586.5 209 586.5 209 611.5 209 c 0,8,9
 631.5 209 631.5 209 648.5 200.5 c 128,-1,10
 665.5 192 665.5 192 677.5 177 c 128,-1,11
 689.5 162 689.5 162 696 143 c 128,-1,12
 702.5 124 702.5 124 702.5 103 c 0,13,14
 702.5 76 702.5 76 694 55.5 c 128,-1,15
 685.5 35 685.5 35 670.5 21 c 128,-1,16
 655.5 7 655.5 7 636 -0.5 c 128,-1,17
 616.5 -8 616.5 -8 594.5 -8 c 0,0,1
557.5 165 m 0,18,19
 564.5 172 564.5 172 566 177 c 128,-1,20
 567.5 182 567.5 182 565.5 182 c 0,21,22
 557.5 182 557.5 182 548.5 174.5 c 128,-1,23
 539.5 167 539.5 167 532 156.5 c 128,-1,24
 524.5 146 524.5 146 519.5 134 c 128,-1,25
 514.5 122 514.5 122 514.5 112 c 0,26,27
 514.5 110 514.5 110 516 104 c 128,-1,28
 517.5 98 517.5 98 520.5 98 c 0,29,30
 524.5 98 524.5 98 530.5 120 c 0,31,32
 533.5 134 533.5 134 541.5 145.5 c 128,-1,33
 549.5 157 549.5 157 557.5 165 c 0,18,19
598.5 49 m 0,34,35
 610.5 49 610.5 49 627 63 c 128,-1,36
 643.5 77 643.5 77 643.5 103 c 0,37,38
 643.5 123 643.5 123 633 136.5 c 128,-1,39
 622.5 150 622.5 150 605.5 150 c 256,40,41
 588.5 150 588.5 150 574.5 136.5 c 128,-1,42
 560.5 123 560.5 123 560.5 99 c 256,43,44
 560.5 75 560.5 75 571.5 62 c 128,-1,45
 582.5 49 582.5 49 598.5 49 c 0,34,35
EndSplineSet
EndChar

StartChar: slash.mlym
Encoding: 47 47 15
Width: 1200
Flags: W
LayerCount: 2
Fore
SplineSet
486.5 -77 m 0,0,1
 482.5 -77 482.5 -77 471 -75 c 128,-1,2
 459.5 -73 459.5 -73 447.5 -68.5 c 128,-1,3
 435.5 -64 435.5 -64 426.5 -57 c 128,-1,4
 417.5 -50 417.5 -50 417.5 -41 c 0,5,6
 417.5 -38 417.5 -38 428 -9.5 c 128,-1,7
 438.5 19 438.5 19 455.5 64 c 128,-1,8
 472.5 109 472.5 109 495 166 c 128,-1,9
 517.5 223 517.5 223 541.5 283 c 128,-1,10
 565.5 343 565.5 343 589.5 402 c 128,-1,11
 613.5 461 613.5 461 633.5 509.5 c 128,-1,12
 653.5 558 653.5 558 668.5 592 c 128,-1,13
 683.5 626 683.5 626 689.5 636 c 0,14,15
 696.5 647 696.5 647 708 656.5 c 128,-1,16
 719.5 666 719.5 666 733.5 666 c 0,17,18
 740.5 666 740.5 666 749 663.5 c 128,-1,19
 757.5 661 757.5 661 765 656.5 c 128,-1,20
 772.5 652 772.5 652 777.5 646 c 128,-1,21
 782.5 640 782.5 640 782.5 633 c 0,22,23
 782.5 625 782.5 625 774 599.5 c 128,-1,24
 765.5 574 765.5 574 754 544.5 c 128,-1,25
 742.5 515 742.5 515 731 487.5 c 128,-1,26
 719.5 460 719.5 460 713.5 447 c 0,27,28
 709.5 438 709.5 438 698.5 410.5 c 128,-1,29
 687.5 383 687.5 383 672.5 344.5 c 128,-1,30
 657.5 306 657.5 306 639.5 259.5 c 128,-1,31
 621.5 213 621.5 213 602.5 166.5 c 128,-1,32
 583.5 120 583.5 120 565 76 c 128,-1,33
 546.5 32 546.5 32 531 -2 c 128,-1,34
 515.5 -36 515.5 -36 503.5 -56.5 c 128,-1,35
 491.5 -77 491.5 -77 486.5 -77 c 0,0,1
461.5 -37 m 0,36,37
 465.5 -25 465.5 -25 473.5 -7 c 128,-1,38
 481.5 11 481.5 11 488.5 27.5 c 128,-1,39
 495.5 44 495.5 44 499 56.5 c 128,-1,40
 502.5 69 502.5 69 497.5 70 c 0,41,42
 495.5 71 495.5 71 490.5 71 c 128,-1,43
 485.5 71 485.5 71 482.5 66 c 0,44,45
 480.5 62 480.5 62 474 48.5 c 128,-1,46
 467.5 35 467.5 35 461 19.5 c 128,-1,47
 454.5 4 454.5 4 449.5 -10.5 c 128,-1,48
 444.5 -25 444.5 -25 444.5 -31 c 0,49,50
 444.5 -38 444.5 -38 452 -40 c 128,-1,51
 459.5 -42 459.5 -42 461.5 -37 c 0,36,37
EndSplineSet
EndChar

StartChar: zero.mlym
Encoding: 48 48 16
Width: 1200
Flags: W
LayerCount: 2
Fore
SplineSet
605 -17 m 0,0,1
 553 -17 553 -17 518.5 11.5 c 128,-1,2
 484 40 484 40 463 86 c 128,-1,3
 442 132 442 132 433.5 190 c 128,-1,4
 425 248 425 248 425 307 c 256,5,6
 425 366 425 366 435 422.5 c 128,-1,7
 445 479 445 479 467.5 523 c 128,-1,8
 490 567 490 567 526 594 c 128,-1,9
 562 621 562 621 613 621 c 0,10,11
 647 621 647 621 672 604 c 128,-1,12
 697 587 697 587 715 560 c 128,-1,13
 733 533 733 533 745 499 c 128,-1,14
 757 465 757 465 763.5 430 c 128,-1,15
 770 395 770 395 772.5 362.5 c 128,-1,16
 775 330 775 330 775 307 c 0,17,18
 775 258 775 258 766 201 c 128,-1,19
 757 144 757 144 737 95.5 c 128,-1,20
 717 47 717 47 684.5 15 c 128,-1,21
 652 -17 652 -17 605 -17 c 0,0,1
498 512 m 0,22,23
 507 531 507 531 512 540.5 c 128,-1,24
 517 550 517 550 517 553 c 0,25,26
 517 555 517 555 513 555.5 c 128,-1,27
 509 556 509 556 504 549 c 0,28,29
 500 543 500 543 493 530.5 c 128,-1,30
 486 518 486 518 479 504 c 128,-1,31
 472 490 472 490 467.5 476.5 c 128,-1,32
 463 463 463 463 463 456 c 256,33,34
 463 449 463 449 468 451 c 128,-1,35
 473 453 473 453 476 460 c 0,36,37
 479 468 479 468 484 481 c 128,-1,38
 489 494 489 494 498 512 c 0,22,23
606 59 m 0,39,40
 637 59 637 59 655 85 c 128,-1,41
 673 111 673 111 682.5 150 c 128,-1,42
 692 189 692 189 694.5 234 c 128,-1,43
 697 279 697 279 697 316 c 0,44,45
 697 339 697 339 694 377 c 128,-1,46
 691 415 691 415 682 451.5 c 128,-1,47
 673 488 673 488 656.5 514.5 c 128,-1,48
 640 541 640 541 613 541 c 0,49,50
 591 541 591 541 575 514 c 128,-1,51
 559 487 559 487 548.5 449.5 c 128,-1,52
 538 412 538 412 533 371 c 128,-1,53
 528 330 528 330 528 301 c 0,54,55
 528 286 528 286 528 262.5 c 128,-1,56
 528 239 528 239 530 212 c 128,-1,57
 532 185 532 185 536.5 158 c 128,-1,58
 541 131 541 131 549.5 109 c 128,-1,59
 558 87 558 87 572 73 c 128,-1,60
 586 59 586 59 606 59 c 0,39,40
EndSplineSet
EndChar

StartChar: one.mlym
Encoding: 49 49 17
Width: 1200
Flags: W
LayerCount: 2
Fore
SplineSet
649.5 0 m 0,0,1
 604.5 0 604.5 0 604.5 47 c 2,2,-1
 604.5 450 l 2,3,4
 604.5 459 604.5 459 604 466 c 128,-1,5
 603.5 473 603.5 473 601.5 473 c 0,6,7
 598.5 473 598.5 473 592.5 465.5 c 128,-1,8
 586.5 458 586.5 458 579 448.5 c 128,-1,9
 571.5 439 571.5 439 563 429.5 c 128,-1,10
 554.5 420 554.5 420 546.5 416 c 0,11,12
 537.5 411 537.5 411 527.5 411 c 0,13,14
 513.5 411 513.5 411 504.5 421 c 128,-1,15
 495.5 431 495.5 431 495.5 445 c 0,16,17
 495.5 450 495.5 450 505 463 c 128,-1,18
 514.5 476 514.5 476 521.5 486 c 0,19,20
 530.5 499 530.5 499 548.5 521 c 128,-1,21
 566.5 543 566.5 543 587 564 c 128,-1,22
 607.5 585 607.5 585 626.5 600.5 c 128,-1,23
 645.5 616 645.5 616 657.5 616 c 0,24,25
 663.5 616 663.5 616 671.5 615 c 128,-1,26
 679.5 614 679.5 614 687 611 c 128,-1,27
 694.5 608 694.5 608 699.5 602.5 c 128,-1,28
 704.5 597 704.5 597 704.5 587 c 2,29,-1
 704.5 48 l 2,30,31
 704.5 30 704.5 30 688 15 c 128,-1,32
 671.5 0 671.5 0 649.5 0 c 0,0,1
648.5 592 m 0,33,34
 653.5 600 653.5 600 656.5 602.5 c 128,-1,35
 659.5 605 659.5 605 656.5 606 c 0,36,37
 654.5 606 654.5 606 647.5 603.5 c 128,-1,38
 640.5 601 640.5 601 634.5 595 c 0,39,40
 629.5 590 629.5 590 621.5 583 c 128,-1,41
 613.5 576 613.5 576 613.5 572 c 0,42,43
 613.5 569 613.5 569 617.5 568 c 0,44,45
 624.5 567 624.5 567 634.5 577 c 128,-1,46
 644.5 587 644.5 587 648.5 592 c 0,33,34
637.5 45 m 0,47,48
 637.5 53 637.5 53 635 58 c 128,-1,49
 632.5 63 632.5 63 632.5 74 c 0,50,51
 632.5 79 632.5 79 632 83 c 128,-1,52
 631.5 87 631.5 87 626.5 87 c 0,53,54
 622.5 87 622.5 87 620.5 77.5 c 128,-1,55
 618.5 68 618.5 68 618.5 57 c 128,-1,56
 618.5 46 618.5 46 620.5 36.5 c 128,-1,57
 622.5 27 622.5 27 626.5 27 c 0,58,59
 637.5 27 637.5 27 637.5 45 c 0,47,48
EndSplineSet
EndChar

StartChar: two.mlym
Encoding: 50 50 18
Width: 1200
Flags: W
LayerCount: 2
Fore
SplineSet
469.2109375 0 m 2,0,1
 460.2109375 0 460.2109375 0 452.7109375 13 c 128,-1,2
 445.2109375 26 445.2109375 26 447.2109375 38 c 256,3,4
 449.2109375 50 449.2109375 50 463.2109375 68 c 128,-1,5
 477.2109375 86 477.2109375 86 493.2109375 106 c 0,6,7
 529.2109375 151 529.2109375 151 558.2109375 198.5 c 128,-1,8
 587.2109375 246 587.2109375 246 607.7109375 292.5 c 128,-1,9
 628.2109375 339 628.2109375 339 639.2109375 383 c 128,-1,10
 650.2109375 427 650.2109375 427 650.2109375 465 c 0,11,12
 650.2109375 506 650.2109375 506 632.7109375 520 c 128,-1,13
 615.2109375 534 615.2109375 534 595.2109375 534 c 256,14,15
 575.2109375 534 575.2109375 534 560.2109375 517.5 c 128,-1,16
 545.2109375 501 545.2109375 501 545.2109375 464 c 0,17,18
 545.2109375 442 545.2109375 442 550.2109375 430.5 c 128,-1,19
 555.2109375 419 555.2109375 419 555.2109375 403 c 0,20,21
 555.2109375 389 555.2109375 389 539.7109375 383 c 128,-1,22
 524.2109375 377 524.2109375 377 513.2109375 377 c 0,23,24
 487.2109375 377 487.2109375 377 469.7109375 403.5 c 128,-1,25
 452.2109375 430 452.2109375 430 452.2109375 470 c 0,26,27
 452.2109375 502 452.2109375 502 462.7109375 529.5 c 128,-1,28
 473.2109375 557 473.2109375 557 492.7109375 577.5 c 128,-1,29
 512.2109375 598 512.2109375 598 538.7109375 610 c 128,-1,30
 565.2109375 622 565.2109375 622 596.2109375 622 c 0,31,32
 626.2109375 622 626.2109375 622 654.7109375 610.5 c 128,-1,33
 683.2109375 599 683.2109375 599 705.2109375 577.5 c 128,-1,34
 727.2109375 556 727.2109375 556 740.2109375 525.5 c 128,-1,35
 753.2109375 495 753.2109375 495 753.2109375 457 c 0,36,37
 753.2109375 410 753.2109375 410 741.2109375 364 c 128,-1,38
 729.2109375 318 729.2109375 318 710.7109375 277 c 128,-1,39
 692.2109375 236 692.2109375 236 671.2109375 201 c 128,-1,40
 650.2109375 166 650.2109375 166 631.7109375 140 c 128,-1,41
 613.2109375 114 613.2109375 114 601.2109375 98 c 128,-1,42
 589.2109375 82 589.2109375 82 589.2109375 79 c 1,43,44
 592.2109375 79 592.2109375 79 597.2109375 79 c 2,45,-1
 621.2109375 79 l 1,46,-1
 708.2109375 82 l 2,47,48
 726.2109375 83 726.2109375 83 735.2109375 79 c 128,-1,49
 744.2109375 75 744.2109375 75 748.2109375 67.5 c 128,-1,50
 752.2109375 60 752.2109375 60 752.2109375 50 c 128,-1,51
 752.2109375 40 752.2109375 40 752.2109375 29 c 0,52,53
 752.2109375 11 752.2109375 11 741.7109375 5.5 c 128,-1,54
 731.2109375 0 731.2109375 0 699.2109375 0 c 2,55,-1
 469.2109375 0 l 2,0,1
485.2109375 488 m 0,56,57
 486.2109375 500 486.2109375 500 484.2109375 507 c 128,-1,58
 482.2109375 514 482.2109375 514 479.2109375 513 c 0,59,60
 475.2109375 513 475.2109375 513 472.7109375 506.5 c 128,-1,61
 470.2109375 500 470.2109375 500 469.7109375 491.5 c 128,-1,62
 469.2109375 483 469.2109375 483 469.2109375 475.5 c 128,-1,63
 469.2109375 468 469.2109375 468 469.2109375 465 c 0,64,65
 471.2109375 452 471.2109375 452 474.2109375 450 c 0,66,67
 479.2109375 445 479.2109375 445 481.2109375 452 c 128,-1,68
 483.2109375 459 483.2109375 459 485.2109375 488 c 0,56,57
487.2109375 424 m 0,69,70
 487.2109375 431 487.2109375 431 480.2109375 431 c 256,71,72
 473.2109375 431 473.2109375 431 473.2109375 423 c 0,73,74
 473.2109375 421 473.2109375 421 475.2109375 418 c 128,-1,75
 477.2109375 415 477.2109375 415 479.2109375 415 c 0,76,77
 483.2109375 415 483.2109375 415 485.2109375 418 c 128,-1,78
 487.2109375 421 487.2109375 421 487.2109375 424 c 0,69,70
486.2109375 50 m 0,79,80
 494.2109375 69 494.2109375 69 491.2109375 69 c 0,81,82
 484.2109375 69 484.2109375 69 476.7109375 60 c 128,-1,83
 469.2109375 51 469.2109375 51 469.2109375 40 c 0,84,85
 469.2109375 32 469.2109375 32 473.2109375 32 c 0,86,87
 478.2109375 32 478.2109375 32 486.2109375 50 c 0,79,80
EndSplineSet
EndChar

StartChar: three.mlym
Encoding: 51 51 19
Width: 1200
Flags: W
LayerCount: 2
Fore
SplineSet
652 486 m 0,0,1
 652 515 652 515 638 527.5 c 128,-1,2
 624 540 624 540 596 540 c 0,3,4
 563 540 563 540 547 514.5 c 128,-1,5
 531 489 531 489 531 430 c 0,6,7
 531 416 531 416 520.5 410 c 128,-1,8
 510 404 510 404 499 404 c 0,9,10
 438 404 438 404 438 493 c 0,11,12
 438 520 438 520 451.5 543.5 c 128,-1,13
 465 567 465 567 486.5 584.5 c 128,-1,14
 508 602 508 602 536 612 c 128,-1,15
 564 622 564 622 592 622 c 0,16,17
 636 622 636 622 667.5 611 c 128,-1,18
 699 600 699 600 719 581 c 128,-1,19
 739 562 739 562 749 537.5 c 128,-1,20
 759 513 759 513 759 487 c 0,21,22
 759 447 759 447 741.5 418 c 128,-1,23
 724 389 724 389 702.5 368.5 c 128,-1,24
 681 348 681 348 663.5 336 c 128,-1,25
 646 324 646 324 646 318 c 256,26,27
 646 312 646 312 664 305.5 c 128,-1,28
 682 299 682 299 704 284 c 128,-1,29
 726 269 726 269 744 241.5 c 128,-1,30
 762 214 762 214 762 167 c 0,31,32
 762 121 762 121 744.5 88.5 c 128,-1,33
 727 56 727 56 698.5 35 c 128,-1,34
 670 14 670 14 634 4 c 128,-1,35
 598 -6 598 -6 561 -6 c 0,36,37
 545 -6 545 -6 525 -1.5 c 128,-1,38
 505 3 505 3 487.5 12.5 c 128,-1,39
 470 22 470 22 458 36.5 c 128,-1,40
 446 51 446 51 446 71 c 0,41,42
 446 86 446 86 452 95.5 c 128,-1,43
 458 105 458 105 469 105 c 0,44,45
 482 105 482 105 492.5 100.5 c 128,-1,46
 503 96 503 96 513.5 90.5 c 128,-1,47
 524 85 524 85 536 80.5 c 128,-1,48
 548 76 548 76 563 76 c 0,49,50
 590 76 590 76 608 84 c 128,-1,51
 626 92 626 92 636.5 105 c 128,-1,52
 647 118 647 118 651 134 c 128,-1,53
 655 150 655 150 655 166 c 0,54,55
 655 198 655 198 637 220 c 128,-1,56
 619 242 619 242 590 242 c 0,57,58
 548 242 548 242 531 257 c 128,-1,59
 514 272 514 272 514 292 c 0,60,61
 514 311 514 311 535.5 334.5 c 128,-1,62
 557 358 557 358 583 383 c 128,-1,63
 609 408 609 408 630.5 434.5 c 128,-1,64
 652 461 652 461 652 486 c 0,0,1
479 515 m 0,65,66
 480 527 480 527 478 534 c 128,-1,67
 476 541 476 541 473 540 c 0,68,69
 469 540 469 540 465.5 534 c 128,-1,70
 462 528 462 528 459.5 520 c 128,-1,71
 457 512 457 512 455.5 504 c 128,-1,72
 454 496 454 496 455 492 c 0,73,74
 457 479 457 479 460 477 c 0,75,76
 465 472 465 472 471 479 c 128,-1,77
 477 486 477 486 479 515 c 0,65,66
473 451 m 0,78,79
 473 458 473 458 466 458 c 256,80,81
 459 458 459 458 459 450 c 0,82,83
 459 448 459 448 461 445 c 128,-1,84
 463 442 463 442 465 442 c 0,85,86
 469 442 469 442 471 445 c 128,-1,87
 473 448 473 448 473 451 c 0,78,79
547 291 m 0,88,89
 549 296 549 296 553 304 c 128,-1,90
 557 312 557 312 562 319 c 0,91,92
 566 325 566 325 567 330 c 128,-1,93
 568 335 568 335 566 335 c 0,94,95
 562 335 562 335 556 329 c 128,-1,96
 550 323 550 323 544.5 315 c 128,-1,97
 539 307 539 307 535 298.5 c 128,-1,98
 531 290 531 290 531 284 c 0,99,100
 531 275 531 275 536 275 c 256,101,102
 541 275 541 275 547 291 c 0,88,89
477 80 m 0,103,104
 477 101 477 101 468 92 c 0,105,106
 463 87 463 87 461 78 c 128,-1,107
 459 69 459 69 460 62 c 0,108,109
 461 58 461 58 463 56.5 c 128,-1,110
 465 55 465 55 467 55 c 256,111,112
 469 55 469 55 473 63.5 c 128,-1,113
 477 72 477 72 477 80 c 0,103,104
EndSplineSet
EndChar

StartChar: four.mlym
Encoding: 52 52 20
Width: 1200
Flags: W
LayerCount: 2
Fore
SplineSet
707.5 0 m 0,0,1
 683.5 0 683.5 0 675 19.5 c 128,-1,2
 666.5 39 666.5 39 666.5 62 c 2,3,-1
 666.5 130 l 2,4,5
 666.5 142 666.5 142 653.5 142 c 2,6,-1
 472.5 142 l 2,7,8
 450.5 142 450.5 142 440 152 c 128,-1,9
 429.5 162 429.5 162 429.5 173 c 0,10,11
 429.5 178 429.5 178 438 209.5 c 128,-1,12
 446.5 241 446.5 241 459 286 c 128,-1,13
 471.5 331 471.5 331 486.5 382 c 128,-1,14
 501.5 433 501.5 433 515 478 c 128,-1,15
 528.5 523 528.5 523 538.5 555 c 128,-1,16
 548.5 587 548.5 587 551.5 592 c 0,17,18
 559.5 607 559.5 607 569.5 610.5 c 128,-1,19
 579.5 614 579.5 614 589.5 614 c 0,20,21
 594.5 614 594.5 614 603.5 612 c 128,-1,22
 612.5 610 612.5 610 621 606.5 c 128,-1,23
 629.5 603 629.5 603 636 598 c 128,-1,24
 642.5 593 642.5 593 642.5 587 c 256,25,26
 642.5 581 642.5 581 637.5 558.5 c 128,-1,27
 632.5 536 632.5 536 624.5 503.5 c 128,-1,28
 616.5 471 616.5 471 606.5 433 c 128,-1,29
 596.5 395 596.5 395 586.5 358.5 c 128,-1,30
 576.5 322 576.5 322 567.5 291.5 c 128,-1,31
 558.5 261 558.5 261 552.5 243 c 0,32,33
 550.5 238 550.5 238 549.5 235 c 128,-1,34
 548.5 232 548.5 232 548.5 229 c 0,35,36
 548.5 224 548.5 224 556.5 224 c 2,37,-1
 653.5 224 l 2,38,39
 661.5 224 661.5 224 664 226.5 c 128,-1,40
 666.5 229 666.5 229 666.5 235 c 2,41,-1
 666.5 536 l 2,42,43
 666.5 561 666.5 561 671 576.5 c 128,-1,44
 675.5 592 675.5 592 682.5 601 c 128,-1,45
 689.5 610 689.5 610 698.5 613 c 128,-1,46
 707.5 616 707.5 616 717.5 616 c 0,47,48
 744.5 616 744.5 616 757.5 597 c 128,-1,49
 770.5 578 770.5 578 770.5 550 c 2,50,-1
 770.5 70 l 2,51,52
 770.5 49 770.5 49 765.5 35 c 128,-1,53
 760.5 21 760.5 21 751.5 13.5 c 128,-1,54
 742.5 6 742.5 6 731 3 c 128,-1,55
 719.5 0 719.5 0 707.5 0 c 0,0,1
686.5 541 m 256,56,57
 690.5 541 690.5 541 694 547 c 128,-1,58
 697.5 553 697.5 553 700 561 c 128,-1,59
 702.5 569 702.5 569 704 577.5 c 128,-1,60
 705.5 586 705.5 586 705.5 591 c 0,61,62
 705.5 598 705.5 598 698.5 598 c 0,63,64
 695.5 598 695.5 598 692.5 593.5 c 128,-1,65
 689.5 589 689.5 589 687 582.5 c 128,-1,66
 684.5 576 684.5 576 682.5 569.5 c 128,-1,67
 680.5 563 680.5 563 680.5 558 c 0,68,69
 680.5 552 680.5 552 681.5 546.5 c 128,-1,70
 682.5 541 682.5 541 686.5 541 c 256,56,57
473.5 215 m 0,71,72
 477.5 228 477.5 228 480 235 c 128,-1,73
 482.5 242 482.5 242 481.5 251 c 0,74,75
 481.5 259 481.5 259 476.5 259 c 0,76,77
 473.5 259 473.5 259 470 251.5 c 128,-1,78
 466.5 244 466.5 244 463 234 c 128,-1,79
 459.5 224 459.5 224 457.5 214 c 128,-1,80
 455.5 204 455.5 204 455.5 199 c 0,81,82
 455.5 188 455.5 188 460.5 188 c 0,83,84
 467.5 189 467.5 189 473.5 215 c 0,71,72
463.5 169 m 0,85,86
 463.5 179 463.5 179 455.5 179 c 256,87,88
 447.5 179 447.5 179 447.5 169 c 0,89,90
 447.5 167 447.5 167 448.5 166 c 0,91,92
 452.5 162 452.5 162 455.5 162 c 0,93,94
 457.5 162 457.5 162 460.5 164 c 128,-1,95
 463.5 166 463.5 166 463.5 169 c 0,85,86
699.5 29 m 0,96,97
 696.5 35 696.5 35 693.5 37.5 c 128,-1,98
 690.5 40 690.5 40 690.5 45 c 0,99,100
 690.5 49 690.5 49 689.5 53 c 0,101,102
 689.5 61 689.5 61 684.5 61 c 0,103,104
 678.5 61 678.5 61 678.5 50 c 0,105,106
 678.5 42 678.5 42 683 28.5 c 128,-1,107
 687.5 15 687.5 15 693.5 15 c 0,108,109
 696.5 15 696.5 15 699.5 19.5 c 128,-1,110
 702.5 24 702.5 24 699.5 29 c 0,96,97
EndSplineSet
EndChar

StartChar: five.mlym
Encoding: 53 53 21
Width: 1200
Flags: W
LayerCount: 2
Fore
SplineSet
500 -8 m 0,0,1
 478 -8 478 -8 465.5 -1.5 c 128,-1,2
 453 5 453 5 447 14 c 128,-1,3
 441 23 441 23 439.5 32.5 c 128,-1,4
 438 42 438 42 438 48 c 0,5,6
 438 62 438 62 443.5 70 c 128,-1,7
 449 78 449 78 458 81.5 c 128,-1,8
 467 85 467 85 478 85.5 c 128,-1,9
 489 86 489 86 500 86 c 0,10,11
 587 86 587 86 623.5 112.5 c 128,-1,12
 660 139 660 139 660 196 c 0,13,14
 660 251 660 251 634 277 c 128,-1,15
 608 303 608 303 559 303 c 0,16,17
 540 303 540 303 528 300 c 128,-1,18
 516 297 516 297 507 293.5 c 128,-1,19
 498 290 498 290 490 287 c 128,-1,20
 482 284 482 284 472 284 c 256,21,22
 462 284 462 284 456 293 c 128,-1,23
 450 302 450 302 447 314.5 c 128,-1,24
 444 327 444 327 443.5 341.5 c 128,-1,25
 443 356 443 356 443 366 c 2,26,-1
 443 568 l 2,27,28
 443 595 443 595 456.5 605.5 c 128,-1,29
 470 616 470 616 489 616 c 2,30,-1
 722 616 l 2,31,32
 730 616 730 616 737 608.5 c 128,-1,33
 744 601 744 601 744 587 c 0,34,35
 744 569 744 569 736.5 552.5 c 128,-1,36
 729 536 729 536 720 536 c 2,37,-1
 552 535 l 2,38,39
 547 535 547 535 545 530.5 c 128,-1,40
 543 526 543 526 543 521 c 2,41,-1
 543 399 l 2,42,43
 543 383 543 383 546 381 c 128,-1,44
 549 379 549 379 556 379 c 2,45,-1
 580 380 l 2,46,47
 620 382 620 382 653.5 371.5 c 128,-1,48
 687 361 687 361 711 338 c 128,-1,49
 735 315 735 315 748.5 280 c 128,-1,50
 762 245 762 245 762 197 c 0,51,52
 762 158 762 158 746 121.5 c 128,-1,53
 730 85 730 85 697.5 56 c 128,-1,54
 665 27 665 27 616 9.5 c 128,-1,55
 567 -8 567 -8 500 -8 c 0,0,1
471 403 m 0,56,57
 471 422 471 422 470 432 c 128,-1,58
 469 442 469 442 463 436 c 0,59,60
 460 433 460 433 458 421 c 128,-1,61
 456 409 456 409 456 395 c 128,-1,62
 456 381 456 381 458 369 c 128,-1,63
 460 357 460 357 463 354 c 256,64,65
 466 351 466 351 467 351 c 0,66,67
 471 351 471 351 471 403 c 0,56,57
479 326 m 0,68,69
 479 336 479 336 474 336 c 0,70,71
 463 336 463 336 463 322 c 0,72,73
 463 315 463 315 471 315 c 0,74,75
 476 315 476 315 477.5 319.5 c 128,-1,76
 479 324 479 324 479 326 c 0,68,69
470 48 m 0,77,78
 469 50 469 50 469.5 54 c 128,-1,79
 470 58 470 58 470.5 61.5 c 128,-1,80
 471 65 471 65 470 67.5 c 128,-1,81
 469 70 469 70 465 70 c 0,82,83
 460 70 460 70 458 61.5 c 128,-1,84
 456 53 456 53 457 42 c 256,85,86
 458 31 458 31 461 21.5 c 128,-1,87
 464 12 464 12 470 12 c 0,88,89
 472 12 472 12 473.5 23 c 128,-1,90
 475 34 475 34 470 48 c 0,77,78
EndSplineSet
EndChar

StartChar: six.mlym
Encoding: 54 54 22
Width: 1200
Flags: W
LayerCount: 2
Fore
SplineSet
601.5 -11 m 0,0,1
 549.5 -11 549.5 -11 513 8.5 c 128,-1,2
 476.5 28 476.5 28 453.5 61 c 128,-1,3
 430.5 94 430.5 94 420 136.5 c 128,-1,4
 409.5 179 409.5 179 409.5 225 c 0,5,6
 409.5 276 409.5 276 417.5 328.5 c 128,-1,7
 425.5 381 425.5 381 442.5 429 c 128,-1,8
 459.5 477 459.5 477 487 518 c 128,-1,9
 514.5 559 514.5 559 553.5 587 c 0,10,11
 581.5 607 581.5 607 609.5 613.5 c 128,-1,12
 637.5 620 637.5 620 659.5 620 c 0,13,14
 664.5 620 664.5 620 672 618.5 c 128,-1,15
 679.5 617 679.5 617 686.5 614 c 128,-1,16
 693.5 611 693.5 611 699 606 c 128,-1,17
 704.5 601 704.5 601 704.5 593 c 0,18,19
 704.5 579 704.5 579 699.5 567.5 c 128,-1,20
 694.5 556 694.5 556 667.5 547 c 0,21,22
 641.5 538 641.5 538 620.5 521 c 128,-1,23
 599.5 504 599.5 504 583 482.5 c 128,-1,24
 566.5 461 566.5 461 554.5 435.5 c 128,-1,25
 542.5 410 542.5 410 533.5 385 c 0,26,27
 528.5 373 528.5 373 524.5 354.5 c 128,-1,28
 520.5 336 520.5 336 520.5 325 c 0,29,30
 520.5 315 520.5 315 524.5 315 c 0,31,32
 527.5 315 527.5 315 534.5 324.5 c 128,-1,33
 541.5 334 541.5 334 554.5 345 c 128,-1,34
 567.5 356 567.5 356 586.5 365.5 c 128,-1,35
 605.5 375 605.5 375 632.5 375 c 0,36,37
 709.5 375 709.5 375 750 323 c 128,-1,38
 790.5 271 790.5 271 790.5 187 c 0,39,40
 790.5 146 790.5 146 775.5 110 c 128,-1,41
 760.5 74 760.5 74 734.5 47 c 128,-1,42
 708.5 20 708.5 20 674 4.5 c 128,-1,43
 639.5 -11 639.5 -11 601.5 -11 c 0,0,1
596.5 80 m 0,44,45
 638.5 80 638.5 80 664 106.5 c 128,-1,46
 689.5 133 689.5 133 689.5 190 c 0,47,48
 689.5 207 689.5 207 686.5 224 c 128,-1,49
 683.5 241 683.5 241 675.5 255 c 128,-1,50
 667.5 269 667.5 269 654 277.5 c 128,-1,51
 640.5 286 640.5 286 619.5 286 c 0,52,53
 600.5 286 600.5 286 581 276 c 128,-1,54
 561.5 266 561.5 266 546.5 250.5 c 128,-1,55
 531.5 235 531.5 235 522 215.5 c 128,-1,56
 512.5 196 512.5 196 512.5 178 c 0,57,58
 512.5 137 512.5 137 530 108.5 c 128,-1,59
 547.5 80 547.5 80 596.5 80 c 0,44,45
470.5 107 m 0,60,61
 467.5 118 467.5 118 463.5 127.5 c 128,-1,62
 459.5 137 459.5 137 456.5 148 c 0,63,64
 454.5 154 454.5 154 453 159 c 128,-1,65
 451.5 164 451.5 164 447.5 163 c 0,66,67
 444.5 163 444.5 163 442.5 155 c 0,68,69
 441.5 148 441.5 148 445 135 c 128,-1,70
 448.5 122 448.5 122 453.5 110 c 128,-1,71
 458.5 98 458.5 98 464 89.5 c 128,-1,72
 469.5 81 469.5 81 471.5 81 c 0,73,74
 476.5 81 476.5 81 476.5 86 c 0,75,76
 476.5 90 476.5 90 474.5 95 c 128,-1,77
 472.5 100 472.5 100 470.5 107 c 0,60,61
EndSplineSet
EndChar

StartChar: seven.mlym
Encoding: 55 55 23
Width: 1200
Flags: W
LayerCount: 2
Fore
SplineSet
521.5 -2 m 0,0,1
 507.5 -2 507.5 -2 498 6.5 c 128,-1,2
 488.5 15 488.5 15 488.5 25 c 0,3,4
 488.5 34 488.5 34 498.5 70 c 128,-1,5
 508.5 106 508.5 106 523.5 156 c 128,-1,6
 538.5 206 538.5 206 556.5 263 c 128,-1,7
 574.5 320 574.5 320 591 371 c 128,-1,8
 607.5 422 607.5 422 620.5 461 c 128,-1,9
 633.5 500 633.5 500 638.5 514 c 0,10,11
 643.5 529 643.5 529 631.5 529 c 2,12,-1
 501.5 529 l 2,13,14
 474.5 529 474.5 529 459.5 537.5 c 128,-1,15
 444.5 546 444.5 546 444.5 573 c 256,16,17
 444.5 600 444.5 600 461 608 c 128,-1,18
 477.5 616 477.5 616 503.5 616 c 2,19,-1
 714.5 616 l 2,20,21
 731.5 616 731.5 616 743.5 605.5 c 128,-1,22
 755.5 595 755.5 595 755.5 581 c 0,23,24
 755.5 571 755.5 571 744.5 529 c 128,-1,25
 733.5 487 733.5 487 716 429 c 128,-1,26
 698.5 371 698.5 371 677 303.5 c 128,-1,27
 655.5 236 655.5 236 635.5 176 c 128,-1,28
 615.5 116 615.5 116 599.5 71 c 128,-1,29
 583.5 26 583.5 26 575.5 11 c 0,30,31
 573.5 6 573.5 6 559 2 c 128,-1,32
 544.5 -2 544.5 -2 521.5 -2 c 0,0,1
476.5 594 m 0,33,34
 476.5 602 476.5 602 471.5 602 c 256,35,36
 466.5 602 466.5 602 460 594.5 c 128,-1,37
 453.5 587 453.5 587 453.5 576 c 0,38,39
 453.5 556 453.5 556 461.5 556 c 0,40,41
 464.5 556 464.5 556 467.5 560.5 c 128,-1,42
 470.5 565 470.5 565 472.5 571 c 128,-1,43
 474.5 577 474.5 577 475.5 583.5 c 128,-1,44
 476.5 590 476.5 590 476.5 594 c 0,33,34
521.5 38 m 0,45,46
 523.5 48 523.5 48 525.5 58.5 c 128,-1,47
 527.5 69 527.5 69 529.5 73 c 0,48,49
 533.5 78 533.5 78 532 83 c 128,-1,50
 530.5 88 530.5 88 525.5 88 c 0,51,52
 522.5 88 522.5 88 519 81 c 128,-1,53
 515.5 74 515.5 74 513 64.5 c 128,-1,54
 510.5 55 510.5 55 508.5 45.5 c 128,-1,55
 506.5 36 506.5 36 506.5 31 c 0,56,57
 506.5 19 506.5 19 511.5 19 c 256,58,59
 516.5 19 516.5 19 521.5 38 c 0,45,46
EndSplineSet
EndChar

StartChar: eight.mlym
Encoding: 56 56 24
Width: 1200
Flags: W
LayerCount: 2
Fore
SplineSet
591.5 -6 m 0,0,1
 551.5 -6 551.5 -6 518 8.5 c 128,-1,2
 484.5 23 484.5 23 461 46.5 c 128,-1,3
 437.5 70 437.5 70 424.5 100.5 c 128,-1,4
 411.5 131 411.5 131 411.5 163 c 0,5,6
 411.5 201 411.5 201 428.5 228 c 128,-1,7
 445.5 255 445.5 255 466 274 c 128,-1,8
 486.5 293 486.5 293 503.5 305.5 c 128,-1,9
 520.5 318 520.5 318 520.5 325 c 0,10,11
 520.5 333 520.5 333 505 342 c 128,-1,12
 489.5 351 489.5 351 470.5 367 c 128,-1,13
 451.5 383 451.5 383 436 407.5 c 128,-1,14
 420.5 432 420.5 432 420.5 471 c 0,15,16
 420.5 503 420.5 503 435 531 c 128,-1,17
 449.5 559 449.5 559 474.5 580 c 128,-1,18
 499.5 601 499.5 601 531.5 613 c 128,-1,19
 563.5 625 563.5 625 598.5 625 c 0,20,21
 624.5 625 624.5 625 654.5 614.5 c 128,-1,22
 684.5 604 684.5 604 710 584.5 c 128,-1,23
 735.5 565 735.5 565 752 536 c 128,-1,24
 768.5 507 768.5 507 768.5 469 c 0,25,26
 768.5 432 768.5 432 754.5 409.5 c 128,-1,27
 740.5 387 740.5 387 724 373.5 c 128,-1,28
 707.5 360 707.5 360 693.5 353 c 128,-1,29
 679.5 346 679.5 346 679.5 340 c 0,30,31
 679.5 331 679.5 331 696.5 319.5 c 128,-1,32
 713.5 308 713.5 308 734 289.5 c 128,-1,33
 754.5 271 754.5 271 771.5 242 c 128,-1,34
 788.5 213 788.5 213 788.5 169 c 0,35,36
 788.5 136 788.5 136 773 104.5 c 128,-1,37
 757.5 73 757.5 73 730.5 48 c 128,-1,38
 703.5 23 703.5 23 668 8.5 c 128,-1,39
 632.5 -6 632.5 -6 591.5 -6 c 0,0,1
463.5 512 m 0,40,41
 464.5 518 464.5 518 469.5 525 c 128,-1,42
 474.5 532 474.5 532 480.5 538.5 c 128,-1,43
 486.5 545 486.5 545 492 550.5 c 128,-1,44
 497.5 556 497.5 556 500.5 559 c 0,45,46
 511.5 571 511.5 571 511.5 578 c 0,47,48
 511.5 582 511.5 582 507.5 582 c 0,49,50
 498.5 582 498.5 582 488 572.5 c 128,-1,51
 477.5 563 477.5 563 468.5 549.5 c 128,-1,52
 459.5 536 459.5 536 453.5 522.5 c 128,-1,53
 447.5 509 447.5 509 447.5 501 c 256,54,55
 447.5 493 447.5 493 451.5 493 c 0,56,57
 458.5 493 458.5 493 463.5 512 c 0,40,41
598.5 371 m 0,58,59
 611.5 371 611.5 371 624 379.5 c 128,-1,60
 636.5 388 636.5 388 646.5 402 c 128,-1,61
 656.5 416 656.5 416 663 433.5 c 128,-1,62
 669.5 451 669.5 451 669.5 469 c 0,63,64
 669.5 504 669.5 504 649.5 529.5 c 128,-1,65
 629.5 555 629.5 555 597.5 555 c 256,66,67
 565.5 555 565.5 555 542.5 533 c 128,-1,68
 519.5 511 519.5 511 519.5 473 c 0,69,70
 519.5 459 519.5 459 524.5 441.5 c 128,-1,71
 529.5 424 529.5 424 539.5 408 c 128,-1,72
 549.5 392 549.5 392 564.5 381.5 c 128,-1,73
 579.5 371 579.5 371 598.5 371 c 0,58,59
453.5 469 m 0,74,75
 453.5 478 453.5 478 446.5 478 c 0,76,77
 441.5 478 441.5 478 440 475 c 128,-1,78
 438.5 472 438.5 472 438.5 469 c 0,79,80
 438.5 467 438.5 467 439.5 465 c 0,81,82
 441.5 461 441.5 461 445.5 461 c 0,83,84
 447.5 461 447.5 461 450.5 463 c 128,-1,85
 453.5 465 453.5 465 453.5 469 c 0,74,75
593.5 73 m 0,86,87
 641.5 73 641.5 73 659 98 c 128,-1,88
 676.5 123 676.5 123 676.5 169 c 0,89,90
 676.5 188 676.5 188 669 208.5 c 128,-1,91
 661.5 229 661.5 229 650 246 c 128,-1,92
 638.5 263 638.5 263 625.5 274 c 128,-1,93
 612.5 285 612.5 285 601.5 285 c 0,94,95
 586.5 285 586.5 285 571.5 273.5 c 128,-1,96
 556.5 262 556.5 262 544.5 244.5 c 128,-1,97
 532.5 227 532.5 227 525 205.5 c 128,-1,98
 517.5 184 517.5 184 517.5 163 c 0,99,100
 517.5 147 517.5 147 523 131 c 128,-1,101
 528.5 115 528.5 115 538 102 c 128,-1,102
 547.5 89 547.5 89 561.5 81 c 128,-1,103
 575.5 73 575.5 73 593.5 73 c 0,86,87
457.5 222 m 256,104,105
 460.5 230 460.5 230 457.5 233 c 128,-1,106
 454.5 236 454.5 236 447.5 229 c 0,107,108
 444.5 226 444.5 226 439.5 218.5 c 128,-1,109
 434.5 211 434.5 211 430 202 c 128,-1,110
 425.5 193 425.5 193 422 183.5 c 128,-1,111
 418.5 174 418.5 174 418.5 166 c 0,112,113
 417.5 158 417.5 158 421 150.5 c 128,-1,114
 424.5 143 424.5 143 431.5 143 c 0,115,116
 439.5 143 439.5 143 438.5 155.5 c 128,-1,117
 437.5 168 437.5 168 439.5 179 c 0,118,119
 442.5 194 442.5 194 448.5 204 c 128,-1,120
 454.5 214 454.5 214 457.5 222 c 256,104,105
EndSplineSet
EndChar

StartChar: nine.mlym
Encoding: 57 57 25
Width: 1200
Flags: W
LayerCount: 2
Fore
SplineSet
598 623 m 0,0,1
 653 623 653 623 690 601.5 c 128,-1,2
 727 580 727 580 749 546 c 128,-1,3
 771 512 771 512 780.5 470 c 128,-1,4
 790 428 790 428 790 387 c 0,5,6
 790 336 790 336 778.5 284 c 128,-1,7
 767 232 767 232 746.5 185 c 128,-1,8
 726 138 726 138 698 99 c 128,-1,9
 670 60 670 60 637 34 c 0,10,11
 610 13 610 13 581.5 2.5 c 128,-1,12
 553 -8 553 -8 531 -8 c 0,13,14
 513 -8 513 -8 500.5 -1.5 c 128,-1,15
 488 5 488 5 488 21 c 0,16,17
 488 36 488 36 496 51.5 c 128,-1,18
 504 67 504 67 531 76 c 0,19,20
 557 85 557 85 577.5 100 c 128,-1,21
 598 115 598 115 614 135 c 128,-1,22
 630 155 630 155 641.5 178.5 c 128,-1,23
 653 202 653 202 662 227 c 0,24,25
 667 239 667 239 671 257.5 c 128,-1,26
 675 276 675 276 675 287 c 0,27,28
 675 297 675 297 671 297 c 0,29,30
 668 297 668 297 661.5 289 c 128,-1,31
 655 281 655 281 642 272 c 128,-1,32
 629 263 629 263 609 255 c 128,-1,33
 589 247 589 247 559 247 c 0,34,35
 489 247 489 247 449.5 295 c 128,-1,36
 410 343 410 343 410 425 c 0,37,38
 410 463 410 463 422 499 c 128,-1,39
 434 535 434 535 458 562.5 c 128,-1,40
 482 590 482 590 517 606.5 c 128,-1,41
 552 623 552 623 598 623 c 0,0,1
603 535 m 0,42,43
 561 535 561 535 535.5 508 c 128,-1,44
 510 481 510 481 510 432 c 0,45,46
 510 390 510 390 528.5 364.5 c 128,-1,47
 547 339 547 339 580 339 c 0,48,49
 600 339 600 339 618.5 347 c 128,-1,50
 637 355 637 355 651 368 c 128,-1,51
 665 381 665 381 674 398.5 c 128,-1,52
 683 416 683 416 683 434 c 0,53,54
 683 455 683 455 679.5 473 c 128,-1,55
 676 491 676 491 667 505 c 128,-1,56
 658 519 658 519 642.5 527 c 128,-1,57
 627 535 627 535 603 535 c 0,42,43
460 486 m 0,58,59
 462 496 462 496 464.5 503.5 c 128,-1,60
 467 511 467 511 467 517 c 0,61,62
 467 524 467 524 460 524 c 0,63,64
 457 524 457 524 451.5 511 c 128,-1,65
 446 498 446 498 441.5 480 c 128,-1,66
 437 462 437 462 434 444 c 128,-1,67
 431 426 431 426 433 415 c 0,68,69
 436 403 436 403 441 403 c 256,70,71
 446 403 446 403 448.5 410.5 c 128,-1,72
 451 418 451 418 453 426 c 0,73,74
 457 443 457 443 457 457 c 128,-1,75
 457 471 457 471 460 486 c 0,58,59
456 380 m 0,76,77
 456 385 456 385 454.5 388.5 c 128,-1,78
 453 392 453 392 450 392 c 0,79,80
 445 392 445 392 441 389 c 128,-1,81
 437 386 437 386 437 376 c 0,82,83
 437 373 437 373 439.5 370 c 128,-1,84
 442 367 442 367 446 367 c 0,85,86
 452 367 452 367 454 372.5 c 128,-1,87
 456 378 456 378 456 380 c 0,76,77
528 58 m 2,88,89
 528 61 528 61 523.5 60 c 128,-1,90
 519 59 519 59 514 55 c 128,-1,91
 509 51 509 51 505 44 c 128,-1,92
 501 37 501 37 501 28 c 0,93,94
 501 26 501 26 502.5 20 c 128,-1,95
 504 14 504 14 508 14 c 0,96,97
 511 14 511 14 514.5 20.5 c 128,-1,98
 518 27 518 27 521 35.5 c 128,-1,99
 524 44 524 44 526 51 c 128,-1,100
 528 58 528 58 528 58 c 2,88,89
EndSplineSet
EndChar

StartChar: colon.mlym
Encoding: 58 58 26
Width: 1200
Flags: W
LayerCount: 2
Fore
SplineSet
538 54 m 0,0,1
 538 91 538 91 556 106 c 128,-1,2
 574 121 574 121 599 121 c 0,3,4
 625 121 625 121 643.5 106 c 128,-1,5
 662 91 662 91 662 54 c 0,6,7
 662 18 662 18 643.5 2 c 128,-1,8
 625 -14 625 -14 599 -14 c 0,9,10
 574 -14 574 -14 556 2 c 128,-1,11
 538 18 538 18 538 54 c 0,0,1
538 482 m 0,12,13
 538 520 538 520 556 535 c 128,-1,14
 574 550 574 550 599 550 c 0,15,16
 625 550 625 550 643.5 535 c 128,-1,17
 662 520 662 520 662 482 c 0,18,19
 662 446 662 446 643.5 430 c 128,-1,20
 625 414 625 414 599 414 c 0,21,22
 574 414 574 414 556 430 c 128,-1,23
 538 446 538 446 538 482 c 0,12,13
EndSplineSet
EndChar

StartChar: semicolon.mlym
Encoding: 59 59 27
Width: 1200
Flags: W
LayerCount: 2
Fore
SplineSet
670.5 105 m 1,0,1
 661.5 70 661.5 70 647.5 29 c 128,-1,2
 633.5 -12 633.5 -12 617 -52.5 c 128,-1,3
 600.5 -93 600.5 -93 584.5 -129 c 1,4,-1
 518.5 -129 l 1,5,6
 525.5 -101 525.5 -101 533 -69 c 128,-1,7
 540.5 -37 540.5 -37 547.5 -4.5 c 128,-1,8
 554.5 28 554.5 28 560 59 c 128,-1,9
 565.5 90 565.5 90 569.5 116 c 1,10,-1
 663.5 116 l 1,11,-1
 670.5 105 l 1,0,1
557.5 482 m 0,12,13
 557.5 520 557.5 520 575.5 535 c 128,-1,14
 593.5 550 593.5 550 618.5 550 c 0,15,16
 644.5 550 644.5 550 663 535 c 128,-1,17
 681.5 520 681.5 520 681.5 482 c 0,18,19
 681.5 446 681.5 446 663 430 c 128,-1,20
 644.5 414 644.5 414 618.5 414 c 0,21,22
 593.5 414 593.5 414 575.5 430 c 128,-1,23
 557.5 446 557.5 446 557.5 482 c 0,12,13
EndSplineSet
EndChar

StartChar: less.mlym
Encoding: 60 60 28
Width: 1200
Flags: W
LayerCount: 2
Fore
SplineSet
835.5 116 m 1,0,-1
 364.5 323 l 1,1,-1
 364.5 373 l 1,2,-1
 835.5 608 l 1,3,-1
 835.5 530 l 1,4,-1
 458.5 352 l 1,5,-1
 835.5 194 l 1,6,-1
 835.5 116 l 1,0,-1
EndSplineSet
EndChar

StartChar: equal.mlym
Encoding: 61 61 29
Width: 1200
Flags: W
LayerCount: 2
Fore
SplineSet
371 416 m 1,0,-1
 371 487 l 1,1,-1
 829 487 l 1,2,-1
 829 416 l 1,3,-1
 371 416 l 1,0,-1
371 217 m 1,4,-1
 371 288 l 1,5,-1
 829 288 l 1,6,-1
 829 217 l 1,7,-1
 371 217 l 1,4,-1
EndSplineSet
EndChar

StartChar: greater.mlym
Encoding: 62 62 30
Width: 1200
Flags: W
LayerCount: 2
Fore
SplineSet
364.5 194 m 1,0,-1
 741.5 351 l 1,1,-1
 364.5 530 l 1,2,-1
 364.5 608 l 1,3,-1
 835.5 373 l 1,4,-1
 835.5 323 l 1,5,-1
 364.5 116 l 1,6,-1
 364.5 194 l 1,0,-1
EndSplineSet
EndChar

StartChar: question.mlym
Encoding: 63 63 31
Width: 1200
Flags: W
LayerCount: 2
Fore
SplineSet
530 199 m 6,0,1
 530 237 530 237 537.5 264.5 c 132,-1,2
 545 292 545 292 563.5 317 c 132,-1,3
 582 342 582 342 614 369 c 4,4,5
 653 402 653 402 674.5 424 c 132,-1,6
 696 446 696 446 705 467 c 132,-1,7
 714 488 714 488 714 518 c 4,8,9
 714 566 714 566 683 592 c 132,-1,10
 652 618 652 618 593 618 c 4,11,12
 544 618 544 618 506 605.5 c 132,-1,13
 468 593 468 593 433 576 c 5,14,-1
 402 646 l 5,15,16
 442 667 442 667 490.5 681 c 132,-1,17
 539 695 539 695 599 695 c 4,18,19
 694 695 694 695 746 648 c 132,-1,20
 798 601 798 601 798 520 c 4,21,22
 798 475 798 475 783.5 443.5 c 132,-1,23
 769 412 769 412 742.5 385.5 c 132,-1,24
 716 359 716 359 680 329 c 4,25,26
 647 301 647 301 629.5 280 c 132,-1,27
 612 259 612 259 606 238.5 c 132,-1,28
 600 218 600 218 600 189 c 6,29,-1
 600 172 l 5,30,-1
 530 172 l 5,31,-1
 530 199 l 6,0,1
507 25 m 4,32,33
 507 62 507 62 524.5 77 c 132,-1,34
 542 92 542 92 569 92 c 4,35,36
 594 92 594 92 612 77 c 132,-1,37
 630 62 630 62 630 25 c 4,38,39
 630 -11 630 -11 612 -27 c 132,-1,40
 594 -43 594 -43 569 -43 c 4,41,42
 542 -43 542 -43 524.5 -27 c 132,-1,43
 507 -11 507 -11 507 25 c 4,32,33
EndSplineSet
EndChar

StartChar: bracketleft.mlym
Encoding: 91 91 32
Width: 1200
Flags: W
LayerCount: 2
Fore
SplineSet
504.930664062 -70 m 0,0,1
 501.930664062 -67 501.930664062 -67 500.430664062 -56.5 c 128,-1,2
 498.930664062 -46 498.930664062 -46 497.930664062 -12.5 c 128,-1,3
 496.930664062 21 496.930664062 21 496.930664062 86.5 c 128,-1,4
 496.930664062 152 496.930664062 152 496.930664062 266 c 0,5,6
 496.930664062 347 496.930664062 347 496.930664062 405 c 128,-1,7
 496.930664062 463 496.930664062 463 496.930664062 503.5 c 128,-1,8
 496.930664062 544 496.930664062 544 497.930664062 570 c 128,-1,9
 498.930664062 596 498.930664062 596 500.930664062 611.5 c 128,-1,10
 502.930664062 627 502.930664062 627 505.930664062 635 c 128,-1,11
 508.930664062 643 508.930664062 643 513.930664062 649 c 0,12,13
 517.930664062 654 517.930664062 654 529.430664062 657 c 128,-1,14
 540.930664062 660 540.930664062 660 556.430664062 661.5 c 128,-1,15
 571.930664062 663 571.930664062 663 591.430664062 663.5 c 128,-1,16
 610.930664062 664 610.930664062 664 630.930664062 664 c 0,17,18
 671.930664062 664 671.930664062 664 692.430664062 650 c 128,-1,19
 712.930664062 636 712.930664062 636 693.930664062 616 c 0,20,21
 688.930664062 610 688.930664062 610 674.930664062 606 c 128,-1,22
 660.930664062 602 660.930664062 602 630.930664062 602 c 0,23,24
 616.930664062 602 616.930664062 602 609.430664062 600 c 128,-1,25
 601.930664062 598 601.930664062 598 598.930664062 593 c 128,-1,26
 595.930664062 588 595.930664062 588 595.930664062 579.5 c 128,-1,27
 595.930664062 571 595.930664062 571 595.930664062 557 c 2,28,-1
 595.930664062 -20 l 1,29,-1
 613.930664062 -20 l 2,30,31
 656.930664062 -20 656.930664062 -20 671.430664062 -27.5 c 128,-1,32
 685.930664062 -35 685.930664062 -35 685.930664062 -56 c 0,33,34
 685.930664062 -66 685.930664062 -66 682.430664062 -71.5 c 128,-1,35
 678.930664062 -77 678.930664062 -77 668.430664062 -79.5 c 128,-1,36
 657.930664062 -82 657.930664062 -82 639.930664062 -82.5 c 128,-1,37
 621.930664062 -83 621.930664062 -83 591.930664062 -83 c 0,38,39
 564.930664062 -83 564.930664062 -83 549.430664062 -83 c 128,-1,40
 533.930664062 -83 533.930664062 -83 524.930664062 -81.5 c 128,-1,41
 515.930664062 -80 515.930664062 -80 511.930664062 -77.5 c 128,-1,42
 507.930664062 -75 507.930664062 -75 504.930664062 -70 c 0,0,1
541.930664062 616 m 256,43,44
 543.930664062 624 543.930664062 624 552.930664062 630 c 128,-1,45
 561.930664062 636 561.930664062 636 567.930664062 636 c 0,46,47
 576.930664062 636 576.930664062 636 576.930664062 643 c 0,48,49
 576.930664062 644 576.930664062 644 575.430664062 644 c 128,-1,50
 573.930664062 644 573.930664062 644 567.930664062 644 c 0,51,52
 552.930664062 644 552.930664062 644 538.930664062 634 c 128,-1,53
 524.930664062 624 524.930664062 624 524.930664062 610 c 0,54,55
 524.930664062 598 524.930664062 598 528.930664062 598 c 256,56,57
 532.930664062 598 532.930664062 598 536.430664062 603 c 128,-1,58
 539.930664062 608 539.930664062 608 541.930664062 616 c 256,43,44
EndSplineSet
EndChar

StartChar: backslash.mlym
Encoding: 92 92 33
Width: 1200
Flags: W
LayerCount: 2
Fore
SplineSet
486.5 666 m 0,0,1
 493.5 666 493.5 666 511.5 630.5 c 128,-1,2
 529.5 595 529.5 595 553 541 c 128,-1,3
 576.5 487 576.5 487 602.5 422.5 c 128,-1,4
 628.5 358 628.5 358 651.5 299.5 c 128,-1,5
 674.5 241 674.5 241 691 197.5 c 128,-1,6
 707.5 154 707.5 154 713.5 142 c 0,7,8
 719.5 129 719.5 129 731 101.5 c 128,-1,9
 742.5 74 742.5 74 754 44.5 c 128,-1,10
 765.5 15 765.5 15 774 -10.5 c 128,-1,11
 782.5 -36 782.5 -36 782.5 -44 c 0,12,13
 782.5 -51 782.5 -51 777.5 -57 c 128,-1,14
 772.5 -63 772.5 -63 765 -67.5 c 128,-1,15
 757.5 -72 757.5 -72 749 -74.5 c 128,-1,16
 740.5 -77 740.5 -77 733.5 -77 c 0,17,18
 719.5 -77 719.5 -77 708 -67.5 c 128,-1,19
 696.5 -58 696.5 -58 689.5 -47 c 0,20,21
 683.5 -37 683.5 -37 668.5 -3 c 128,-1,22
 653.5 31 653.5 31 633.5 79.5 c 128,-1,23
 613.5 128 613.5 128 589.5 187 c 128,-1,24
 565.5 246 565.5 246 541.5 306 c 128,-1,25
 517.5 366 517.5 366 495 423 c 128,-1,26
 472.5 480 472.5 480 455.5 525 c 128,-1,27
 438.5 570 438.5 570 428 598.5 c 128,-1,28
 417.5 627 417.5 627 417.5 630 c 0,29,30
 417.5 639 417.5 639 426.5 646 c 128,-1,31
 435.5 653 435.5 653 447.5 657.5 c 128,-1,32
 459.5 662 459.5 662 471 664 c 128,-1,33
 482.5 666 482.5 666 486.5 666 c 0,0,1
461.5 626 m 0,34,35
 459.5 631 459.5 631 452 629 c 128,-1,36
 444.5 627 444.5 627 444.5 620 c 0,37,38
 444.5 614 444.5 614 449.5 599.5 c 128,-1,39
 454.5 585 454.5 585 461 569.5 c 128,-1,40
 467.5 554 467.5 554 474 540.5 c 128,-1,41
 480.5 527 480.5 527 482.5 523 c 0,42,43
 485.5 518 485.5 518 490.5 518 c 128,-1,44
 495.5 518 495.5 518 497.5 519 c 0,45,46
 502.5 520 502.5 520 499 532.5 c 128,-1,47
 495.5 545 495.5 545 488.5 561.5 c 128,-1,48
 481.5 578 481.5 578 473.5 596 c 128,-1,49
 465.5 614 465.5 614 461.5 626 c 0,34,35
EndSplineSet
EndChar

StartChar: bracketright.mlym
Encoding: 93 93 34
Width: 1200
Flags: W
LayerCount: 2
Fore
SplineSet
529.75 -80 m 0,0,1
 514.75 -80 514.75 -80 504.25 -71.5 c 128,-1,2
 493.75 -63 493.75 -63 493.75 -55 c 0,3,4
 493.75 -33 493.75 -33 507.25 -25 c 128,-1,5
 520.75 -17 520.75 -17 540.75 -17 c 0,6,7
 564.75 -17 564.75 -17 578.25 -15 c 128,-1,8
 591.75 -13 591.75 -13 598.25 -8.5 c 128,-1,9
 604.75 -4 604.75 -4 606.25 3.5 c 128,-1,10
 607.75 11 607.75 11 607.75 21 c 2,11,-1
 607.75 551 l 2,12,13
 607.75 580 607.75 580 595.75 590 c 128,-1,14
 583.75 600 583.75 600 572.75 600 c 256,15,16
 561.75 600 561.75 600 549.75 598 c 128,-1,17
 537.75 596 537.75 596 526.75 596 c 0,18,19
 512.75 596 512.75 596 503.25 603 c 128,-1,20
 493.75 610 493.75 610 493.75 633 c 0,21,22
 493.75 645 493.75 645 510.25 653.5 c 128,-1,23
 526.75 662 526.75 662 555.75 662 c 0,24,25
 580.75 662 580.75 662 604.75 662 c 128,-1,26
 628.75 662 628.75 662 648.25 660.5 c 128,-1,27
 667.75 659 667.75 659 680.75 656 c 128,-1,28
 693.75 653 693.75 653 696.75 647 c 0,29,30
 699.75 642 699.75 642 700.25 625.5 c 128,-1,31
 700.75 609 700.75 609 700.75 570.5 c 128,-1,32
 700.75 532 700.75 532 701.25 466 c 128,-1,33
 701.75 400 701.75 400 702.75 295 c 0,34,35
 704.75 193 704.75 193 705.75 127.5 c 128,-1,36
 706.75 62 706.75 62 705.75 21 c 0,37,38
 705.75 -7 705.75 -7 701.75 -25 c 128,-1,39
 697.75 -43 697.75 -43 691.75 -54 c 128,-1,40
 685.75 -65 685.75 -65 677.25 -70 c 128,-1,41
 668.75 -75 668.75 -75 658.75 -76 c 0,42,43
 640.75 -78 640.75 -78 619.25 -79 c 128,-1,44
 597.75 -80 597.75 -80 578.75 -80 c 128,-1,45
 559.75 -80 559.75 -80 545.75 -80 c 128,-1,46
 531.75 -80 531.75 -80 529.75 -80 c 0,0,1
524.75 644 m 256,47,48
 520.75 649 520.75 649 513.75 645 c 128,-1,49
 506.75 641 506.75 641 506.75 633 c 0,50,51
 506.75 623 506.75 623 510.75 623 c 256,52,53
 514.75 623 514.75 623 514.75 630 c 0,54,55
 515.75 634 515.75 634 522.25 636.5 c 128,-1,56
 528.75 639 528.75 639 524.75 644 c 256,47,48
EndSplineSet
EndChar

StartChar: asciicircum.mlym
Encoding: 94 94 35
Width: 1200
Flags: W
LayerCount: 2
Fore
SplineSet
352 267 m 1,0,-1
 564 719 l 1,1,-1
 614 719 l 1,2,-1
 848 267 l 1,3,-1
 770 267 l 1,4,-1
 590 626 l 1,5,-1
 430 267 l 1,6,-1
 352 267 l 1,0,-1
EndSplineSet
EndChar

StartChar: underscore.mlym
Encoding: 95 95 36
Width: 1200
Flags: W
LayerCount: 2
Fore
SplineSet
824 -154 m 1,0,-1
 376 -154 l 1,1,-1
 376 -90 l 1,2,-1
 824 -90 l 1,3,-1
 824 -154 l 1,0,-1
EndSplineSet
EndChar

StartChar: braceleft.mlym
Encoding: 123 123 37
Width: 1200
Flags: W
LayerCount: 2
Fore
SplineSet
676.5 -77 m 0,0,1
 623.5 -77 623.5 -77 593.5 -62 c 128,-1,2
 563.5 -47 563.5 -47 548 -21 c 128,-1,3
 532.5 5 532.5 5 528 39 c 128,-1,4
 523.5 73 523.5 73 521.5 111 c 0,5,6
 519.5 156 519.5 156 509 178 c 128,-1,7
 498.5 200 498.5 200 487 213 c 128,-1,8
 475.5 226 475.5 226 466.5 238 c 128,-1,9
 457.5 250 457.5 250 457.5 276 c 256,10,11
 457.5 302 457.5 302 470.5 315.5 c 128,-1,12
 483.5 329 483.5 329 499.5 345 c 128,-1,13
 515.5 361 515.5 361 529.5 387.5 c 128,-1,14
 543.5 414 543.5 414 545.5 466 c 0,15,16
 547.5 505 547.5 505 550.5 540.5 c 128,-1,17
 553.5 576 553.5 576 567 602.5 c 128,-1,18
 580.5 629 580.5 629 609 644.5 c 128,-1,19
 637.5 660 637.5 660 691.5 660 c 0,20,21
 706.5 660 706.5 660 716.5 656 c 128,-1,22
 726.5 652 726.5 652 732.5 646 c 128,-1,23
 738.5 640 738.5 640 740.5 633.5 c 128,-1,24
 742.5 627 742.5 627 742.5 622 c 0,25,26
 742.5 606 742.5 606 730 602 c 128,-1,27
 717.5 598 717.5 598 700.5 596.5 c 128,-1,28
 683.5 595 683.5 595 665.5 591 c 128,-1,29
 647.5 587 647.5 587 635.5 572 c 0,30,31
 627.5 562 627.5 562 628.5 540.5 c 128,-1,32
 629.5 519 629.5 519 632.5 492.5 c 128,-1,33
 635.5 466 635.5 466 637 436 c 128,-1,34
 638.5 406 638.5 406 632.5 378 c 0,35,36
 629.5 364 629.5 364 616 348 c 128,-1,37
 602.5 332 602.5 332 588.5 318 c 128,-1,38
 574.5 304 574.5 304 563 293 c 128,-1,39
 551.5 282 551.5 282 551.5 277 c 256,40,41
 551.5 272 551.5 272 562.5 260.5 c 128,-1,42
 573.5 249 573.5 249 586.5 232 c 128,-1,43
 599.5 215 599.5 215 610.5 192.5 c 128,-1,44
 621.5 170 621.5 170 621.5 143 c 0,45,46
 621.5 135 621.5 135 620.5 115.5 c 128,-1,47
 619.5 96 619.5 96 619 74.5 c 128,-1,48
 618.5 53 618.5 53 620 34 c 128,-1,49
 621.5 15 621.5 15 626.5 9 c 0,50,51
 635.5 -2 635.5 -2 648.5 -10 c 128,-1,52
 661.5 -18 661.5 -18 678.5 -18 c 0,53,54
 686.5 -18 686.5 -18 696 -18.5 c 128,-1,55
 705.5 -19 705.5 -19 713 -21.5 c 128,-1,56
 720.5 -24 720.5 -24 725.5 -30 c 128,-1,57
 730.5 -36 730.5 -36 730.5 -47 c 0,58,59
 730.5 -56 730.5 -56 725 -62 c 128,-1,60
 719.5 -68 719.5 -68 711.5 -71.5 c 128,-1,61
 703.5 -75 703.5 -75 694 -76 c 128,-1,62
 684.5 -77 684.5 -77 676.5 -77 c 0,0,1
595.5 584 m 0,63,64
 602.5 594 602.5 594 611 601.5 c 128,-1,65
 619.5 609 619.5 609 627 615 c 128,-1,66
 634.5 621 634.5 621 639 626 c 128,-1,67
 643.5 631 643.5 631 643.5 636 c 0,68,69
 643.5 640 643.5 640 638.5 640 c 0,70,71
 631.5 640 631.5 640 620.5 633 c 128,-1,72
 609.5 626 609.5 626 599.5 616 c 128,-1,73
 589.5 606 589.5 606 582.5 594.5 c 128,-1,74
 575.5 583 575.5 583 575.5 574 c 0,75,76
 575.5 572 575.5 572 577.5 571 c 128,-1,77
 579.5 570 579.5 570 580.5 570 c 0,78,79
 585.5 570 585.5 570 589 575 c 128,-1,80
 592.5 580 592.5 580 595.5 584 c 0,63,64
EndSplineSet
EndChar

StartChar: bar.mlym
Encoding: 124 124 38
Width: 1200
Flags: W
LayerCount: 2
Fore
SplineSet
602 -99 m 256,0,1
 575 -99 575 -99 563.5 -80 c 128,-1,2
 552 -61 552 -61 552 -43 c 2,3,-1
 553 666 l 2,4,5
 553 682 553 682 563.5 694 c 128,-1,6
 574 706 574 706 594 706 c 0,7,8
 618 706 618 706 632 698 c 128,-1,9
 646 690 646 690 648 672 c 2,10,-1
 648 -38 l 2,11,12
 648 -60 648 -60 638.5 -79.5 c 128,-1,13
 629 -99 629 -99 602 -99 c 256,0,1
580 653 m 0,14,15
 580 664 580 664 582.5 671.5 c 128,-1,16
 585 679 585 679 586.5 683.5 c 128,-1,17
 588 688 588 688 588 690 c 128,-1,18
 588 692 588 692 583 692 c 0,19,20
 577 692 577 692 573.5 686.5 c 128,-1,21
 570 681 570 681 568 673.5 c 128,-1,22
 566 666 566 666 565.5 658.5 c 128,-1,23
 565 651 565 651 565 646 c 0,24,25
 565 633 565 633 568 622.5 c 128,-1,26
 571 612 571 612 577 612 c 0,27,28
 580 612 580 612 580.5 616.5 c 128,-1,29
 581 621 581 621 581 628 c 128,-1,30
 581 635 581 635 580.5 642 c 128,-1,31
 580 649 580 649 580 653 c 0,14,15
EndSplineSet
EndChar

StartChar: braceright.mlym
Encoding: 125 125 39
Width: 1200
Flags: W
LayerCount: 2
Fore
SplineSet
526 -74 m 0,0,1
 519 -74 519 -74 510 -72.5 c 128,-1,2
 501 -71 501 -71 492.5 -67 c 128,-1,3
 484 -63 484 -63 478 -57 c 128,-1,4
 472 -51 472 -51 472 -42 c 0,5,6
 472 -34 472 -34 477 -29.5 c 128,-1,7
 482 -25 482 -25 488.5 -23 c 128,-1,8
 495 -21 495 -21 503 -21 c 128,-1,9
 511 -21 511 -21 517 -21 c 0,10,11
 544 -21 544 -21 556 -12.5 c 128,-1,12
 568 -4 568 -4 572.5 10.5 c 128,-1,13
 577 25 577 25 577 43 c 128,-1,14
 577 61 577 61 579 80 c 0,15,16
 581 97 581 97 583 122.5 c 128,-1,17
 585 148 585 148 590.5 175 c 128,-1,18
 596 202 596 202 604.5 226.5 c 128,-1,19
 613 251 613 251 626 264 c 0,20,21
 628 267 628 267 636 271.5 c 128,-1,22
 644 276 644 276 644 280 c 0,23,24
 644 286 644 286 632.5 289.5 c 128,-1,25
 621 293 621 293 617 296 c 0,26,27
 601 306 601 306 590.5 334 c 128,-1,28
 580 362 580 362 574.5 395 c 128,-1,29
 569 428 569 428 566.5 459 c 128,-1,30
 564 490 564 490 563 505 c 0,31,32
 562 514 562 514 562.5 529 c 128,-1,33
 563 544 563 544 561.5 558 c 128,-1,34
 560 572 560 572 556.5 583 c 128,-1,35
 553 594 553 594 544 596 c 0,36,37
 526 601 526 601 508 599 c 0,38,39
 479 597 479 597 466.5 605.5 c 128,-1,40
 454 614 454 614 454 631 c 0,41,42
 454 653 454 653 476.5 660.5 c 128,-1,43
 499 668 499 668 532 663 c 0,44,45
 568 659 568 659 591.5 642.5 c 128,-1,46
 615 626 615 626 629 603 c 128,-1,47
 643 580 643 580 649.5 553.5 c 128,-1,48
 656 527 656 527 658 502 c 0,49,50
 660 472 660 472 661 443 c 128,-1,51
 662 414 662 414 666.5 389 c 128,-1,52
 671 364 671 364 681.5 344.5 c 128,-1,53
 692 325 692 325 713 315 c 0,54,55
 722 311 722 311 734 301.5 c 128,-1,56
 746 292 746 292 746 281 c 0,57,58
 746 273 746 273 740 267.5 c 128,-1,59
 734 262 734 262 728 257 c 0,60,61
 708 242 708 242 699 227.5 c 128,-1,62
 690 213 690 213 686.5 197.5 c 128,-1,63
 683 182 683 182 683 164.5 c 128,-1,64
 683 147 683 147 682 126 c 0,65,66
 680 87 680 87 676.5 51 c 128,-1,67
 673 15 673 15 658.5 -12.5 c 128,-1,68
 644 -40 644 -40 613 -57 c 128,-1,69
 582 -74 582 -74 526 -74 c 0,0,1
479 616 m 0,70,71
 482 616 482 616 485.5 620.5 c 128,-1,72
 489 625 489 625 491.5 630.5 c 128,-1,73
 494 636 494 636 495.5 641.5 c 128,-1,74
 497 647 497 647 497 649 c 0,75,76
 497 656 497 656 490 656 c 0,77,78
 484 656 484 656 480 652 c 128,-1,79
 476 648 476 648 473.5 643 c 128,-1,80
 471 638 471 638 470 632.5 c 128,-1,81
 469 627 469 627 470 625 c 0,82,83
 473 616 473 616 479 616 c 0,70,71
EndSplineSet
EndChar

StartChar: asciitilde.mlym
Encoding: 126 126 40
Width: 1200
Flags: W
LayerCount: 2
Fore
SplineSet
583.5 319 m 0,0,1
 547.5 335 547.5 335 524 340.5 c 128,-1,2
 500.5 346 500.5 346 478.5 346 c 0,3,4
 450.5 346 450.5 346 419.5 329 c 128,-1,5
 388.5 312 388.5 312 364.5 287 c 1,6,-1
 364.5 365 l 1,7,8
 388.5 391 388.5 391 418.5 404.5 c 128,-1,9
 448.5 418 448.5 418 484.5 418 c 0,10,11
 513.5 418 513.5 418 542 412 c 128,-1,12
 570.5 406 570.5 406 616.5 386 c 0,13,14
 652.5 370 652.5 370 676 364.5 c 128,-1,15
 699.5 359 699.5 359 720.5 359 c 0,16,17
 749.5 359 749.5 359 780.5 376 c 128,-1,18
 811.5 393 811.5 393 835.5 418 c 1,19,-1
 835.5 341 l 1,20,21
 811.5 315 811.5 315 781.5 301 c 128,-1,22
 751.5 287 751.5 287 715.5 287 c 0,23,24
 687.5 287 687.5 287 658 293.5 c 128,-1,25
 628.5 300 628.5 300 583.5 319 c 0,0,1
EndSplineSet
EndChar

StartChar: A
Encoding: 65 65 41
Width: 1200
Flags: W
LayerCount: 2
Fore
SplineSet
555.5 -8 m 0,0,1
 488.5 -8 488.5 -8 451 71 c 128,-1,2
 413.5 150 413.5 150 413.5 291 c 0,3,4
 413.5 444 413.5 444 457.5 530 c 128,-1,5
 501.5 616 501.5 616 581.5 621 c 0,6,7
 610.5 623 610.5 623 629 614.5 c 128,-1,8
 647.5 606 647.5 606 659.5 595 c 128,-1,9
 671.5 584 671.5 584 677.5 575 c 128,-1,10
 683.5 566 683.5 566 686.5 566 c 256,11,12
 689.5 566 689.5 566 690.5 575 c 128,-1,13
 691.5 584 691.5 584 695.5 595 c 128,-1,14
 699.5 606 699.5 606 708 615 c 128,-1,15
 716.5 624 716.5 624 735.5 624 c 256,16,17
 754.5 624 754.5 624 767.5 615 c 128,-1,18
 780.5 606 780.5 606 780.5 592 c 2,19,-1
 780.5 204 l 2,20,21
 780.5 163 780.5 163 783.5 126.5 c 128,-1,22
 786.5 90 786.5 90 786.5 71 c 0,23,24
 786.5 36 786.5 36 773 14 c 128,-1,25
 759.5 -8 759.5 -8 738.5 -8 c 0,26,27
 714.5 -8 714.5 -8 699.5 19 c 128,-1,28
 684.5 46 684.5 46 684.5 88 c 0,29,30
 684.5 114 684.5 114 679.5 114 c 0,31,32
 675.5 114 675.5 114 668.5 95 c 128,-1,33
 661.5 76 661.5 76 648 53 c 128,-1,34
 634.5 30 634.5 30 612.5 11 c 128,-1,35
 590.5 -8 590.5 -8 555.5 -8 c 0,0,1
709.5 557 m 0,36,37
 713.5 557 713.5 557 715 563.5 c 128,-1,38
 716.5 570 716.5 570 718.5 577 c 0,39,40
 721.5 587 721.5 587 724.5 594 c 128,-1,41
 727.5 601 727.5 601 727.5 606 c 256,42,43
 727.5 611 727.5 611 723.5 611 c 0,44,45
 718.5 611 718.5 611 710.5 601 c 128,-1,46
 702.5 591 702.5 591 702.5 575 c 0,47,48
 702.5 567 702.5 567 704.5 562 c 128,-1,49
 706.5 557 706.5 557 709.5 557 c 0,36,37
579.5 90 m 0,50,51
 593.5 90 593.5 90 609.5 117 c 128,-1,52
 625.5 144 625.5 144 639 185.5 c 128,-1,53
 652.5 227 652.5 227 661.5 275.5 c 128,-1,54
 670.5 324 670.5 324 670.5 366 c 0,55,56
 670.5 399 670.5 399 665 428.5 c 128,-1,57
 659.5 458 659.5 458 649.5 480.5 c 128,-1,58
 639.5 503 639.5 503 627 516 c 128,-1,59
 614.5 529 614.5 529 600.5 529 c 0,60,61
 584.5 529 584.5 529 569.5 511.5 c 128,-1,62
 554.5 494 554.5 494 544 463.5 c 128,-1,63
 533.5 433 533.5 433 527 392.5 c 128,-1,64
 520.5 352 520.5 352 520.5 306 c 0,65,66
 520.5 265 520.5 265 525.5 226 c 128,-1,67
 530.5 187 530.5 187 539 157 c 128,-1,68
 547.5 127 547.5 127 558 108.5 c 128,-1,69
 568.5 90 568.5 90 579.5 90 c 0,50,51
507.5 33 m 0,70,71
 511.5 33 511.5 33 514 36.5 c 128,-1,72
 516.5 40 516.5 40 515.5 43 c 256,73,74
 514.5 46 514.5 46 510 51.5 c 128,-1,75
 505.5 57 505.5 57 499.5 64.5 c 128,-1,76
 493.5 72 493.5 72 488 80.5 c 128,-1,77
 482.5 89 482.5 89 480.5 97 c 0,78,79
 479.5 101 479.5 101 478 107.5 c 128,-1,80
 476.5 114 476.5 114 474.5 120.5 c 128,-1,81
 472.5 127 472.5 127 470.5 131.5 c 128,-1,82
 468.5 136 468.5 136 465.5 136 c 0,83,84
 460.5 136 460.5 136 460.5 122.5 c 128,-1,85
 460.5 109 460.5 109 467.5 89 c 0,86,87
 475.5 69 475.5 69 487.5 51 c 128,-1,88
 499.5 33 499.5 33 507.5 33 c 0,70,71
736.5 22 m 256,89,90
 736.5 25 736.5 25 733 29 c 128,-1,91
 729.5 33 729.5 33 725 38 c 128,-1,92
 720.5 43 720.5 43 717 49.5 c 128,-1,93
 713.5 56 713.5 56 713.5 63 c 0,94,95
 713.5 66 713.5 66 712.5 69 c 0,96,97
 710.5 74 710.5 74 706.5 74 c 0,98,99
 699.5 74 699.5 74 699.5 62 c 0,100,101
 699.5 46 699.5 46 708.5 29.5 c 128,-1,102
 717.5 13 717.5 13 726.5 13 c 0,103,104
 730.5 13 730.5 13 733.5 16 c 128,-1,105
 736.5 19 736.5 19 736.5 22 c 256,89,90
532.5 17 m 256,106,107
 535.5 17 535.5 17 539 21 c 128,-1,108
 542.5 25 542.5 25 544 29.5 c 128,-1,109
 545.5 34 545.5 34 544 38 c 128,-1,110
 542.5 42 542.5 42 536.5 42 c 0,111,112
 524.5 42 524.5 42 524.5 30 c 0,113,114
 524.5 25 524.5 25 527 21 c 128,-1,115
 529.5 17 529.5 17 532.5 17 c 256,106,107
EndSplineSet

EndChar

StartChar: B
Encoding: 66 66 42
Width: 1200
Flags: W
LayerCount: 2
Fore
SplineSet
665 546 m 0,0,1
 625 546 625 546 596.5 574 c 128,-1,2
 568 602 568 602 568 646 c 0,3,4
 568 670 568 670 576.5 691.5 c 128,-1,5
 585 713 585 713 600 728.5 c 128,-1,6
 615 744 615 744 636 753.5 c 128,-1,7
 657 763 657 763 682 763 c 0,8,9
 702 763 702 763 719 754.5 c 128,-1,10
 736 746 736 746 748 731 c 128,-1,11
 760 716 760 716 766.5 697 c 128,-1,12
 773 678 773 678 773 657 c 0,13,14
 773 630 773 630 764.5 609.5 c 128,-1,15
 756 589 756 589 741 575 c 128,-1,16
 726 561 726 561 706.5 553.5 c 128,-1,17
 687 546 687 546 665 546 c 0,0,1
628 719 m 0,18,19
 635 726 635 726 636.5 731 c 128,-1,20
 638 736 638 736 636 736 c 0,21,22
 628 736 628 736 619 728.5 c 128,-1,23
 610 721 610 721 602.5 710.5 c 128,-1,24
 595 700 595 700 590 688 c 128,-1,25
 585 676 585 676 585 666 c 0,26,27
 585 664 585 664 586.5 658 c 128,-1,28
 588 652 588 652 591 652 c 0,29,30
 595 652 595 652 601 674 c 0,31,32
 604 688 604 688 612 699.5 c 128,-1,33
 620 711 620 711 628 719 c 0,18,19
669 603 m 0,34,35
 681 603 681 603 697.5 617 c 128,-1,36
 714 631 714 631 714 657 c 0,37,38
 714 677 714 677 703.5 690.5 c 128,-1,39
 693 704 693 704 676 704 c 256,40,41
 659 704 659 704 645 690.5 c 128,-1,42
 631 677 631 677 631 653 c 256,43,44
 631 629 631 629 642 616 c 128,-1,45
 653 603 653 603 669 603 c 0,34,35
472 655 m 0,46,47
 452 655 452 655 435 640 c 128,-1,48
 418 625 418 625 418 586 c 2,49,-1
 418 91 l 2,50,51
 418 70 418 70 426.5 53 c 128,-1,52
 435 36 435 36 449.5 24.5 c 128,-1,53
 464 13 464 13 482.5 7 c 128,-1,54
 501 1 501 1 521 1 c 2,55,-1
 580 1 l 2,56,57
 611 1 611 1 646.5 13 c 128,-1,58
 682 25 682 25 712 51 c 128,-1,59
 742 77 742 77 762 119 c 128,-1,60
 782 161 782 161 782 220 c 256,61,62
 782 279 782 279 762.5 325.5 c 128,-1,63
 743 372 743 372 714 403.5 c 128,-1,64
 685 435 685 435 651 451.5 c 128,-1,65
 617 468 617 468 587 468 c 2,66,-1
 558 468 l 2,67,68
 549 468 549 468 540.5 472 c 128,-1,69
 532 476 532 476 532 485 c 2,70,-1
 532 590 l 2,71,72
 532 608 532 608 526.5 620 c 128,-1,73
 521 632 521 632 512 640 c 128,-1,74
 503 648 503 648 492.5 651.5 c 128,-1,75
 482 655 482 655 472 655 c 0,46,47
576 379 m 2,76,77
 593 379 593 379 609 371 c 128,-1,78
 625 363 625 363 638.5 345.5 c 128,-1,79
 652 328 652 328 660 300 c 128,-1,80
 668 272 668 272 668 232 c 0,81,82
 668 189 668 189 660 160.5 c 128,-1,83
 652 132 652 132 639 115.5 c 128,-1,84
 626 99 626 99 610 92 c 128,-1,85
 594 85 594 85 579 85 c 2,86,-1
 557 85 l 2,87,88
 532 85 532 85 532 119 c 2,89,-1
 532 356 l 2,90,91
 532 379 532 379 563 379 c 2,92,-1
 576 379 l 2,76,77
458 620 m 256,93,94
 453 615 453 615 449.5 602 c 128,-1,95
 446 589 446 589 446 550.5 c 128,-1,96
 446 512 446 512 439 512 c 0,97,98
 434 512 434 512 432.5 520.5 c 128,-1,99
 431 529 431 529 431 541 c 0,100,101
 431 603 431 603 438 619 c 128,-1,102
 445 635 445 635 455 635 c 0,103,104
 457 635 457 635 460 633 c 128,-1,105
 463 631 463 631 463 629 c 0,106,107
 463 625 463 625 458 620 c 256,93,94
EndSplineSet
EndChar

StartChar: C
Encoding: 67 67 43
Width: 1200
Flags: W
LayerCount: 2
Fore
SplineSet
646 584 m 0
 606 584 606 584 577.5 612 c 0
 549 640 549 640 549 684 c 0
 549 708 549 708 557.5 729.5 c 0
 566 751 566 751 581 766.5 c 0
 596 782 596 782 617 791.5 c 0
 638 801 638 801 663 801 c 0
 683 801 683 801 700 792.5 c 0
 717 784 717 784 729 769 c 0
 741 754 741 754 747.5 735 c 0
 754 716 754 716 754 695 c 0
 754 668 754 668 745.5 647.5 c 0
 737 627 737 627 722 613 c 0
 707 599 707 599 687.5 591.5 c 0
 668 584 668 584 646 584 c 0
609 757 m 0
 616 764 616 764 617.5 769 c 0
 619 774 619 774 617 774 c 0
 609 774 609 774 600 766.5 c 0
 591 759 591 759 583.5 748.5 c 0
 576 738 576 738 571 726 c 0
 566 714 566 714 566 704 c 0
 566 702 566 702 567.5 696 c 0
 569 690 569 690 572 690 c 0
 576 690 576 690 582 712 c 0
 585 726 585 726 593 737.5 c 0
 601 749 601 749 609 757 c 0
650 641 m 0
 662 641 662 641 678.5 655 c 0
 695 669 695 669 695 695 c 0
 695 715 695 715 684.5 728.5 c 0
 674 742 674 742 657 742 c 256
 640 742 640 742 626 728.5 c 0
 612 715 612 715 612 691 c 256
 612 667 612 667 623 654 c 0
 634 641 634 641 650 641 c 0
EndSplineSet
Refer: 69 99 N 1 0 0 1 0 -15 2
EndChar

StartChar: D
Encoding: 68 68 44
Width: 1200
Flags: W
LayerCount: 2
Fore
SplineSet
500.5 0 m 2,0,1
 482.5 0 482.5 0 466 4 c 128,-1,2
 449.5 8 449.5 8 437 18 c 128,-1,3
 424.5 28 424.5 28 417 45 c 128,-1,4
 409.5 62 409.5 62 409.5 88 c 2,5,-1
 409.5 516 l 2,6,7
 409.5 543 409.5 543 419 562.5 c 128,-1,8
 428.5 582 428.5 582 444 594.5 c 128,-1,9
 459.5 607 459.5 607 480.5 612.5 c 128,-1,10
 501.5 618 501.5 618 524.5 618 c 2,11,-1
 569.5 618 l 2,12,13
 612.5 618 612.5 618 652.5 598.5 c 128,-1,14
 692.5 579 692.5 579 723 541.5 c 128,-1,15
 753.5 504 753.5 504 772 449.5 c 128,-1,16
 790.5 395 790.5 395 790.5 326 c 0,17,18
 790.5 253 790.5 253 771.5 192.5 c 128,-1,19
 752.5 132 752.5 132 720.5 89.5 c 128,-1,20
 688.5 47 688.5 47 645.5 23.5 c 128,-1,21
 602.5 0 602.5 0 555.5 0 c 2,22,-1
 500.5 0 l 2,0,1
550.5 96 m 2,23,24
 576.5 96 576.5 96 599.5 112.5 c 128,-1,25
 622.5 129 622.5 129 639 159.5 c 128,-1,26
 655.5 190 655.5 190 665 233 c 128,-1,27
 674.5 276 674.5 276 674.5 329 c 0,28,29
 674.5 424 674.5 424 644.5 472 c 128,-1,30
 614.5 520 614.5 520 566.5 520 c 2,31,-1
 551.5 520 l 2,32,33
 534.5 520 534.5 520 529 512.5 c 128,-1,34
 523.5 505 523.5 505 523.5 480 c 2,35,-1
 523.5 132 l 2,36,37
 523.5 112 523.5 112 527 104 c 128,-1,38
 530.5 96 530.5 96 537.5 96 c 2,39,-1
 550.5 96 l 2,23,24
440.5 83 m 0,40,41
 444.5 83 444.5 83 446 93.5 c 128,-1,42
 447.5 104 447.5 104 447.5 117.5 c 128,-1,43
 447.5 131 447.5 131 447 143.5 c 128,-1,44
 446.5 156 446.5 156 446.5 161 c 0,45,46
 446.5 216 446.5 216 440.5 216 c 0,47,48
 437.5 216 437.5 216 434.5 203.5 c 128,-1,49
 431.5 191 431.5 191 431.5 161 c 0,50,51
 431.5 116 431.5 116 432 99.5 c 128,-1,52
 432.5 83 432.5 83 440.5 83 c 0,40,41
439.5 69 m 0,53,54
 432.5 69 432.5 69 432.5 58 c 0,55,56
 432.5 40 432.5 40 440.5 40 c 0,57,58
 443.5 40 443.5 40 445.5 46 c 128,-1,59
 447.5 52 447.5 52 447.5 58 c 0,60,61
 447.5 69 447.5 69 439.5 69 c 0,53,54
EndSplineSet

EndChar

StartChar: E
Encoding: 69 69 45
Width: 1200
Flags: W
LayerCount: 2
Fore
SplineSet
485 333.5 m 0,0,1
 473 349.5 473 349.5 464 365 c 128,-1,2
 455 380.5 455 380.5 453 395.5 c 0,3,4
 450 409.5 450 409.5 444 408.5 c 0,5,6
 436 408.5 436 408.5 439 390.5 c 0,7,8
 440 381.5 440 381.5 444.5 368.5 c 128,-1,9
 449 355.5 449 355.5 455 344.5 c 128,-1,10
 461 333.5 461 333.5 469 326 c 128,-1,11
 477 318.5 477 318.5 486 319.5 c 0,12,13
 494 321.5 494 321.5 485 333.5 c 0,0,1
471 60 m 0,14,15
 459 76 459 76 450 91.5 c 128,-1,16
 441 107 441 107 439 122 c 0,17,18
 436 136 436 136 430 135 c 0,19,20
 422 135 422 135 425 117 c 0,21,22
 426 108 426 108 430.5 95 c 128,-1,23
 435 82 435 82 441 71 c 128,-1,24
 447 60 447 60 455 52.5 c 128,-1,25
 463 45 463 45 472 46 c 0,26,27
 480 48 480 48 471 60 c 0,14,15
709 315 m 1,28,-1
 709 243 l 1,29,-1
 636 243 l 2,30,31
 585 243 585 243 551.5 232.5 c 128,-1,32
 518 222 518 222 501.5 202 c 128,-1,33
 485 182 485 182 485 151 c 0,34,35
 485 118 485 118 504 98.5 c 128,-1,36
 523 79 523 79 555 70.5 c 128,-1,37
 587 62 587 62 627 62 c 0,38,39
 683 62 683 62 725.5 75 c 128,-1,40
 768 88 768 88 801 104 c 1,41,-1
 801 27 l 1,42,43
 770 11 770 11 727 0.5 c 128,-1,44
 684 -10 684 -10 622 -10 c 0,45,46
 507 -10 507 -10 452 34.5 c 128,-1,47
 397 79 397 79 397 146 c 0,48,49
 397 186 397 186 413.5 211.5 c 128,-1,50
 430 237 430 237 457 252.5 c 128,-1,51
 484 268 484 268 516 277 c 1,52,-1
 516 282 l 1,53,54
 471 296 471 296 443.5 325.5 c 128,-1,55
 416 355 416 355 416 404 c 0,56,57
 416 449 416 449 442.5 481 c 128,-1,58
 469 513 469 513 515.5 529.5 c 128,-1,59
 562 546 562 546 622 546 c 0,60,61
 680 546 680 546 721.5 536 c 128,-1,62
 763 526 763 526 803 508 c 1,63,-1
 770 438 l 1,64,65
 737 453 737 453 702.5 463 c 128,-1,66
 668 473 668 473 621 473 c 0,67,68
 561 473 561 473 530.5 454 c 128,-1,69
 500 435 500 435 500 397 c 0,70,71
 500 353 500 353 541.5 334 c 128,-1,72
 583 315 583 315 653 315 c 2,73,-1
 709 315 l 1,28,-1
EndSplineSet

EndChar

StartChar: F
Encoding: 70 70 46
Width: 1200
Flags: W
LayerCount: 2
Fore
SplineSet
511.5 0 m 0,0,1
 484.5 0 484.5 0 467 9.5 c 128,-1,2
 449.5 19 449.5 19 449.5 49 c 2,3,-1
 449.5 543 l 2,4,5
 449.5 582 449.5 582 478 599.5 c 128,-1,6
 506.5 617 506.5 617 551.5 617 c 2,7,-1
 721.5 616 l 2,8,9
 732.5 616 732.5 616 741.5 604.5 c 128,-1,10
 750.5 593 750.5 593 750.5 579 c 0,11,12
 750.5 572 750.5 572 749 561.5 c 128,-1,13
 747.5 551 747.5 551 744.5 541.5 c 128,-1,14
 741.5 532 741.5 532 737 525.5 c 128,-1,15
 732.5 519 732.5 519 726.5 519 c 2,16,-1
 589.5 520 l 2,17,18
 563.5 520 563.5 520 563.5 494 c 2,19,-1
 563.5 345 l 2,20,21
 563.5 335 563.5 335 570 330.5 c 128,-1,22
 576.5 326 576.5 326 586.5 326 c 2,23,-1
 692.5 329 l 2,24,25
 700.5 329 700.5 329 706.5 324 c 128,-1,26
 712.5 319 712.5 319 717.5 310.5 c 128,-1,27
 722.5 302 722.5 302 725 293 c 128,-1,28
 727.5 284 727.5 284 727.5 276 c 0,29,30
 727.5 237 727.5 237 689.5 236 c 2,31,-1
 583.5 233 l 2,32,33
 575.5 233 575.5 233 569.5 227 c 128,-1,34
 563.5 221 563.5 221 563.5 213 c 2,35,-1
 563.5 48 l 2,36,37
 563.5 32 563.5 32 559 22.5 c 128,-1,38
 554.5 13 554.5 13 547 8 c 128,-1,39
 539.5 3 539.5 3 530 1.5 c 128,-1,40
 520.5 0 520.5 0 511.5 0 c 0,0,1
499.5 26 m 0,41,42
 498.5 31 498.5 31 490 42 c 128,-1,43
 481.5 53 481.5 53 479.5 78 c 0,44,45
 477.5 91 477.5 91 474 94 c 128,-1,46
 470.5 97 470.5 97 468.5 97 c 256,47,48
 466.5 97 466.5 97 465 91 c 128,-1,49
 463.5 85 463.5 85 465.5 75 c 0,50,51
 465.5 70 465.5 70 467.5 60.5 c 128,-1,52
 469.5 51 469.5 51 473 41.5 c 128,-1,53
 476.5 32 476.5 32 481.5 25 c 128,-1,54
 486.5 18 486.5 18 493.5 19 c 0,55,56
 499.5 19 499.5 19 499.5 26 c 0,41,42
EndSplineSet

EndChar

StartChar: G
Encoding: 71 71 47
Width: 1200
Flags: W
LayerCount: 2
Fore
SplineSet
630 621 m 0,0,1
 590 621 590 621 561.5 649 c 128,-1,2
 533 677 533 677 533 721 c 0,3,4
 533 745 533 745 541.5 766.5 c 128,-1,5
 550 788 550 788 565 803.5 c 128,-1,6
 580 819 580 819 601 828.5 c 128,-1,7
 622 838 622 838 647 838 c 0,8,9
 667 838 667 838 684 829.5 c 128,-1,10
 701 821 701 821 713 806 c 128,-1,11
 725 791 725 791 731.5 772 c 128,-1,12
 738 753 738 753 738 732 c 0,13,14
 738 705 738 705 729.5 684.5 c 128,-1,15
 721 664 721 664 706 650 c 128,-1,16
 691 636 691 636 671.5 628.5 c 128,-1,17
 652 621 652 621 630 621 c 0,0,1
593 794 m 0,18,19
 600 801 600 801 601.5 806 c 128,-1,20
 603 811 603 811 601 811 c 0,21,22
 593 811 593 811 584 803.5 c 128,-1,23
 575 796 575 796 567.5 785.5 c 128,-1,24
 560 775 560 775 555 763 c 128,-1,25
 550 751 550 751 550 741 c 0,26,27
 550 739 550 739 551.5 733 c 128,-1,28
 553 727 553 727 556 727 c 0,29,30
 560 727 560 727 566 749 c 0,31,32
 569 763 569 763 577 774.5 c 128,-1,33
 585 786 585 786 593 794 c 0,18,19
634 678 m 0,34,35
 646 678 646 678 662.5 692 c 128,-1,36
 679 706 679 706 679 732 c 0,37,38
 679 752 679 752 668.5 765.5 c 128,-1,39
 658 779 658 779 641 779 c 256,40,41
 624 779 624 779 610 765.5 c 128,-1,42
 596 752 596 752 596 728 c 256,43,44
 596 704 596 704 607 691 c 128,-1,45
 618 678 618 678 634 678 c 0,34,35
599 -37 m 0,46,47
 536 -37 536 -37 495.5 -4 c 128,-1,48
 455 29 455 29 432 79 c 128,-1,49
 409 129 409 129 400.5 187 c 128,-1,50
 392 245 392 245 392 296 c 0,51,52
 392 352 392 352 405.5 405.5 c 128,-1,53
 419 459 419 459 447.5 500.5 c 128,-1,54
 476 542 476 542 521.5 567.5 c 128,-1,55
 567 593 567 593 631 593 c 0,56,57
 658 593 658 593 687.5 587 c 128,-1,58
 717 581 717 581 741.5 564.5 c 128,-1,59
 766 548 766 548 782.5 520 c 128,-1,60
 799 492 799 492 799 448 c 0,61,62
 799 432 799 432 792.5 422.5 c 128,-1,63
 786 413 786 413 776.5 407.5 c 128,-1,64
 767 402 767 402 757 400.5 c 128,-1,65
 747 399 747 399 741 399 c 0,66,67
 727 399 727 399 714.5 409 c 128,-1,68
 702 419 702 419 702 448 c 0,69,70
 702 471 702 471 694 483 c 128,-1,71
 686 495 686 495 675 500.5 c 128,-1,72
 664 506 664 506 653.5 507 c 128,-1,73
 643 508 643 508 637 508 c 0,74,75
 611 508 611 508 588 492.5 c 128,-1,76
 565 477 565 477 547.5 448 c 128,-1,77
 530 419 530 419 520 377 c 128,-1,78
 510 335 510 335 510 282 c 0,79,80
 510 253 510 253 513.5 213 c 128,-1,81
 517 173 517 173 529 137 c 128,-1,82
 541 101 541 101 563 75.5 c 128,-1,83
 585 50 585 50 621 50 c 0,84,85
 644 50 644 50 661 65 c 128,-1,86
 678 80 678 80 689.5 102 c 128,-1,87
 701 124 701 124 707 148.5 c 128,-1,88
 713 173 713 173 712 192 c 0,89,90
 711 208 711 208 692.5 209.5 c 128,-1,91
 674 211 674 211 651 211 c 2,92,-1
 589 211 l 2,93,94
 583 211 583 211 578 217 c 128,-1,95
 573 223 573 223 570 231.5 c 128,-1,96
 567 240 567 240 565 249 c 128,-1,97
 563 258 563 258 563 264 c 0,98,99
 563 280 563 280 573.5 292.5 c 128,-1,100
 584 305 584 305 607 305 c 2,101,-1
 732 304 l 2,102,103
 745 304 745 304 758.5 298.5 c 128,-1,104
 772 293 772 293 782.5 282.5 c 128,-1,105
 793 272 793 272 800 255.5 c 128,-1,106
 807 239 807 239 807 216 c 0,107,108
 807 181 807 181 807.5 151 c 128,-1,109
 808 121 808 121 808 77 c 0,110,111
 808 43 808 43 805.5 22 c 128,-1,112
 803 1 803 1 797 -11 c 128,-1,113
 791 -23 791 -23 782.5 -27.5 c 128,-1,114
 774 -32 774 -32 762 -32 c 0,115,116
 745 -32 745 -32 737 -19.5 c 128,-1,117
 729 -7 729 -7 725.5 8 c 128,-1,118
 722 23 722 23 721 35.5 c 128,-1,119
 720 48 720 48 717 48 c 256,120,121
 714 48 714 48 708 34.5 c 128,-1,122
 702 21 702 21 689 5.5 c 128,-1,123
 676 -10 676 -10 655 -23.5 c 128,-1,124
 634 -37 634 -37 599 -37 c 0,46,47
504 44 m 0,125,126
 504 49 504 49 488 72 c 0,127,128
 481 83 481 83 474 97.5 c 128,-1,129
 467 112 467 112 462 126 c 128,-1,130
 457 140 457 140 454 152 c 128,-1,131
 451 164 451 164 452 168 c 0,132,133
 453 173 453 173 450 175.5 c 128,-1,134
 447 178 447 178 446 178 c 0,135,136
 438 178 438 178 436 167 c 256,137,138
 434 156 434 156 439.5 135 c 128,-1,139
 445 114 445 114 454.5 93 c 128,-1,140
 464 72 464 72 475.5 56 c 128,-1,141
 487 40 487 40 496 39 c 0,142,143
 503 37 503 37 504 44 c 0,125,126
767 -7 m 0,144,145
 767 1 767 1 759 6.5 c 128,-1,146
 751 12 751 12 750 24 c 0,147,148
 750 27 750 27 749.5 35 c 128,-1,149
 749 43 749 43 744 43 c 256,150,151
 739 43 739 43 738 36.5 c 128,-1,152
 737 30 737 30 737 25 c 256,153,154
 737 20 737 20 738.5 12.5 c 128,-1,155
 740 5 740 5 743 -1.5 c 128,-1,156
 746 -8 746 -8 750 -13 c 128,-1,157
 754 -18 754 -18 759 -18 c 256,158,159
 764 -18 764 -18 765.5 -14 c 128,-1,160
 767 -10 767 -10 767 -7 c 0,144,145
524 27 m 0,161,162
 525 30 525 30 522.5 32.5 c 128,-1,163
 520 35 520 35 518 35 c 0,164,165
 514 36 514 36 512.5 33 c 128,-1,166
 511 30 511 30 510 28 c 0,167,168
 509 23 509 23 511.5 21.5 c 128,-1,169
 514 20 514 20 516 20 c 0,170,171
 522 20 522 20 524 27 c 0,161,162
EndSplineSet
EndChar

StartChar: H
Encoding: 72 72 48
Width: 1200
Flags: W
LayerCount: 2
Fore
SplineSet
719 0 m 0,0,1
 702 0 702 0 692 9.5 c 128,-1,2
 682 19 682 19 677 32.5 c 128,-1,3
 672 46 672 46 670.5 62.5 c 128,-1,4
 669 79 669 79 669 92 c 2,5,-1
 669 237 l 2,6,7
 669 250 669 250 666.5 256.5 c 128,-1,8
 664 263 664 263 656 263 c 2,9,-1
 549 263 l 2,10,11
 539 263 539 263 535 260 c 128,-1,12
 531 257 531 257 531 247 c 2,13,-1
 531 105 l 2,14,15
 531 91 531 91 529 72.5 c 128,-1,16
 527 54 527 54 521 38 c 128,-1,17
 515 22 515 22 505 11 c 128,-1,18
 495 0 495 0 479 0 c 0,19,20
 461 0 461 0 449 8.5 c 128,-1,21
 437 17 437 17 430.5 31 c 128,-1,22
 424 45 424 45 421.5 64 c 128,-1,23
 419 83 419 83 419 105 c 2,24,-1
 419 546 l 2,25,26
 419 552 419 552 421.5 563.5 c 128,-1,27
 424 575 424 575 430 587 c 128,-1,28
 436 599 436 599 447 607.5 c 128,-1,29
 458 616 458 616 476 616 c 0,30,31
 491 616 491 616 501.5 609 c 128,-1,32
 512 602 512 602 518.5 591 c 128,-1,33
 525 580 525 580 528 567.5 c 128,-1,34
 531 555 531 555 531 544 c 2,35,-1
 531 369 l 2,36,37
 531 361 531 361 533.5 355 c 128,-1,38
 536 349 536 349 544 349 c 2,39,-1
 658 348 l 2,40,41
 663 348 663 348 666 350.5 c 128,-1,42
 669 353 669 353 669 367 c 2,43,-1
 669 540 l 2,44,45
 669 578 669 578 681 597 c 128,-1,46
 693 616 693 616 714 616 c 0,47,48
 725 616 725 616 736.5 612 c 128,-1,49
 748 608 748 608 758 598.5 c 128,-1,50
 768 589 768 589 774.5 574 c 128,-1,51
 781 559 781 559 781 537 c 2,52,-1
 781 91 l 2,53,54
 781 77 781 77 777.5 61 c 128,-1,55
 774 45 774 45 766.5 31.5 c 128,-1,56
 759 18 759 18 747 9 c 128,-1,57
 735 0 735 0 719 0 c 0,0,1
436 555 m 0,58,59
 439 555 439 555 443.5 559.5 c 128,-1,60
 448 564 448 564 452.5 570.5 c 128,-1,61
 457 577 457 577 461 583.5 c 128,-1,62
 465 590 465 590 466 593 c 256,63,64
 467 596 467 596 466.5 600.5 c 128,-1,65
 466 605 466 605 463 604 c 0,66,67
 456 603 456 603 451 597.5 c 128,-1,68
 446 592 446 592 442 585 c 128,-1,69
 438 578 438 578 436 572 c 128,-1,70
 434 566 434 566 434 563 c 0,71,72
 434 561 434 561 434 558.5 c 128,-1,73
 434 556 434 556 436 555 c 0,58,59
706 575 m 0,74,75
 707 583 707 583 712.5 591 c 128,-1,76
 718 599 718 599 712 600 c 0,77,78
 704 601 704 601 695.5 591.5 c 128,-1,79
 687 582 687 582 685 568 c 0,80,81
 684 554 684 554 690 552 c 0,82,83
 698 551 698 551 701.5 561 c 128,-1,84
 705 571 705 571 706 575 c 0,74,75
461 30 m 0,85,86
 461 35 461 35 457 39 c 0,87,88
 452 44 452 44 450 59.5 c 128,-1,89
 448 75 448 75 448 86 c 0,90,91
 448 103 448 103 441 103 c 0,92,93
 437 103 437 103 436 96 c 128,-1,94
 435 89 435 89 435 86 c 0,95,96
 435 82 435 82 436 72 c 128,-1,97
 437 62 437 62 439 52 c 128,-1,98
 441 42 441 42 445 34.5 c 128,-1,99
 449 27 449 27 455 27 c 256,100,101
 461 27 461 27 461 30 c 0,85,86
707 26 m 0,102,103
 701 32 701 32 696.5 50 c 128,-1,104
 692 68 692 68 692 77 c 0,105,106
 692 81 692 81 690 81 c 0,107,108
 687 81 687 81 685 73.5 c 128,-1,109
 683 66 683 66 683 58 c 0,110,111
 683 46 683 46 688 31.5 c 128,-1,112
 693 17 693 17 707 17 c 0,113,114
 710 17 710 17 709.5 20.5 c 128,-1,115
 709 24 709 24 707 26 c 0,102,103
EndSplineSet
EndChar

StartChar: I
Encoding: 73 73 49
Width: 1200
Flags: W
LayerCount: 2
Fore
SplineSet
467 484 m 1,0,-1
 577 792 l 1,1,-1
 627 792 l 1,2,-1
 733 484 l 1,3,-1
 655 484 l 1,4,-1
 603 699 l 1,5,-1
 545 484 l 1,6,-1
 467 484 l 1,0,-1
595 -4 m 256,7,8
 571 -4 571 -4 558 6.5 c 128,-1,9
 545 17 545 17 545 32 c 2,10,-1
 545 387 l 2,11,12
 545 396 545 396 547.5 408 c 128,-1,13
 550 420 550 420 555.5 430 c 128,-1,14
 561 440 561 440 570.5 447 c 128,-1,15
 580 454 580 454 595 454 c 256,16,17
 610 454 610 454 620.5 448 c 128,-1,18
 631 442 631 442 637.5 433 c 128,-1,19
 644 424 644 424 647.5 413 c 128,-1,20
 651 402 651 402 651 392 c 2,21,-1
 651 32 l 2,22,23
 651 16 651 16 635 6 c 128,-1,24
 619 -4 619 -4 595 -4 c 256,7,8
563 359 m 0,25,26
 566 359 566 359 567 365 c 128,-1,27
 568 371 568 371 568 379.5 c 128,-1,28
 568 388 568 388 568.5 397.5 c 128,-1,29
 569 407 569 407 571 413 c 0,30,31
 572 417 572 417 574 424 c 128,-1,32
 576 431 576 431 573 431 c 0,33,34
 568 431 568 431 564.5 425.5 c 128,-1,35
 561 420 561 420 558.5 412.5 c 128,-1,36
 556 405 556 405 555 396.5 c 128,-1,37
 554 388 554 388 554 383 c 0,38,39
 554 376 554 376 556 367.5 c 128,-1,40
 558 359 558 359 563 359 c 0,25,26
EndSplineSet
EndChar

StartChar: J
Encoding: 74 74 50
Width: 1200
Flags: W
LayerCount: 2
Fore
SplineSet
603 -8 m 0,0,1
 558 -8 558 -8 526 4.5 c 128,-1,2
 494 17 494 17 474 38.5 c 128,-1,3
 454 60 454 60 445 88.5 c 128,-1,4
 436 117 436 117 436 149 c 0,5,6
 436 203 436 203 449 221.5 c 128,-1,7
 462 240 462 240 478 240 c 0,8,9
 486 240 486 240 495 238 c 128,-1,10
 504 236 504 236 512 230.5 c 128,-1,11
 520 225 520 225 525 215 c 128,-1,12
 530 205 530 205 530 188 c 0,13,14
 530 172 530 172 531.5 153 c 128,-1,15
 533 134 533 134 538.5 118 c 128,-1,16
 544 102 544 102 555 91.5 c 128,-1,17
 566 81 566 81 586 81 c 0,18,19
 604 81 604 81 616 86 c 128,-1,20
 628 91 628 91 635.5 104.5 c 128,-1,21
 643 118 643 118 646 141 c 128,-1,22
 649 164 649 164 649 199 c 0,23,24
 649 237 649 237 649.5 290 c 128,-1,25
 650 343 650 343 650 412 c 2,26,-1
 650 517 l 2,27,28
 650 525 650 525 642.5 530.5 c 128,-1,29
 635 536 635 536 627 536 c 2,30,-1
 586 536 l 2,31,32
 532 536 532 536 509.5 546 c 128,-1,33
 487 556 487 556 487 579 c 0,34,35
 487 594 487 594 495 601.5 c 128,-1,36
 503 609 503 609 521 612 c 128,-1,37
 539 615 539 615 568 615.5 c 128,-1,38
 597 616 597 616 639 616 c 0,39,40
 699 616 699 616 728.5 609 c 128,-1,41
 758 602 758 602 763 584 c 0,42,43
 764 581 764 581 764 558.5 c 128,-1,44
 764 536 764 536 764 502.5 c 128,-1,45
 764 469 764 469 763.5 429.5 c 128,-1,46
 763 390 763 390 763 353 c 0,47,48
 762 289 762 289 762 247 c 128,-1,49
 762 205 762 205 761.5 177 c 128,-1,50
 761 149 761 149 758.5 129.5 c 128,-1,51
 756 110 756 110 751 90 c 0,52,53
 744 65 744 65 728 46.5 c 128,-1,54
 712 28 712 28 691 16 c 128,-1,55
 670 4 670 4 647 -2 c 128,-1,56
 624 -8 624 -8 603 -8 c 0,0,1
543 594 m 0,57,58
 545 599 545 599 541 600 c 0,59,60
 534 602 534 602 520.5 598 c 128,-1,61
 507 594 507 594 505 587 c 0,62,63
 504 584 504 584 505 580.5 c 128,-1,64
 506 577 506 577 508 576 c 0,65,66
 516 574 516 574 528.5 581 c 128,-1,67
 541 588 541 588 543 594 c 0,57,58
457 144 m 0,68,69
 462 145 462 145 463.5 157 c 128,-1,70
 465 169 465 169 466 173 c 0,71,72
 468 183 468 183 470.5 194 c 128,-1,73
 473 205 473 205 480 214 c 0,74,75
 485 219 485 219 484 223 c 0,76,77
 484 225 484 225 482 226.5 c 128,-1,78
 480 228 480 228 478 227 c 0,79,80
 469 226 469 226 463 217 c 128,-1,81
 457 208 457 208 454 197 c 128,-1,82
 451 186 451 186 450 176 c 128,-1,83
 449 166 449 166 449 163 c 0,84,85
 450 155 450 155 452 149 c 128,-1,86
 454 143 454 143 457 144 c 0,68,69
EndSplineSet
EndChar

StartChar: K
Encoding: 75 75 51
Width: 1200
Flags: W
LayerCount: 2
Fore
SplineSet
551.5 575 m 0,0,1
 511.5 575 511.5 575 483 603 c 128,-1,2
 454.5 631 454.5 631 454.5 675 c 0,3,4
 454.5 699 454.5 699 463 720.5 c 128,-1,5
 471.5 742 471.5 742 486.5 757.5 c 128,-1,6
 501.5 773 501.5 773 522.5 782.5 c 128,-1,7
 543.5 792 543.5 792 568.5 792 c 0,8,9
 588.5 792 588.5 792 605.5 783.5 c 128,-1,10
 622.5 775 622.5 775 634.5 760 c 128,-1,11
 646.5 745 646.5 745 653 726 c 128,-1,12
 659.5 707 659.5 707 659.5 686 c 0,13,14
 659.5 659 659.5 659 651 638.5 c 128,-1,15
 642.5 618 642.5 618 627.5 604 c 128,-1,16
 612.5 590 612.5 590 593 582.5 c 128,-1,17
 573.5 575 573.5 575 551.5 575 c 0,0,1
514.5 748 m 0,18,19
 521.5 755 521.5 755 523 760 c 128,-1,20
 524.5 765 524.5 765 522.5 765 c 0,21,22
 514.5 765 514.5 765 505.5 757.5 c 128,-1,23
 496.5 750 496.5 750 489 739.5 c 128,-1,24
 481.5 729 481.5 729 476.5 717 c 128,-1,25
 471.5 705 471.5 705 471.5 695 c 0,26,27
 471.5 693 471.5 693 473 687 c 128,-1,28
 474.5 681 474.5 681 477.5 681 c 0,29,30
 481.5 681 481.5 681 487.5 703 c 0,31,32
 490.5 717 490.5 717 498.5 728.5 c 128,-1,33
 506.5 740 506.5 740 514.5 748 c 0,18,19
555.5 632 m 0,34,35
 567.5 632 567.5 632 584 646 c 128,-1,36
 600.5 660 600.5 660 600.5 686 c 0,37,38
 600.5 706 600.5 706 590 719.5 c 128,-1,39
 579.5 733 579.5 733 562.5 733 c 256,40,41
 545.5 733 545.5 733 531.5 719.5 c 128,-1,42
 517.5 706 517.5 706 517.5 682 c 256,43,44
 517.5 658 517.5 658 528.5 645 c 128,-1,45
 539.5 632 539.5 632 555.5 632 c 0,34,35
466.5 0 m 0,46,47
 445.5 0 445.5 0 435.5 11 c 128,-1,48
 425.5 22 425.5 22 422 38.5 c 128,-1,49
 418.5 55 418.5 55 418.5 73 c 128,-1,50
 418.5 91 418.5 91 418.5 105 c 2,51,-1
 418.5 204 l 1,52,-1
 417.5 402 l 1,53,-1
 417.5 428 l 2,54,55
 417.5 455 417.5 455 419.5 476 c 128,-1,56
 421.5 497 421.5 497 427.5 512 c 128,-1,57
 433.5 527 433.5 527 445 535 c 128,-1,58
 456.5 543 456.5 543 476.5 543 c 0,59,60
 499.5 543 499.5 543 517 524.5 c 128,-1,61
 534.5 506 534.5 506 534.5 476 c 0,62,63
 534.5 471 534.5 471 534 456 c 128,-1,64
 533.5 441 533.5 441 533.5 421 c 2,65,-1
 533.5 429 l 1,66,-1
 533.5 410 l 2,67,68
 533.5 391 533.5 391 535 379 c 128,-1,69
 536.5 367 536.5 367 538.5 367 c 0,70,71
 542.5 367 542.5 367 554 385.5 c 128,-1,72
 565.5 404 565.5 404 581 431.5 c 128,-1,73
 596.5 459 596.5 459 614.5 491.5 c 128,-1,74
 632.5 524 632.5 524 650.5 551.5 c 128,-1,75
 668.5 579 668.5 579 685 597.5 c 128,-1,76
 701.5 616 701.5 616 712.5 616 c 0,77,78
 721.5 616 721.5 616 732.5 613 c 128,-1,79
 743.5 610 743.5 610 752.5 604 c 128,-1,80
 761.5 598 761.5 598 767.5 589 c 128,-1,81
 773.5 580 773.5 580 773.5 567 c 0,82,83
 773.5 559 773.5 559 762.5 537.5 c 128,-1,84
 751.5 516 751.5 516 735.5 489 c 128,-1,85
 719.5 462 719.5 462 700.5 432 c 128,-1,86
 681.5 402 681.5 402 665.5 376.5 c 128,-1,87
 649.5 351 649.5 351 638.5 333.5 c 128,-1,88
 627.5 316 627.5 316 627.5 313 c 0,89,90
 627.5 309 627.5 309 639 290 c 128,-1,91
 650.5 271 650.5 271 667.5 245 c 128,-1,92
 684.5 219 684.5 219 705 188.5 c 128,-1,93
 725.5 158 725.5 158 742.5 130 c 128,-1,94
 759.5 102 759.5 102 771 80 c 128,-1,95
 782.5 58 782.5 58 782.5 48 c 0,96,97
 782.5 35 782.5 35 774 26 c 128,-1,98
 765.5 17 765.5 17 753.5 11 c 128,-1,99
 741.5 5 741.5 5 729.5 2 c 128,-1,100
 717.5 -1 717.5 -1 709.5 -1 c 0,101,102
 695.5 -1 695.5 -1 680.5 17.5 c 128,-1,103
 665.5 36 665.5 36 653.5 57 c 0,104,105
 649.5 64 649.5 64 641 80.5 c 128,-1,106
 632.5 97 632.5 97 621 118 c 128,-1,107
 609.5 139 609.5 139 597 161.5 c 128,-1,108
 584.5 184 584.5 184 573 203 c 128,-1,109
 561.5 222 561.5 222 553 234 c 128,-1,110
 544.5 246 544.5 246 540.5 246 c 0,111,112
 532.5 246 532.5 246 532.5 234.5 c 128,-1,113
 532.5 223 532.5 223 532.5 215 c 2,114,-1
 532.5 164 l 1,115,-1
 533.5 125 l 1,116,-1
 533.5 102 l 2,117,118
 533.5 51 533.5 51 517.5 25.5 c 128,-1,119
 501.5 0 501.5 0 466.5 0 c 0,46,47
436.5 488 m 0,120,121
 441.5 487 441.5 487 446 491 c 128,-1,122
 450.5 495 450.5 495 454 500.5 c 128,-1,123
 457.5 506 457.5 506 460.5 512.5 c 128,-1,124
 463.5 519 463.5 519 464.5 523 c 0,125,126
 465.5 526 465.5 526 462.5 528.5 c 128,-1,127
 459.5 531 459.5 531 456.5 531 c 0,128,129
 452.5 531 452.5 531 448.5 526 c 128,-1,130
 444.5 521 444.5 521 441 514.5 c 128,-1,131
 437.5 508 437.5 508 435.5 501.5 c 128,-1,132
 433.5 495 433.5 495 433.5 492 c 0,133,134
 433.5 488 433.5 488 436.5 488 c 0,120,121
686.5 558 m 0,135,136
 689.5 558 689.5 558 695.5 562.5 c 128,-1,137
 701.5 567 701.5 567 707.5 573 c 128,-1,138
 713.5 579 713.5 579 717.5 585.5 c 128,-1,139
 721.5 592 721.5 592 720.5 596 c 0,140,141
 720.5 600 720.5 600 716.5 600 c 0,142,143
 713.5 601 713.5 601 707 596.5 c 128,-1,144
 700.5 592 700.5 592 694 585.5 c 128,-1,145
 687.5 579 687.5 579 683 573 c 128,-1,146
 678.5 567 678.5 567 679.5 564 c 0,147,148
 681.5 559 681.5 559 686.5 558 c 0,135,136
451.5 70 m 0,149,150
 451.5 74 451.5 74 451.5 84.5 c 128,-1,151
 451.5 95 451.5 95 450.5 106 c 128,-1,152
 449.5 117 449.5 117 447.5 125.5 c 128,-1,153
 445.5 134 445.5 134 441.5 134 c 0,154,155
 438.5 134 438.5 134 436 129 c 128,-1,156
 433.5 124 433.5 124 432.5 117 c 128,-1,157
 431.5 110 431.5 110 431 103.5 c 128,-1,158
 430.5 97 430.5 97 430.5 95 c 0,159,160
 430.5 91 430.5 91 430.5 82.5 c 128,-1,161
 430.5 74 430.5 74 432 65 c 128,-1,162
 433.5 56 433.5 56 436.5 49.5 c 128,-1,163
 439.5 43 439.5 43 445.5 43 c 0,164,165
 447.5 43 447.5 43 449 47 c 128,-1,166
 450.5 51 450.5 51 451 55.5 c 128,-1,167
 451.5 60 451.5 60 451.5 64.5 c 128,-1,168
 451.5 69 451.5 69 451.5 70 c 0,149,150
712.5 21 m 0,169,170
 712.5 24 712.5 24 709.5 30.5 c 128,-1,171
 706.5 37 706.5 37 702 43 c 128,-1,172
 697.5 49 697.5 49 692.5 54 c 128,-1,173
 687.5 59 687.5 59 684.5 59 c 0,174,175
 682.5 59 682.5 59 681.5 55.5 c 128,-1,176
 680.5 52 680.5 52 680.5 50 c 0,177,178
 680.5 47 680.5 47 683 41 c 128,-1,179
 685.5 35 685.5 35 689 29 c 128,-1,180
 692.5 23 692.5 23 697.5 19 c 128,-1,181
 702.5 15 702.5 15 706.5 15 c 0,182,183
 712.5 15 712.5 15 712.5 21 c 0,169,170
461.5 25 m 0,184,185
 463.5 29 463.5 29 460.5 32.5 c 128,-1,186
 457.5 36 457.5 36 453.5 36 c 0,187,188
 448.5 36 448.5 36 446 32.5 c 128,-1,189
 443.5 29 443.5 29 445.5 25 c 0,190,191
 447.5 17 447.5 17 453.5 17 c 256,192,193
 459.5 17 459.5 17 461.5 25 c 0,184,185
EndSplineSet
EndChar

StartChar: L
Encoding: 76 76 52
Width: 1200
Flags: W
LayerCount: 2
Fore
SplineSet
618 569 m 0,0,1
 578 569 578 569 549.5 597 c 128,-1,2
 521 625 521 625 521 669 c 0,3,4
 521 693 521 693 529.5 714.5 c 128,-1,5
 538 736 538 736 553 751.5 c 128,-1,6
 568 767 568 767 589 776.5 c 128,-1,7
 610 786 610 786 635 786 c 0,8,9
 655 786 655 786 672 777.5 c 128,-1,10
 689 769 689 769 701 754 c 128,-1,11
 713 739 713 739 719.5 720 c 128,-1,12
 726 701 726 701 726 680 c 0,13,14
 726 653 726 653 717.5 632.5 c 128,-1,15
 709 612 709 612 694 598 c 128,-1,16
 679 584 679 584 659.5 576.5 c 128,-1,17
 640 569 640 569 618 569 c 0,0,1
581 742 m 0,18,19
 588 749 588 749 589.5 754 c 128,-1,20
 591 759 591 759 589 759 c 0,21,22
 581 759 581 759 572 751.5 c 128,-1,23
 563 744 563 744 555.5 733.5 c 128,-1,24
 548 723 548 723 543 711 c 128,-1,25
 538 699 538 699 538 689 c 0,26,27
 538 687 538 687 539.5 681 c 128,-1,28
 541 675 541 675 544 675 c 0,29,30
 548 675 548 675 554 697 c 0,31,32
 557 711 557 711 565 722.5 c 128,-1,33
 573 734 573 734 581 742 c 0,18,19
622 626 m 0,34,35
 634 626 634 626 650.5 640 c 128,-1,36
 667 654 667 654 667 680 c 0,37,38
 667 700 667 700 656.5 713.5 c 128,-1,39
 646 727 646 727 629 727 c 256,40,41
 612 727 612 727 598 713.5 c 128,-1,42
 584 700 584 700 584 676 c 256,43,44
 584 652 584 652 595 639 c 128,-1,45
 606 626 606 626 622 626 c 0,34,35
491 0 m 2,46,47
 480 0 480 0 471.5 8 c 128,-1,48
 463 16 463 16 463 27 c 2,49,-1
 463 492 l 2,50,51
 463 503 463 503 464.5 514 c 128,-1,52
 466 525 466 525 472 534 c 128,-1,53
 478 543 478 543 489.5 549 c 128,-1,54
 501 555 501 555 521 555 c 0,55,56
 544 555 544 555 560.5 537 c 128,-1,57
 577 519 577 519 577 499 c 2,58,-1
 577 121 l 2,59,60
 577 103 577 103 584 98.5 c 128,-1,61
 591 94 591 94 600 94 c 0,62,63
 617 94 617 94 630.5 94.5 c 128,-1,64
 644 95 644 95 656.5 95.5 c 128,-1,65
 669 96 669 96 682.5 96.5 c 128,-1,66
 696 97 696 97 713 97 c 0,67,68
 727 97 727 97 732 82.5 c 128,-1,69
 737 68 737 68 737 54 c 0,70,71
 737 34 737 34 724.5 16.5 c 128,-1,72
 712 -1 712 -1 698 -1 c 2,73,-1
 651 -1 l 1,74,-1
 568 0 l 1,75,-1
 491 0 l 2,46,47
481 488 m 0,76,77
 484 488 484 488 488.5 494.5 c 128,-1,78
 493 501 493 501 497.5 510 c 128,-1,79
 502 519 502 519 505.5 527 c 128,-1,80
 509 535 509 535 509 538 c 0,81,82
 509 543 509 543 501 543 c 0,83,84
 496 543 496 543 491 536.5 c 128,-1,85
 486 530 486 530 482.5 522 c 128,-1,86
 479 514 479 514 477 506 c 128,-1,87
 475 498 475 498 476 494 c 0,88,89
 476 488 476 488 481 488 c 0,76,77
492 59 m 0,90,91
 497 59 497 59 499 70 c 128,-1,92
 501 81 501 81 502 96.5 c 128,-1,93
 503 112 503 112 502.5 128.5 c 128,-1,94
 502 145 502 145 502 155 c 0,95,96
 502 159 502 159 501.5 165 c 128,-1,97
 501 171 501 171 499.5 177 c 128,-1,98
 498 183 498 183 495.5 187 c 128,-1,99
 493 191 493 191 488 191 c 0,100,101
 485 191 485 191 483.5 182.5 c 128,-1,102
 482 174 482 174 481 163 c 128,-1,103
 480 152 480 152 480 142.5 c 128,-1,104
 480 133 480 133 480 130 c 256,105,106
 480 127 480 127 480.5 115.5 c 128,-1,107
 481 104 481 104 482.5 91.5 c 128,-1,108
 484 79 484 79 486 69 c 128,-1,109
 488 59 488 59 492 59 c 0,90,91
509 30 m 0,110,111
 509 41 509 41 502 41 c 0,112,113
 492 41 492 41 492 30 c 0,114,115
 492 22 492 22 500 22 c 0,116,117
 503 22 503 22 506 24 c 128,-1,118
 509 26 509 26 509 30 c 0,110,111
EndSplineSet
EndChar

StartChar: M
Encoding: 77 77 53
Width: 1200
Flags: W
LayerCount: 2
Fore
SplineSet
623.5 599 m 0,0,1
 583.5 599 583.5 599 555 627 c 128,-1,2
 526.5 655 526.5 655 526.5 699 c 0,3,4
 526.5 723 526.5 723 535 744.5 c 128,-1,5
 543.5 766 543.5 766 558.5 781.5 c 128,-1,6
 573.5 797 573.5 797 594.5 806.5 c 128,-1,7
 615.5 816 615.5 816 640.5 816 c 0,8,9
 660.5 816 660.5 816 677.5 807.5 c 128,-1,10
 694.5 799 694.5 799 706.5 784 c 128,-1,11
 718.5 769 718.5 769 725 750 c 128,-1,12
 731.5 731 731.5 731 731.5 710 c 0,13,14
 731.5 683 731.5 683 723 662.5 c 128,-1,15
 714.5 642 714.5 642 699.5 628 c 128,-1,16
 684.5 614 684.5 614 665 606.5 c 128,-1,17
 645.5 599 645.5 599 623.5 599 c 0,0,1
586.5 772 m 0,18,19
 593.5 779 593.5 779 595 784 c 128,-1,20
 596.5 789 596.5 789 594.5 789 c 0,21,22
 586.5 789 586.5 789 577.5 781.5 c 128,-1,23
 568.5 774 568.5 774 561 763.5 c 128,-1,24
 553.5 753 553.5 753 548.5 741 c 128,-1,25
 543.5 729 543.5 729 543.5 719 c 0,26,27
 543.5 717 543.5 717 545 711 c 128,-1,28
 546.5 705 546.5 705 549.5 705 c 0,29,30
 553.5 705 553.5 705 559.5 727 c 0,31,32
 562.5 741 562.5 741 570.5 752.5 c 128,-1,33
 578.5 764 578.5 764 586.5 772 c 0,18,19
627.5 656 m 0,34,35
 639.5 656 639.5 656 656 670 c 128,-1,36
 672.5 684 672.5 684 672.5 710 c 0,37,38
 672.5 730 672.5 730 662 743.5 c 128,-1,39
 651.5 757 651.5 757 634.5 757 c 256,40,41
 617.5 757 617.5 757 603.5 743.5 c 128,-1,42
 589.5 730 589.5 730 589.5 706 c 256,43,44
 589.5 682 589.5 682 600.5 669 c 128,-1,45
 611.5 656 611.5 656 627.5 656 c 0,34,35
375.5 0 m 0,46,47
 360.5 0 360.5 0 351.5 5.5 c 128,-1,48
 342.5 11 342.5 11 338 20 c 128,-1,49
 333.5 29 333.5 29 332 40.5 c 128,-1,50
 330.5 52 330.5 52 330.5 65 c 2,51,-1
 330.5 496 l 2,52,53
 330.5 507 330.5 507 331 520 c 128,-1,54
 331.5 533 331.5 533 335.5 544 c 128,-1,55
 339.5 555 339.5 555 348.5 562.5 c 128,-1,56
 357.5 570 357.5 570 373.5 570 c 0,57,58
 393.5 570 393.5 570 403.5 555.5 c 128,-1,59
 413.5 541 413.5 541 418 523 c 128,-1,60
 422.5 505 422.5 505 423.5 490.5 c 128,-1,61
 424.5 476 424.5 476 426.5 476 c 256,62,63
 428.5 476 428.5 476 432.5 491.5 c 128,-1,64
 436.5 507 436.5 507 447 525 c 128,-1,65
 457.5 543 457.5 543 476.5 558.5 c 128,-1,66
 495.5 574 495.5 574 528.5 574 c 0,67,68
 556.5 574 556.5 574 574.5 559 c 128,-1,69
 592.5 544 592.5 544 603.5 525.5 c 128,-1,70
 614.5 507 614.5 507 620.5 492 c 128,-1,71
 626.5 477 626.5 477 629.5 477 c 256,72,73
 632.5 477 632.5 477 638 492 c 128,-1,74
 643.5 507 643.5 507 654.5 525.5 c 128,-1,75
 665.5 544 665.5 544 685 559 c 128,-1,76
 704.5 574 704.5 574 736.5 574 c 0,77,78
 777.5 574 777.5 574 803.5 554 c 128,-1,79
 829.5 534 829.5 534 844 498.5 c 128,-1,80
 858.5 463 858.5 463 864 414.5 c 128,-1,81
 869.5 366 869.5 366 869.5 310 c 2,82,-1
 869.5 27 l 2,83,84
 869.5 13 869.5 13 850.5 6.5 c 128,-1,85
 831.5 0 831.5 0 811.5 0 c 256,86,87
 791.5 0 791.5 0 780.5 5.5 c 128,-1,88
 769.5 11 769.5 11 769.5 26 c 2,89,-1
 769.5 301 l 2,90,91
 769.5 313 769.5 313 769.5 341.5 c 128,-1,92
 769.5 370 769.5 370 765 400 c 128,-1,93
 760.5 430 760.5 430 750 452.5 c 128,-1,94
 739.5 475 739.5 475 718.5 475 c 0,95,96
 700.5 475 700.5 475 689 461 c 128,-1,97
 677.5 447 677.5 447 670.5 422.5 c 128,-1,98
 663.5 398 663.5 398 660 363.5 c 128,-1,99
 656.5 329 656.5 329 654.5 287 c 0,100,101
 651.5 238 651.5 238 650.5 211 c 128,-1,102
 649.5 184 649.5 184 650 141.5 c 128,-1,103
 650.5 99 650.5 99 651 69.5 c 128,-1,104
 651.5 40 651.5 40 651.5 31 c 0,105,106
 651.5 17 651.5 17 635 8.5 c 128,-1,107
 618.5 0 618.5 0 594.5 0 c 256,108,109
 570.5 0 570.5 0 560.5 7 c 128,-1,110
 550.5 14 550.5 14 550.5 38 c 2,111,-1
 550.5 301 l 2,112,113
 550.5 312 550.5 312 550.5 341 c 128,-1,114
 550.5 370 550.5 370 546.5 400 c 128,-1,115
 542.5 430 542.5 430 532.5 453 c 128,-1,116
 522.5 476 522.5 476 502.5 476 c 0,117,118
 484.5 476 484.5 476 472 460.5 c 128,-1,119
 459.5 445 459.5 445 451.5 421 c 128,-1,120
 443.5 397 443.5 397 439 367 c 128,-1,121
 434.5 337 434.5 337 432.5 309 c 128,-1,122
 430.5 281 430.5 281 430 257 c 128,-1,123
 429.5 233 429.5 233 429.5 221 c 2,124,-1
 429.5 45 l 2,125,126
 429.5 26 429.5 26 413.5 13 c 128,-1,127
 397.5 0 397.5 0 375.5 0 c 0,46,47
354.5 476 m 0,128,129
 360.5 477 360.5 477 361 487.5 c 128,-1,130
 361.5 498 361.5 498 361.5 506 c 0,131,132
 361.5 513 361.5 513 363.5 521.5 c 128,-1,133
 365.5 530 365.5 530 367 537 c 128,-1,134
 368.5 544 368.5 544 368.5 549 c 128,-1,135
 368.5 554 368.5 554 364.5 554 c 0,136,137
 357.5 554 357.5 554 353 547.5 c 128,-1,138
 348.5 541 348.5 541 346.5 532 c 128,-1,139
 344.5 523 344.5 523 343.5 515 c 128,-1,140
 342.5 507 342.5 507 342.5 504 c 0,141,142
 342.5 496 342.5 496 344.5 485.5 c 128,-1,143
 346.5 475 346.5 475 354.5 476 c 0,128,129
585.5 23 m 0,144,145
 585.5 33 585.5 33 579 36.5 c 128,-1,146
 572.5 40 572.5 40 572.5 51 c 0,147,148
 572.5 53 572.5 53 572.5 58.5 c 128,-1,149
 572.5 64 572.5 64 572 69.5 c 128,-1,150
 571.5 75 571.5 75 569.5 79.5 c 128,-1,151
 567.5 84 567.5 84 564.5 84 c 0,152,153
 562.5 84 562.5 84 561.5 79.5 c 128,-1,154
 560.5 75 560.5 75 560 69 c 128,-1,155
 559.5 63 559.5 63 559.5 57.5 c 128,-1,156
 559.5 52 559.5 52 559.5 50 c 0,157,158
 559.5 38 559.5 38 563 24.5 c 128,-1,159
 566.5 11 566.5 11 576.5 11 c 0,160,161
 585.5 11 585.5 11 585.5 23 c 0,144,145
801.5 24 m 0,162,163
 801.5 34 801.5 34 796 41.5 c 128,-1,164
 790.5 49 790.5 49 790.5 60 c 0,165,166
 790.5 64 790.5 64 790 74 c 128,-1,167
 789.5 84 789.5 84 783.5 84 c 0,168,169
 778.5 84 778.5 84 778 73 c 128,-1,170
 777.5 62 777.5 62 777.5 59 c 256,171,172
 777.5 56 777.5 56 778 48 c 128,-1,173
 778.5 40 778.5 40 780.5 32.5 c 128,-1,174
 782.5 25 782.5 25 785.5 19 c 128,-1,175
 788.5 13 788.5 13 793.5 13 c 0,176,177
 797.5 13 797.5 13 799.5 17.5 c 128,-1,178
 801.5 22 801.5 22 801.5 24 c 0,162,163
373.5 24 m 0,179,180
 373.5 35 373.5 35 369 36 c 128,-1,181
 364.5 37 364.5 37 359.5 44 c 0,182,183
 358.5 46 358.5 46 358 51.5 c 128,-1,184
 357.5 57 357.5 57 357.5 62.5 c 128,-1,185
 357.5 68 357.5 68 356 72.5 c 128,-1,186
 354.5 77 354.5 77 351.5 77 c 0,187,188
 346.5 77 346.5 77 346 67.5 c 128,-1,189
 345.5 58 345.5 58 345.5 51 c 0,190,191
 345.5 47 345.5 47 346.5 41 c 128,-1,192
 347.5 35 347.5 35 350 29 c 128,-1,193
 352.5 23 352.5 23 356 18.5 c 128,-1,194
 359.5 14 359.5 14 364.5 14 c 0,195,196
 373.5 14 373.5 14 373.5 24 c 0,179,180
EndSplineSet
EndChar

StartChar: N
Encoding: 78 78 54
Width: 1200
Flags: W
LayerCount: 2
Fore
SplineSet
579.5 558 m 4,0,1
 539.5 558 539.5 558 511 586 c 132,-1,2
 482.5 614 482.5 614 482.5 658 c 4,3,4
 482.5 682 482.5 682 491 703.5 c 132,-1,5
 499.5 725 499.5 725 514.5 740.5 c 132,-1,6
 529.5 756 529.5 756 550.5 765.5 c 132,-1,7
 571.5 775 571.5 775 596.5 775 c 4,8,9
 616.5 775 616.5 775 633.5 766.5 c 132,-1,10
 650.5 758 650.5 758 662.5 743 c 132,-1,11
 674.5 728 674.5 728 681 709 c 132,-1,12
 687.5 690 687.5 690 687.5 669 c 4,13,14
 687.5 642 687.5 642 679 621.5 c 132,-1,15
 670.5 601 670.5 601 655.5 587 c 132,-1,16
 640.5 573 640.5 573 621 565.5 c 132,-1,17
 601.5 558 601.5 558 579.5 558 c 4,0,1
542.5 731 m 4,18,19
 549.5 738 549.5 738 551 743 c 132,-1,20
 552.5 748 552.5 748 550.5 748 c 4,21,22
 542.5 748 542.5 748 533.5 740.5 c 132,-1,23
 524.5 733 524.5 733 517 722.5 c 132,-1,24
 509.5 712 509.5 712 504.5 700 c 132,-1,25
 499.5 688 499.5 688 499.5 678 c 4,26,27
 499.5 676 499.5 676 501 670 c 132,-1,28
 502.5 664 502.5 664 505.5 664 c 4,29,30
 509.5 664 509.5 664 515.5 686 c 4,31,32
 518.5 700 518.5 700 526.5 711.5 c 132,-1,33
 534.5 723 534.5 723 542.5 731 c 4,18,19
583.5 615 m 4,34,35
 595.5 615 595.5 615 612 629 c 132,-1,36
 628.5 643 628.5 643 628.5 669 c 4,37,38
 628.5 689 628.5 689 618 702.5 c 132,-1,39
 607.5 716 607.5 716 590.5 716 c 260,40,41
 573.5 716 573.5 716 559.5 702.5 c 132,-1,42
 545.5 689 545.5 689 545.5 665 c 260,43,44
 545.5 641 545.5 641 556.5 628 c 132,-1,45
 567.5 615 567.5 615 583.5 615 c 4,34,35
471.5 0 m 0,46,47
 446.5 0 446.5 0 436.5 14.5 c 128,-1,48
 426.5 29 426.5 29 426.5 65 c 2,49,-1
 426.5 422 l 2,50,51
 426.5 466 426.5 466 436 481 c 128,-1,52
 445.5 496 445.5 496 474.5 496 c 0,53,54
 493.5 496 493.5 496 511.5 486.5 c 128,-1,55
 529.5 477 529.5 477 529.5 451 c 2,56,-1
 529.5 437 l 2,57,58
 529.5 397 529.5 397 533.5 397 c 256,59,60
 537.5 397 537.5 397 542.5 413 c 128,-1,61
 547.5 429 547.5 429 559.5 448.5 c 128,-1,62
 571.5 468 571.5 468 593.5 484 c 128,-1,63
 615.5 500 615.5 500 651.5 500 c 0,64,65
 715.5 500 715.5 500 744.5 437 c 128,-1,66
 773.5 374 773.5 374 773.5 236 c 2,67,-1
 773.5 31 l 2,68,69
 773.5 0 773.5 0 717.5 0 c 0,70,71
 690.5 0 690.5 0 678.5 11.5 c 128,-1,72
 666.5 23 666.5 23 666.5 34 c 2,73,-1
 666.5 227 l 2,74,75
 666.5 279 666.5 279 663.5 311 c 128,-1,76
 660.5 343 660.5 343 654.5 361 c 128,-1,77
 648.5 379 648.5 379 639 385.5 c 128,-1,78
 629.5 392 629.5 392 615.5 392 c 0,79,80
 594.5 392 594.5 392 579 372.5 c 128,-1,81
 563.5 353 563.5 353 553.5 320 c 128,-1,82
 543.5 287 543.5 287 539 242.5 c 128,-1,83
 534.5 198 534.5 198 534.5 147 c 2,84,-1
 534.5 45 l 2,85,86
 534.5 30 534.5 30 527 21 c 128,-1,87
 519.5 12 519.5 12 509.5 7.5 c 128,-1,88
 499.5 3 499.5 3 489 1.5 c 128,-1,89
 478.5 0 478.5 0 471.5 0 c 0,46,47
446.5 395 m 0,90,91
 449.5 395 449.5 395 451.5 407 c 128,-1,92
 453.5 419 453.5 419 455.5 434 c 128,-1,93
 457.5 449 457.5 449 458.5 461.5 c 128,-1,94
 459.5 474 459.5 474 459.5 475 c 0,95,96
 459.5 477 459.5 477 459 480 c 128,-1,97
 458.5 483 458.5 483 456.5 483 c 0,98,99
 451.5 483 451.5 483 448 475.5 c 128,-1,100
 444.5 468 444.5 468 442.5 458.5 c 128,-1,101
 440.5 449 440.5 449 439.5 439.5 c 128,-1,102
 438.5 430 438.5 430 438.5 427 c 0,103,104
 438.5 419 438.5 419 440.5 407 c 128,-1,105
 442.5 395 442.5 395 446.5 395 c 0,90,91
703.5 29 m 0,106,107
 703.5 35 703.5 35 701.5 38 c 128,-1,108
 699.5 41 699.5 41 697 43 c 128,-1,109
 694.5 45 694.5 45 692.5 49 c 128,-1,110
 690.5 53 690.5 53 690.5 60 c 0,111,112
 690.5 76 690.5 76 689 80 c 128,-1,113
 687.5 84 687.5 84 682.5 84 c 256,114,115
 677.5 84 677.5 84 676 76.5 c 128,-1,116
 674.5 69 674.5 69 674.5 59 c 0,117,118
 674.5 39 674.5 39 680.5 27 c 128,-1,119
 686.5 15 686.5 15 694.5 15 c 0,120,121
 697.5 15 697.5 15 700.5 18.5 c 128,-1,122
 703.5 22 703.5 22 703.5 29 c 0,106,107
470.5 26 m 0,123,124
 470.5 31 470.5 31 468 33.5 c 128,-1,125
 465.5 36 465.5 36 462.5 38.5 c 128,-1,126
 459.5 41 459.5 41 457 45 c 128,-1,127
 454.5 49 454.5 49 454.5 56 c 0,128,129
 454.5 77 454.5 77 447.5 77 c 0,130,131
 445.5 77 445.5 77 443.5 69.5 c 128,-1,132
 441.5 62 441.5 62 441.5 51 c 0,133,134
 441.5 36 441.5 36 448 24 c 128,-1,135
 454.5 12 454.5 12 462.5 12 c 0,136,137
 464.5 12 464.5 12 467.5 16 c 128,-1,138
 470.5 20 470.5 20 470.5 26 c 0,123,124
EndSplineSet
EndChar

StartChar: O
Encoding: 79 79 55
Width: 1200
Flags: W
LayerCount: 2
Fore
SplineSet
473.5 341.5 m 0,0,1
 460.5 346 460.5 346 452 355 c 128,-1,2
 443.5 364 443.5 364 441 374 c 128,-1,3
 438.5 384 438.5 384 442 394.5 c 0,4,5
 446.5 406 446.5 406 455.5 411.5 c 0,6,7
 460.5 414 460.5 414 468 416.5 c 0,8,9
 475.5 418 475.5 418 489 420 c 128,-1,10
 502.5 422 502.5 422 522.5 422 c 0,11,12
 582.5 422 582.5 422 613.5 422.5 c 0,13,14
 685.5 422 685.5 422 710.5 421 c 128,-1,15
 735.5 420 735.5 420 748 414.5 c 0,16,17
 760.5 410 760.5 410 763.5 400.5 c 0,18,19
 766.5 392 766.5 392 766.5 376.5 c 0,20,21
 766.5 364 766.5 364 761 357 c 128,-1,22
 755.5 350 755.5 350 741.5 345 c 128,-1,23
 727.5 340 727.5 340 703.5 338.5 c 0,24,25
 679.5 336 679.5 336 613.5 336.5 c 0,26,27
 535.5 336 535.5 336 507 338 c 128,-1,28
 478.5 340 478.5 340 473.5 341.5 c 0,0,1
481.5 402.5 m 0,29,30
 481.5 404 481.5 404 479 406 c 0,31,32
 477.5 407 477.5 407 472.5 404.5 c 128,-1,33
 467.5 402 467.5 402 465 392.5 c 0,34,35
 462.5 384 462.5 384 462.5 376.5 c 256,36,37
 462.5 370 462.5 370 464.5 369.5 c 0,38,39
 467.5 370 467.5 370 472.5 382.5 c 0,40,41
 478.5 396 478.5 396 478.5 396.5 c 0,42,43
 481.5 399 481.5 399 481.5 402.5 c 0,29,30
471.5 180.5 m 0,44,45
 452.5 184 452.5 184 443 198 c 128,-1,46
 433.5 212 433.5 212 440.5 226.5 c 0,47,48
 445.5 236 445.5 236 453 240.5 c 0,49,50
 460.5 246 460.5 246 476 248 c 0,51,52
 499.5 251 499.5 251 516.5 251 c 0,53,54
 580.5 251 580.5 251 634 251.5 c 128,-1,55
 687.5 252 687.5 252 713 250 c 128,-1,56
 738.5 248 738.5 248 752.5 245 c 128,-1,57
 766.5 242 766.5 242 772 235 c 128,-1,58
 777.5 228 777.5 228 777.5 217.5 c 0,59,60
 777.5 204 777.5 204 771.5 195.5 c 0,61,62
 765.5 186 765.5 186 750 181.5 c 0,63,64
 734.5 176 734.5 176 708.5 174 c 0,65,66
 671.5 171 671.5 171 614.5 171.5 c 0,67,68
 536.5 172 536.5 172 508 175 c 128,-1,69
 479.5 178 479.5 178 471.5 180.5 c 0,44,45
474.5 229.5 m 0,70,71
 474.5 232 474.5 232 471.5 232.5 c 256,72,73
 468.5 232 468.5 232 467.5 231.5 c 0,74,75
 465.5 230 465.5 230 462.5 226 c 128,-1,76
 459.5 222 459.5 222 459.5 214.5 c 0,77,78
 459.5 206 459.5 206 461 204.5 c 0,79,80
 462.5 204 462.5 204 467.5 208.5 c 0,81,82
 471.5 212 471.5 212 473 218.5 c 0,83,84
 474.5 224 474.5 224 474.5 229.5 c 0,70,71
597.5 -10 m 0,85,86
 525.5 -10 525.5 -10 472 17.5 c 128,-1,87
 418.5 45 418.5 45 383.5 88.5 c 128,-1,88
 348.5 132 348.5 132 331 186 c 128,-1,89
 313.5 240 313.5 240 313.5 294 c 0,90,91
 313.5 360 313.5 360 333.5 416 c 128,-1,92
 353.5 472 353.5 472 391 512.5 c 128,-1,93
 428.5 553 428.5 553 482.5 576 c 128,-1,94
 536.5 599 536.5 599 603.5 599 c 0,95,96
 665.5 599 665.5 599 717.5 576.5 c 128,-1,97
 769.5 554 769.5 554 807 514.5 c 128,-1,98
 844.5 475 844.5 475 865.5 420.5 c 128,-1,99
 886.5 366 886.5 366 886.5 303 c 0,100,101
 886.5 239 886.5 239 865 182 c 128,-1,102
 843.5 125 843.5 125 805 82.5 c 128,-1,103
 766.5 40 766.5 40 713.5 15 c 128,-1,104
 660.5 -10 660.5 -10 597.5 -10 c 0,85,86
599.5 67 m 0,105,106
 700.5 67 700.5 67 752 130.5 c 128,-1,107
 803.5 194 803.5 194 803.5 303 c 0,108,109
 803.5 347 803.5 347 790 387.5 c 128,-1,110
 776.5 428 776.5 428 750.5 459 c 128,-1,111
 724.5 490 724.5 490 687.5 508.5 c 128,-1,112
 650.5 527 650.5 527 603.5 527 c 0,113,114
 558.5 527 558.5 527 521 509 c 128,-1,115
 483.5 491 483.5 491 456.5 461 c 128,-1,116
 429.5 431 429.5 431 414.5 391 c 128,-1,117
 399.5 351 399.5 351 399.5 306 c 256,118,119
 399.5 261 399.5 261 413 218 c 128,-1,120
 426.5 175 426.5 175 452 141.5 c 128,-1,121
 477.5 108 477.5 108 514.5 87.5 c 128,-1,122
 551.5 67 551.5 67 599.5 67 c 0,105,106
EndSplineSet

EndChar

StartChar: P
Encoding: 80 80 56
Width: 1200
Flags: W
LayerCount: 2
Fore
SplineSet
472 -14 m 0,0,1
 452 -14 452 -14 435 1 c 128,-1,2
 418 16 418 16 418 69 c 2,3,-1
 418 526 l 2,4,5
 418 547 418 547 426.5 564 c 128,-1,6
 435 581 435 581 449.5 592.5 c 128,-1,7
 464 604 464 604 482.5 610 c 128,-1,8
 501 616 501 616 521 616 c 2,9,-1
 580 616 l 2,10,11
 611 616 611 616 646.5 604 c 128,-1,12
 682 592 682 592 712 566 c 128,-1,13
 742 540 742 540 762 498 c 128,-1,14
 782 456 782 456 782 397 c 256,15,16
 782 338 782 338 762.5 291.5 c 128,-1,17
 743 245 743 245 714 213.5 c 128,-1,18
 685 182 685 182 651 165.5 c 128,-1,19
 617 149 617 149 587 149 c 2,20,-1
 558 149 l 2,21,22
 549 149 549 149 540.5 145 c 128,-1,23
 532 141 532 141 532 132 c 2,24,-1
 532 65 l 2,25,26
 532 33 532 33 526.5 21 c 128,-1,27
 521 9 521 9 512 1 c 128,-1,28
 503 -7 503 -7 492.5 -10.5 c 128,-1,29
 482 -14 482 -14 472 -14 c 0,0,1
576 238 m 2,30,31
 593 238 593 238 609 246 c 128,-1,32
 625 254 625 254 638.5 271.5 c 128,-1,33
 652 289 652 289 660 317 c 128,-1,34
 668 345 668 345 668 385 c 0,35,36
 668 428 668 428 660 456.5 c 128,-1,37
 652 485 652 485 639 501.5 c 128,-1,38
 626 518 626 518 610 525 c 128,-1,39
 594 532 594 532 579 532 c 2,40,-1
 557 532 l 2,41,42
 532 532 532 532 532 498 c 2,43,-1
 532 261 l 2,44,45
 532 238 532 238 563 238 c 2,46,-1
 576 238 l 2,30,31
458 21 m 256,47,48
 453 26 453 26 449.5 39 c 128,-1,49
 446 52 446 52 446 78.5 c 128,-1,50
 446 105 446 105 439 105 c 0,51,52
 434 105 434 105 432.5 96.5 c 128,-1,53
 431 88 431 88 431 76 c 0,54,55
 431 38 431 38 438 22 c 128,-1,56
 445 6 445 6 455 6 c 0,57,58
 457 6 457 6 460 8 c 128,-1,59
 463 10 463 10 463 12 c 0,60,61
 463 16 463 16 458 21 c 256,47,48
EndSplineSet

EndChar

StartChar: Q
Encoding: 81 81 57
Width: 1200
Flags: W
LayerCount: 2
Fore
SplineSet
606 616 m 0,0,1
 565 616 565 616 532 601 c 2,2,3
 532 601 532 601 499 585 c 1,4,-1
 455 537 l 1,5,6
 423 492 423 492 407 432.5 c 128,-1,7
 391 373 391 373 391 311 c 0,8,9
 391 255 391 255 403 196.5 c 128,-1,10
 415 138 415 138 441 90.5 c 128,-1,11
 467 43 467 43 508 12.5 c 128,-1,12
 549 -18 549 -18 607 -18 c 0,13,14
 644 -18 644 -18 675 -4 c 1,15,16
 683 -22 683 -22 695.5 -40.5 c 128,-1,17
 708 -59 708 -59 731 -59 c 0,18,19
 738 -59 738 -59 746.5 -56.5 c 128,-1,20
 755 -54 755 -54 762.5 -49.5 c 128,-1,21
 770 -45 770 -45 775 -39 c 128,-1,22
 780 -33 780 -33 780 -26 c 0,23,24
 780 -18 780 -18 771 8.5 c 128,-1,25
 762 35 762 35 750 65 c 1,26,27
 780 112 780 112 794.5 177.5 c 128,-1,28
 809 243 809 243 809 316 c 0,29,30
 809 371 809 371 797 425 c 128,-1,31
 785 479 785 479 760.5 521.5 c 128,-1,32
 736 564 736 564 697.5 590 c 128,-1,33
 659 616 659 616 606 616 c 0,0,1
454 139 m 0,34,35
 457 139 457 139 461 133.5 c 128,-1,36
 465 128 465 128 469.5 119.5 c 128,-1,37
 474 111 474 111 479.5 102 c 128,-1,38
 485 93 485 93 490 86 c 0,39,40
 512 57 512 57 531.5 40 c 128,-1,41
 551 23 551 23 551 18 c 0,42,43
 551 15 551 15 546 14 c 0,44,45
 534 14 534 14 517.5 28 c 128,-1,46
 501 42 501 42 486 61.5 c 128,-1,47
 471 81 471 81 460.5 101.5 c 128,-1,48
 450 122 450 122 450 134 c 0,49,50
 450 139 450 139 454 139 c 0,34,35
511 395 m 1,51,52
 527 354 527 354 544 312 c 128,-1,53
 561 270 561 270 577.5 229.5 c 128,-1,54
 594 189 594 189 609.5 151 c 128,-1,55
 625 113 625 113 638 81 c 1,56,57
 625 74 625 74 607 74 c 0,58,59
 576 74 576 74 556 102 c 128,-1,60
 536 130 536 130 524.5 168.5 c 128,-1,61
 513 207 513 207 509 247 c 128,-1,62
 505 287 505 287 505 311 c 0,63,64
 505 327 505 327 506.5 349 c 128,-1,65
 508 371 508 371 511 395 c 1,51,52
455 161 m 256,66,67
 455 153 455 153 448 151 c 0,68,69
 445 151 445 151 440 154.5 c 128,-1,70
 435 158 435 158 435 166 c 0,71,72
 435 175 435 175 443 175 c 0,73,74
 446 175 446 175 450.5 172 c 128,-1,75
 455 169 455 169 455 161 c 256,66,67
606 536 m 0,76,77
 636 536 636 536 654.5 513.5 c 128,-1,78
 673 491 673 491 683.5 457.5 c 128,-1,79
 694 424 694 424 698 384 c 128,-1,80
 702 344 702 344 702 308 c 0,81,82
 702 282 702 282 701 254 c 128,-1,83
 700 226 700 226 696 198 c 1,84,85
 686 224 686 224 671 262.5 c 128,-1,86
 656 301 656 301 638.5 344.5 c 128,-1,87
 621 388 621 388 602.5 434.5 c 128,-1,88
 584 481 584 481 566 523 c 1,89,90
 584 536 584 536 606 536 c 0,76,77
EndSplineSet

EndChar

StartChar: R
Encoding: 82 82 58
Width: 1200
Flags: W
LayerCount: 2
Fore
SplineSet
581.5 584 m 4,0,1
 541.5 584 541.5 584 513 612 c 132,-1,2
 484.5 640 484.5 640 484.5 684 c 4,3,4
 484.5 708 484.5 708 493 729.5 c 132,-1,5
 501.5 751 501.5 751 516.5 766.5 c 132,-1,6
 531.5 782 531.5 782 552.5 791.5 c 132,-1,7
 573.5 801 573.5 801 598.5 801 c 4,8,9
 618.5 801 618.5 801 635.5 792.5 c 132,-1,10
 652.5 784 652.5 784 664.5 769 c 132,-1,11
 676.5 754 676.5 754 683 735 c 132,-1,12
 689.5 716 689.5 716 689.5 695 c 4,13,14
 689.5 668 689.5 668 681 647.5 c 132,-1,15
 672.5 627 672.5 627 657.5 613 c 132,-1,16
 642.5 599 642.5 599 623 591.5 c 132,-1,17
 603.5 584 603.5 584 581.5 584 c 4,0,1
544.5 757 m 4,18,19
 551.5 764 551.5 764 553 769 c 132,-1,20
 554.5 774 554.5 774 552.5 774 c 4,21,22
 544.5 774 544.5 774 535.5 766.5 c 132,-1,23
 526.5 759 526.5 759 519 748.5 c 132,-1,24
 511.5 738 511.5 738 506.5 726 c 132,-1,25
 501.5 714 501.5 714 501.5 704 c 4,26,27
 501.5 702 501.5 702 503 696 c 132,-1,28
 504.5 690 504.5 690 507.5 690 c 4,29,30
 511.5 690 511.5 690 517.5 712 c 4,31,32
 520.5 726 520.5 726 528.5 737.5 c 132,-1,33
 536.5 749 536.5 749 544.5 757 c 4,18,19
585.5 641 m 4,34,35
 597.5 641 597.5 641 614 655 c 132,-1,36
 630.5 669 630.5 669 630.5 695 c 4,37,38
 630.5 715 630.5 715 620 728.5 c 132,-1,39
 609.5 742 609.5 742 592.5 742 c 260,40,41
 575.5 742 575.5 742 561.5 728.5 c 132,-1,42
 547.5 715 547.5 715 547.5 691 c 260,43,44
 547.5 667 547.5 667 558.5 654 c 132,-1,45
 569.5 641 569.5 641 585.5 641 c 4,34,35
525.5 0 m 0,46,47
 500.5 0 500.5 0 490.5 17 c 128,-1,48
 480.5 34 480.5 34 480.5 64 c 2,49,-1
 480.5 451 l 2,50,51
 480.5 505 480.5 505 491.5 525 c 128,-1,52
 502.5 545 502.5 545 528.5 545 c 0,53,54
 551.5 545 551.5 545 565 526.5 c 128,-1,55
 578.5 508 578.5 508 578.5 473 c 0,56,57
 578.5 462 578.5 462 578.5 456.5 c 128,-1,58
 578.5 451 578.5 451 581.5 451 c 0,59,60
 583.5 451 583.5 451 584 454 c 128,-1,61
 584.5 457 584.5 457 586.5 461 c 0,62,63
 589.5 468 589.5 468 595 482 c 128,-1,64
 600.5 496 600.5 496 611 510 c 128,-1,65
 621.5 524 621.5 524 637.5 534.5 c 128,-1,66
 653.5 545 653.5 545 675.5 545 c 0,67,68
 695.5 545 695.5 545 707.5 533 c 128,-1,69
 719.5 521 719.5 521 719.5 502 c 0,70,71
 719.5 482 719.5 482 711 464.5 c 128,-1,72
 702.5 447 702.5 447 682.5 447 c 256,73,74
 662.5 447 662.5 447 645 428.5 c 128,-1,75
 627.5 410 627.5 410 615 381.5 c 128,-1,76
 602.5 353 602.5 353 595 319 c 128,-1,77
 587.5 285 587.5 285 587.5 254 c 2,78,-1
 587.5 55 l 2,79,80
 587.5 25 587.5 25 567.5 12.5 c 128,-1,81
 547.5 0 547.5 0 525.5 0 c 0,46,47
507.5 503 m 256,82,83
 508.5 507 508.5 507 510 511.5 c 128,-1,84
 511.5 516 511.5 516 512.5 520 c 128,-1,85
 513.5 524 513.5 524 513 526.5 c 128,-1,86
 512.5 529 512.5 529 508.5 529 c 0,87,88
 503.5 529 503.5 529 498.5 518.5 c 128,-1,89
 493.5 508 493.5 508 493.5 497 c 0,90,91
 493.5 476 493.5 476 500.5 476 c 0,92,93
 505.5 476 505.5 476 506 487.5 c 128,-1,94
 506.5 499 506.5 499 507.5 503 c 256,82,83
507.5 50 m 0,95,96
 504.5 62 504.5 62 503 71.5 c 128,-1,97
 501.5 81 501.5 81 498.5 81 c 0,98,99
 493.5 81 493.5 81 493.5 64 c 0,100,101
 493.5 46 493.5 46 498.5 32 c 128,-1,102
 503.5 18 503.5 18 510.5 18 c 0,103,104
 512.5 18 512.5 18 515 19 c 128,-1,105
 517.5 20 517.5 20 517.5 25 c 0,106,107
 517.5 28 517.5 28 513.5 34 c 128,-1,108
 509.5 40 509.5 40 507.5 50 c 0,95,96
EndSplineSet
EndChar

StartChar: S
Encoding: 83 83 59
Width: 1200
Flags: W
LayerCount: 2
Fore
SplineSet
610 622.5 m 4,0,1
 570 622.5 570 622.5 541.5 650.5 c 132,-1,2
 513 678.5 513 678.5 513 722.5 c 4,3,4
 513 746.5 513 746.5 521.5 768 c 132,-1,5
 530 789.5 530 789.5 545 805 c 132,-1,6
 560 820.5 560 820.5 581 830 c 132,-1,7
 602 839.5 602 839.5 627 839.5 c 4,8,9
 647 839.5 647 839.5 664 831 c 132,-1,10
 681 822.5 681 822.5 693 807.5 c 132,-1,11
 705 792.5 705 792.5 711.5 773.5 c 132,-1,12
 718 754.5 718 754.5 718 733.5 c 4,13,14
 718 706.5 718 706.5 709.5 686 c 132,-1,15
 701 665.5 701 665.5 686 651.5 c 132,-1,16
 671 637.5 671 637.5 651.5 630 c 132,-1,17
 632 622.5 632 622.5 610 622.5 c 4,0,1
573 795.5 m 4,18,19
 580 802.5 580 802.5 581.5 807.5 c 132,-1,20
 583 812.5 583 812.5 581 812.5 c 4,21,22
 573 812.5 573 812.5 564 805 c 132,-1,23
 555 797.5 555 797.5 547.5 787 c 132,-1,24
 540 776.5 540 776.5 535 764.5 c 132,-1,25
 530 752.5 530 752.5 530 742.5 c 4,26,27
 530 740.5 530 740.5 531.5 734.5 c 132,-1,28
 533 728.5 533 728.5 536 728.5 c 4,29,30
 540 728.5 540 728.5 546 750.5 c 4,31,32
 549 764.5 549 764.5 557 776 c 132,-1,33
 565 787.5 565 787.5 573 795.5 c 4,18,19
614 679.5 m 4,34,35
 626 679.5 626 679.5 642.5 693.5 c 132,-1,36
 659 707.5 659 707.5 659 733.5 c 4,37,38
 659 753.5 659 753.5 648.5 767 c 132,-1,39
 638 780.5 638 780.5 621 780.5 c 260,40,41
 604 780.5 604 780.5 590 767 c 132,-1,42
 576 753.5 576 753.5 576 729.5 c 260,43,44
 576 705.5 576 705.5 587 692.5 c 132,-1,45
 598 679.5 598 679.5 614 679.5 c 4,34,35
603 -46 m 4,46,47
 572 -46 572 -46 541 -32.5 c 132,-1,48
 510 -19 510 -19 485.5 6 c 132,-1,49
 461 31 461 31 446 68 c 132,-1,50
 431 105 431 105 431 151 c 4,51,52
 431 182 431 182 449 202 c 132,-1,53
 467 222 467 222 494 220 c 4,54,55
 511 219 511 219 518.5 207.5 c 132,-1,56
 526 196 526 196 526 170 c 4,57,58
 526 152 526 152 530.5 129 c 132,-1,59
 535 106 535 106 544 86 c 132,-1,60
 553 66 553 66 565.5 52.5 c 132,-1,61
 578 39 578 39 593 39 c 4,62,63
 657 39 657 39 657 104 c 4,64,65
 657 125 657 125 650.5 143 c 132,-1,66
 644 161 644 161 633.5 176 c 132,-1,67
 623 191 623 191 610 205 c 132,-1,68
 597 219 597 219 583 232 c 4,69,70
 511 304 511 304 480.5 352 c 132,-1,71
 450 400 450 400 450 440 c 4,72,73
 450 509 450 509 492.5 548 c 132,-1,74
 535 587 535 587 609 587 c 4,75,76
 643 587 643 587 671 572 c 132,-1,77
 699 557 699 557 719.5 533 c 132,-1,78
 740 509 740 509 751 479.5 c 132,-1,79
 762 450 762 450 762 422 c 4,80,81
 762 392 762 392 744.5 367.5 c 132,-1,82
 727 343 727 343 701 343 c 4,83,84
 689 343 689 343 675 353 c 132,-1,85
 661 363 661 363 661 380 c 4,86,87
 661 439 661 439 644 466.5 c 132,-1,88
 627 494 627 494 605 494 c 4,89,90
 563 494 563 494 563 446 c 4,91,92
 563 431 563 431 567 416.5 c 132,-1,93
 571 402 571 402 581.5 385 c 132,-1,94
 592 368 592 368 609.5 347.5 c 132,-1,95
 627 327 627 327 654 300 c 4,96,97
 687 267 687 267 709 241 c 132,-1,98
 731 215 731 215 744.5 193 c 132,-1,99
 758 171 758 171 763.5 152 c 132,-1,100
 769 133 769 133 769 114 c 4,101,102
 769 79 769 79 756.5 49.5 c 132,-1,103
 744 20 744 20 722 -1 c 132,-1,104
 700 -22 700 -22 669.5 -34 c 132,-1,105
 639 -46 639 -46 603 -46 c 4,46,47
508 506 m 4,106,107
 512 513 512 513 519 522.5 c 132,-1,108
 526 532 526 532 534 538 c 4,109,110
 542 543 542 543 544.5 549.5 c 132,-1,111
 547 556 547 556 544 556 c 4,112,113
 538 557 538 557 528 549.5 c 132,-1,114
 518 542 518 542 509 531 c 132,-1,115
 500 520 500 520 493 508 c 132,-1,116
 486 496 486 496 485 487 c 4,117,118
 485 481 485 481 491 481 c 4,119,120
 496 480 496 480 499 488 c 132,-1,121
 502 496 502 496 508 506 c 4,106,107
492 461 m 4,122,123
 492 468 492 468 486 468 c 4,124,125
 483 468 483 468 480.5 465 c 132,-1,126
 478 462 478 462 478 460 c 4,127,128
 478 455 478 455 485 454 c 4,129,130
 490 454 490 454 492 461 c 4,122,123
468 153 m 260,131,132
 473 167 473 167 478.5 176 c 132,-1,133
 484 185 484 185 485 193 c 4,134,135
 485 198 485 198 482 198 c 4,136,137
 474 199 474 199 467 192.5 c 132,-1,138
 460 186 460 186 455.5 176 c 132,-1,139
 451 166 451 166 450 153.5 c 132,-1,140
 449 141 449 141 453 129 c 4,141,142
 457 119 457 119 461 119 c 4,143,144
 466 119 466 119 464.5 129 c 132,-1,145
 463 139 463 139 468 153 c 260,131,132
EndSplineSet
EndChar

StartChar: T
Encoding: 84 84 60
Width: 1200
Flags: W
LayerCount: 2
Fore
SplineSet
591.5 0 m 0,0,1
 583.5 0 583.5 0 574.5 3 c 128,-1,2
 565.5 6 565.5 6 557.5 11 c 128,-1,3
 549.5 16 549.5 16 544 23.5 c 128,-1,4
 538.5 31 538.5 31 538.5 40 c 2,5,-1
 538.5 525 l 1,6,7
 526.5 525 526.5 525 486.5 525 c 128,-1,8
 446.5 525 446.5 525 430 529 c 128,-1,9
 413.5 533 413.5 533 402 542.5 c 128,-1,10
 390.5 552 390.5 552 390.5 570 c 0,11,12
 390.5 592 390.5 592 404.5 604 c 128,-1,13
 418.5 616 418.5 616 439.5 616 c 2,14,-1
 776.5 616 l 2,15,16
 792.5 616 792.5 616 801 602 c 128,-1,17
 809.5 588 809.5 588 809.5 574 c 0,18,19
 809.5 556 809.5 556 801 546.5 c 128,-1,20
 792.5 537 792.5 537 779.5 532 c 128,-1,21
 766.5 527 766.5 527 719.5 526 c 128,-1,22
 672.5 525 672.5 525 659.5 525 c 2,23,-1
 651.5 525 l 1,24,-1
 651.5 47 l 2,25,26
 651.5 24 651.5 24 631.5 12 c 128,-1,27
 611.5 0 611.5 0 591.5 0 c 0,0,1
413.5 553 m 256,28,29
 418.5 553 418.5 553 418.5 560 c 0,30,31
 418.5 568 418.5 568 421.5 578.5 c 128,-1,32
 424.5 589 424.5 589 430.5 598 c 0,33,34
 433.5 603 433.5 603 425.5 603 c 0,35,36
 416.5 603 416.5 603 410.5 591.5 c 128,-1,37
 404.5 580 404.5 580 404.5 569 c 0,38,39
 404.5 565 404.5 565 406.5 559 c 128,-1,40
 408.5 553 408.5 553 413.5 553 c 256,28,29
572.5 23 m 0,41,42
 581.5 23 581.5 23 581.5 32 c 0,43,44
 581.5 36 581.5 36 577.5 37 c 0,45,46
 571.5 39 571.5 39 569 49.5 c 128,-1,47
 566.5 60 566.5 60 566.5 65 c 0,48,49
 566.5 67 566.5 67 567 73 c 128,-1,50
 567.5 79 567.5 79 567.5 85 c 128,-1,51
 567.5 91 567.5 91 566.5 95.5 c 128,-1,52
 565.5 100 565.5 100 561.5 100 c 256,53,54
 557.5 100 557.5 100 555.5 96 c 128,-1,55
 553.5 92 553.5 92 552.5 86.5 c 128,-1,56
 551.5 81 551.5 81 551 75.5 c 128,-1,57
 550.5 70 550.5 70 550.5 68 c 0,58,59
 550.5 64 550.5 64 551.5 56 c 128,-1,60
 552.5 48 552.5 48 555 41 c 128,-1,61
 557.5 34 557.5 34 562 28.5 c 128,-1,62
 566.5 23 566.5 23 572.5 23 c 0,41,42
EndSplineSet

EndChar

StartChar: U
Encoding: 85 85 61
Width: 1200
Flags: W
LayerCount: 2
Fore
SplineSet
597.5 -4 m 0,0,1
 552.5 -4 552.5 -4 516 12.5 c 128,-1,2
 479.5 29 479.5 29 454.5 58.5 c 128,-1,3
 429.5 88 429.5 88 416 129.5 c 128,-1,4
 402.5 171 402.5 171 402.5 221 c 2,5,-1
 402.5 530 l 2,6,7
 402.5 540 402.5 540 404.5 555 c 128,-1,8
 406.5 570 406.5 570 412.5 583.5 c 128,-1,9
 418.5 597 418.5 597 429 606.5 c 128,-1,10
 439.5 616 439.5 616 455.5 616 c 0,11,12
 488.5 616 488.5 616 502.5 599 c 128,-1,13
 516.5 582 516.5 582 516.5 528 c 2,14,-1
 516.5 228 l 2,15,16
 516.5 204 516.5 204 516.5 179.5 c 128,-1,17
 516.5 155 516.5 155 524 135.5 c 128,-1,18
 531.5 116 531.5 116 549 103.5 c 128,-1,19
 566.5 91 566.5 91 601.5 91 c 0,20,21
 634.5 91 634.5 91 651.5 110 c 128,-1,22
 668.5 129 668.5 129 676 157.5 c 128,-1,23
 683.5 186 683.5 186 684 220 c 128,-1,24
 684.5 254 684.5 254 684.5 284 c 2,25,-1
 684.5 531 l 2,26,27
 684.5 541 684.5 541 686.5 556 c 128,-1,28
 688.5 571 688.5 571 694 584.5 c 128,-1,29
 699.5 598 699.5 598 709 608 c 128,-1,30
 718.5 618 718.5 618 734.5 618 c 0,31,32
 765.5 618 765.5 618 781.5 597.5 c 128,-1,33
 797.5 577 797.5 577 797.5 532 c 2,34,-1
 797.5 246 l 2,35,36
 797.5 189 797.5 189 785 143 c 128,-1,37
 772.5 97 772.5 97 747 64.5 c 128,-1,38
 721.5 32 721.5 32 684.5 14 c 128,-1,39
 647.5 -4 647.5 -4 597.5 -4 c 0,0,1
712.5 556 m 0,40,41
 712.5 560 712.5 560 715.5 568 c 128,-1,42
 718.5 576 718.5 576 725.5 584 c 0,43,44
 733.5 595 733.5 595 734 599 c 128,-1,45
 734.5 603 734.5 603 725.5 603 c 0,46,47
 720.5 603 720.5 603 716 598 c 128,-1,48
 711.5 593 711.5 593 708.5 588 c 0,49,50
 706.5 583 706.5 583 703 575 c 128,-1,51
 699.5 567 699.5 567 698.5 558 c 0,52,53
 698.5 553 698.5 553 699.5 548.5 c 128,-1,54
 700.5 544 700.5 544 705.5 544 c 256,55,56
 710.5 544 710.5 544 711.5 547.5 c 128,-1,57
 712.5 551 712.5 551 712.5 556 c 0,40,41
444.5 570 m 0,58,59
 448.5 579 448.5 579 454 585 c 128,-1,60
 459.5 591 459.5 591 459.5 598 c 0,61,62
 459.5 603 459.5 603 456.5 603 c 256,63,64
 453.5 603 453.5 603 447.5 600.5 c 128,-1,65
 441.5 598 441.5 598 436.5 590 c 0,66,67
 421.5 569 421.5 569 419.5 552 c 128,-1,68
 417.5 535 417.5 535 423.5 535 c 0,69,70
 428.5 535 428.5 535 434 545.5 c 128,-1,71
 439.5 556 439.5 556 444.5 570 c 0,58,59
513.5 48 m 0,72,73
 513.5 51 513.5 51 506 57 c 128,-1,74
 498.5 63 498.5 63 490.5 72 c 0,75,76
 482.5 80 482.5 80 472 93.5 c 128,-1,77
 461.5 107 461.5 107 454.5 122 c 0,78,79
 449.5 132 449.5 132 445 136 c 128,-1,80
 440.5 140 440.5 140 438.5 140 c 0,81,82
 434.5 140 434.5 140 434.5 133 c 0,83,84
 434.5 125 434.5 125 442.5 109.5 c 128,-1,85
 450.5 94 450.5 94 461.5 79 c 128,-1,86
 472.5 64 472.5 64 485 53 c 128,-1,87
 497.5 42 497.5 42 507.5 42 c 0,88,89
 513.5 42 513.5 42 513.5 48 c 0,72,73
536.5 39 m 0,90,91
 536.5 40 536.5 40 534 43 c 128,-1,92
 531.5 46 531.5 46 528.5 46 c 0,93,94
 523.5 45 523.5 45 521.5 42 c 128,-1,95
 519.5 39 519.5 39 519.5 37 c 0,96,97
 520.5 34 520.5 34 521.5 31.5 c 128,-1,98
 522.5 29 522.5 29 527.5 30 c 0,99,100
 536.5 30 536.5 30 536.5 39 c 0,90,91
EndSplineSet
EndChar

StartChar: V
Encoding: 86 86 62
Width: 1200
Flags: W
LayerCount: 2
Fore
SplineSet
638.5 103 m 1,0,-1
 567.5 103 l 1,1,-1
 567.5 783 l 1,2,-1
 638.5 783 l 1,3,-1
 638.5 103 l 1,0,-1
555.5 0 m 1,4,-1
 329.5 545 l 1,5,-1
 329.5 599 l 1,6,-1
 870.5 599 l 1,7,-1
 870.5 544 l 1,8,-1
 645.5 0 l 1,9,-1
 555.5 0 l 1,4,-1
601.5 98 m 1,10,-1
 774.5 520 l 1,11,-1
 428.5 520 l 1,12,-1
 601.5 98 l 1,10,-1
EndSplineSet
EndChar

StartChar: W
Encoding: 87 87 63
Width: 1200
Flags: W
LayerCount: 2
Fore
SplineSet
902.017578125 609.5 m 0,0,1
 901.517578125 578 901.517578125 578 881.017578125 568.5 c 0,2,3
 859.517578125 558 859.517578125 558 836.017578125 557.5 c 0,4,5
 800.517578125 557 800.517578125 557 591.017578125 556 c 128,-1,6
 381.517578125 555 381.517578125 555 351.017578125 555.5 c 4,7,8
 329.517578125 556 329.517578125 556 313.517578125 566 c 4,9,10
 298.517578125 575 298.517578125 575 298.017578125 599.5 c 4,11,12
 297.517578125 614 297.517578125 614 304.017578125 622 c 4,13,14
 309.517578125 630 309.517578125 630 319.017578125 635.5 c 4,15,16
 327.517578125 640 327.517578125 640 339.517578125 642.5 c 4,17,18
 351.517578125 644 351.517578125 644 362.017578125 644.5 c 4,19,20
 393.517578125 645 393.517578125 645 607.517578125 646 c 128,-1,21
 821.517578125 647 821.517578125 647 856.017578125 646.5 c 0,22,23
 873.517578125 646 873.517578125 646 887.517578125 639 c 128,-1,24
 901.517578125 632 901.517578125 632 902.017578125 609.5 c 0,0,1
316.017578125 580.5 m 4,25,26
 320.517578125 580 320.517578125 580 324.517578125 586 c 132,-1,27
 328.517578125 592 328.517578125 592 332.517578125 598 c 132,-1,28
 336.517578125 604 336.517578125 604 338.517578125 611 c 132,-1,29
 340.517578125 618 340.517578125 618 341.017578125 619.5 c 4,30,31
 340.517578125 624 340.517578125 624 340.517578125 627 c 132,-1,32
 340.517578125 630 340.517578125 630 335.017578125 630.5 c 4,33,34
 322.517578125 630 322.517578125 630 315.517578125 617 c 4,35,36
 309.517578125 607 309.517578125 607 309.017578125 593.5 c 4,37,38
 308.517578125 586 308.517578125 586 311.517578125 583 c 132,-1,39
 314.517578125 580 314.517578125 580 316.017578125 580.5 c 4,25,26
701.517578125 0 m 0,40,41
 678.517578125 0 678.517578125 0 662.017578125 6 c 128,-1,42
 645.517578125 12 645.517578125 12 634.017578125 23.5 c 128,-1,43
 622.517578125 35 622.517578125 35 614.517578125 51 c 0,44,45
 602.517578125 75 602.517578125 75 599.517578125 87 c 0,46,47
 598.517578125 91 598.517578125 91 597.517578125 97 c 128,-1,48
 596.517578125 103 596.517578125 103 595.017578125 109 c 128,-1,49
 593.517578125 115 593.517578125 115 592.017578125 119 c 128,-1,50
 590.517578125 123 590.517578125 123 588.517578125 123 c 256,51,52
 586.517578125 123 586.517578125 123 584.517578125 115.5 c 128,-1,53
 582.517578125 108 582.517578125 108 578.517578125 97 c 0,54,55
 568.517578125 71 568.517578125 71 559.517578125 52.5 c 128,-1,56
 550.517578125 34 550.517578125 34 539.017578125 22.5 c 128,-1,57
 527.517578125 11 527.517578125 11 513.517578125 5.5 c 128,-1,58
 499.517578125 0 499.517578125 0 479.517578125 0 c 0,59,60
 439.517578125 0 439.517578125 0 410.017578125 13.5 c 128,-1,61
 380.517578125 27 380.517578125 27 361.517578125 51.5 c 128,-1,62
 342.517578125 76 342.517578125 76 333.517578125 109.5 c 128,-1,63
 324.517578125 143 324.517578125 143 324.517578125 183 c 2,64,-1
 324.517578125 462 l 2,65,66
 324.517578125 472 324.517578125 472 327.517578125 485.5 c 128,-1,67
 330.517578125 499 330.517578125 499 337.517578125 511 c 128,-1,68
 344.517578125 523 344.517578125 523 356.017578125 531.5 c 128,-1,69
 367.517578125 540 367.517578125 540 385.517578125 540 c 0,70,71
 414.517578125 540 414.517578125 540 425.517578125 519.5 c 0,72,73
 436.400390625 499.21875 436.400390625 499.21875 436.517578125 467 c 2,74,-1
 437.517578125 193 l 2,75,76
 437.517578125 183 437.517578125 183 439.517578125 166.5 c 128,-1,77
 441.517578125 150 441.517578125 150 446.017578125 134 c 128,-1,78
 450.517578125 118 450.517578125 118 459.517578125 106.5 c 128,-1,79
 468.517578125 95 468.517578125 95 481.517578125 95 c 0,80,81
 504.517578125 95 504.517578125 95 518.017578125 129 c 128,-1,82
 531.517578125 163 531.517578125 163 538.517578125 219 c 128,-1,83
 545.517578125 275 545.517578125 275 547.017578125 308.5 c 128,-1,84
 548.517578125 342 548.517578125 342 548.517578125 418 c 0,85,86
 548.517578125 482 548.517578125 482 558.517578125 506.5 c 128,-1,87
 568.517578125 531 568.517578125 531 598.517578125 531 c 0,88,89
 612.517578125 531 612.517578125 531 621.517578125 526 c 128,-1,90
 630.517578125 521 630.517578125 521 636.517578125 505 c 128,-1,91
 642.517578125 489 642.517578125 489 645.017578125 459 c 128,-1,92
 647.517578125 429 647.517578125 429 647.517578125 379 c 0,93,94
 647.517578125 300 647.517578125 300 647.517578125 285.5 c 128,-1,95
 647.517578125 271 647.517578125 271 649.017578125 236.5 c 128,-1,96
 650.517578125 202 650.517578125 202 653.017578125 181.5 c 128,-1,97
 655.517578125 161 655.517578125 161 660.517578125 146 c 0,98,99
 669.517578125 117 669.517578125 117 679.517578125 105.5 c 128,-1,100
 689.517578125 94 689.517578125 94 702.517578125 94 c 0,101,102
 761.517578125 94 761.517578125 94 761.517578125 239 c 2,103,-1
 761.517578125 479 l 2,104,105
 761.517578125 490 761.517578125 490 763.517578125 501 c 128,-1,106
 765.517578125 512 765.517578125 512 771.017578125 520.5 c 128,-1,107
 776.517578125 529 776.517578125 529 786.517578125 534.5 c 128,-1,108
 796.517578125 540 796.517578125 540 811.517578125 540 c 0,109,110
 843.517578125 540 843.517578125 540 858.017578125 522.5 c 128,-1,111
 872.517578125 505 872.517578125 505 872.517578125 479 c 2,112,-1
 872.517578125 220 l 2,113,114
 872.517578125 178 872.517578125 178 861.017578125 138.5 c 128,-1,115
 849.517578125 99 849.517578125 99 828.017578125 68 c 128,-1,116
 806.517578125 37 806.517578125 37 774.517578125 18.5 c 128,-1,117
 742.517578125 0 742.517578125 0 701.517578125 0 c 0,40,41
349.517578125 455 m 0,118,119
 356.517578125 455 356.517578125 455 359.017578125 462 c 128,-1,120
 361.517578125 469 361.517578125 469 362.517578125 474 c 0,121,122
 364.517578125 488 364.517578125 488 373.517578125 497.5 c 0,123,124
 388.517578125 513 388.517578125 513 388.517578125 519 c 0,125,126
 388.517578125 521 388.517578125 521 386.517578125 524 c 128,-1,127
 384.517578125 527 384.517578125 527 381.517578125 527 c 0,128,129
 375.517578125 527 375.517578125 527 368.517578125 520.5 c 128,-1,130
 361.517578125 514 361.517578125 514 355.517578125 505 c 128,-1,131
 349.517578125 496 349.517578125 496 346.017578125 485.5 c 128,-1,132
 342.517578125 475 342.517578125 475 342.517578125 467 c 0,133,134
 342.517578125 463 342.517578125 463 343.517578125 459 c 128,-1,135
 344.517578125 455 344.517578125 455 349.517578125 455 c 0,118,119
794.517578125 473 m 0,136,137
 794.517578125 483 794.517578125 483 797.517578125 491 c 128,-1,138
 800.517578125 499 800.517578125 499 804.517578125 506 c 0,139,140
 809.517578125 514 809.517578125 514 808.517578125 519 c 128,-1,141
 807.517578125 524 807.517578125 524 804.517578125 524 c 0,142,143
 799.517578125 524 799.517578125 524 793.017578125 520.5 c 128,-1,144
 786.517578125 517 786.517578125 517 782.517578125 507 c 0,145,146
 777.517578125 491 777.517578125 491 779.017578125 476 c 128,-1,147
 780.517578125 461 780.517578125 461 788.517578125 461 c 0,148,149
 790.517578125 461 790.517578125 461 792.517578125 464.5 c 128,-1,150
 794.517578125 468 794.517578125 468 794.517578125 473 c 0,136,137
575.517578125 467 m 0,151,152
 575.517578125 468 575.517578125 468 577.517578125 477.5 c 128,-1,153
 579.517578125 487 579.517578125 487 582.517578125 493 c 0,154,155
 589.517578125 506 589.517578125 506 591.517578125 511 c 128,-1,156
 593.517578125 516 593.517578125 516 590.517578125 516 c 0,157,158
 588.517578125 516 588.517578125 516 583.017578125 514 c 128,-1,159
 577.517578125 512 577.517578125 512 572.517578125 505 c 0,160,161
 561.517578125 490 561.517578125 490 562.017578125 473 c 128,-1,162
 562.517578125 456 562.517578125 456 570.517578125 456 c 0,163,164
 575.517578125 456 575.517578125 456 575.517578125 467 c 0,151,152
426.517578125 37 m 0,165,166
 425.517578125 42 425.517578125 42 412.517578125 51 c 128,-1,167
 399.517578125 60 399.517578125 60 393.517578125 67 c 0,168,169
 382.517578125 78 382.517578125 78 378.017578125 89 c 128,-1,170
 373.517578125 100 373.517578125 100 368.517578125 99 c 0,171,172
 364.517578125 99 364.517578125 99 365.017578125 92 c 128,-1,173
 365.517578125 85 365.517578125 85 370.017578125 75 c 128,-1,174
 374.517578125 65 374.517578125 65 383.517578125 54 c 128,-1,175
 392.517578125 43 392.517578125 43 405.517578125 34 c 0,176,177
 414.517578125 27 414.517578125 27 421.517578125 29 c 0,178,179
 426.517578125 29 426.517578125 29 426.517578125 37 c 0,165,166
692.517578125 22 m 0,180,181
 692.517578125 26 692.517578125 26 689.017578125 27 c 128,-1,182
 685.517578125 28 685.517578125 28 682.517578125 28 c 0,183,184
 677.517578125 29 677.517578125 29 667.517578125 38 c 128,-1,185
 657.517578125 47 657.517578125 47 651.517578125 57 c 0,186,187
 641.517578125 72 641.517578125 72 633.517578125 74 c 0,188,189
 630.517578125 74 630.517578125 74 630.517578125 69 c 0,190,191
 630.517578125 67 630.517578125 67 634.017578125 59 c 128,-1,192
 637.517578125 51 637.517578125 51 644.517578125 42 c 128,-1,193
 651.517578125 33 651.517578125 33 661.017578125 25.5 c 128,-1,194
 670.517578125 18 670.517578125 18 681.517578125 17 c 0,195,196
 685.517578125 17 685.517578125 17 688.517578125 17 c 128,-1,197
 691.517578125 17 691.517578125 17 692.517578125 22 c 0,180,181
EndSplineSet
EndChar

StartChar: X
Encoding: 88 88 64
Width: 1200
Flags: W
LayerCount: 2
Fore
SplineSet
686.534179688 174.834960938 m 0,0,1
 696.138671875 166.602539062 696.138671875 166.602539062 709.790039062 152.40234375 c 128,-1,2
 723.44140625 138.202148438 723.44140625 138.202148438 736.081054688 125.494140625 c 128,-1,3
 748.720703125 112.786132812 748.720703125 112.786132812 758.975585938 104.829101562 c 128,-1,4
 769.231445312 96.87109375 769.231445312 96.87109375 772.043945312 101.124023438 c 0,5,6
 773.725585938 102.598632812 773.725585938 102.598632812 775.611328125 107.229492188 c 128,-1,7
 777.498046875 111.860351562 777.498046875 111.860351562 774 116.524414062 c 0,8,9
 771.049804688 119.885742188 771.049804688 119.885742188 761 131 c 128,-1,10
 750.950195312 142.112304688 750.950195312 142.112304688 739.047851562 153.98046875 c 128,-1,11
 727.146484375 165.84765625 727.146484375 165.84765625 715.604492188 175.94921875 c 128,-1,12
 704.061523438 186.05078125 704.061523438 186.05078125 698.505859375 188.313476562 c 0,13,14
 692.0234375 190.955078125 692.0234375 190.955078125 687.340820312 184.764648438 c 128,-1,15
 682.659179688 178.573242188 682.659179688 178.573242188 686.534179688 174.834960938 c 0,0,1
429.453125 485.340820312 m 0,16,17
 439.057617188 477.108398438 439.057617188 477.108398438 452.708984375 462.908203125 c 128,-1,18
 466.360351562 448.708007812 466.360351562 448.708007812 479 436 c 128,-1,19
 491.639648438 423.291992188 491.639648438 423.291992188 501.89453125 415.334960938 c 128,-1,20
 512.150390625 407.376953125 512.150390625 407.376953125 514.962890625 411.629882812 c 0,21,22
 516.64453125 413.104492188 516.64453125 413.104492188 518.530273438 417.735351562 c 128,-1,23
 520.416992188 422.366210938 520.416992188 422.366210938 516.918945312 427.030273438 c 0,24,25
 513.96875 430.391601562 513.96875 430.391601562 503.918945312 441.505859375 c 128,-1,26
 493.869140625 452.618164062 493.869140625 452.618164062 481.966796875 464.486328125 c 128,-1,27
 470.065429688 476.353515625 470.065429688 476.353515625 458.5234375 486.455078125 c 128,-1,28
 446.98046875 496.556640625 446.98046875 496.556640625 441.424804688 498.819335938 c 0,29,30
 434.942382812 501.4609375 434.942382812 501.4609375 430.259765625 495.270507812 c 128,-1,31
 425.578125 489.079101562 425.578125 489.079101562 429.453125 485.340820312 c 0,16,17
692.004882812 411.383789062 m 0,32,33
 700.94921875 420.328125 700.94921875 420.328125 716.154296875 432.850585938 c 128,-1,34
 731.360351562 445.372070312 731.360351562 445.372070312 745 457 c 128,-1,35
 758.639648438 468.627929688 758.639648438 468.627929688 767.360351562 478.2421875 c 128,-1,36
 776.081054688 487.857421875 776.081054688 487.857421875 772.056640625 490.98828125 c 0,37,38
 770.71484375 492.77734375 770.71484375 492.77734375 766.2421875 495.012695312 c 128,-1,39
 761.770507812 497.249023438 761.770507812 497.249023438 756.8515625 494.119140625 c 0,40,41
 753.2734375 491.435546875 753.2734375 491.435546875 741.421875 482.267578125 c 128,-1,42
 729.571289062 473.099609375 729.571289062 473.099609375 716.825195312 462.142578125 c 128,-1,43
 704.080078125 451.186523438 704.080078125 451.186523438 693.123046875 440.453125 c 128,-1,44
 682.166015625 429.719726562 682.166015625 429.719726562 679.483398438 424.353515625 c 0,45,46
 676.352539062 418.092773438 676.352539062 418.092773438 682.166015625 412.94921875 c 128,-1,47
 687.98046875 407.806640625 687.98046875 407.806640625 692.004882812 411.383789062 c 0,32,33
418.004882812 123.383789062 m 0,48,49
 426.94921875 132.328125 426.94921875 132.328125 442.154296875 144.850585938 c 128,-1,50
 457.360351562 157.372070312 457.360351562 157.372070312 471 169 c 128,-1,51
 484.639648438 180.627929688 484.639648438 180.627929688 493.360351562 190.2421875 c 128,-1,52
 502.081054688 199.857421875 502.081054688 199.857421875 498.056640625 202.98828125 c 0,53,54
 496.71484375 204.77734375 496.71484375 204.77734375 492.2421875 207.012695312 c 128,-1,55
 487.770507812 209.249023438 487.770507812 209.249023438 482.8515625 206.119140625 c 0,56,57
 479.2734375 203.435546875 479.2734375 203.435546875 467.421875 194.267578125 c 128,-1,58
 455.571289062 185.099609375 455.571289062 185.099609375 442.825195312 174.142578125 c 128,-1,59
 430.080078125 163.186523438 430.080078125 163.186523438 419.123046875 152.453125 c 128,-1,60
 408.166015625 141.719726562 408.166015625 141.719726562 405.483398438 136.353515625 c 0,61,62
 402.352539062 130.092773438 402.352539062 130.092773438 408.166015625 124.94921875 c 128,-1,63
 413.98046875 119.806640625 413.98046875 119.806640625 418.004882812 123.383789062 c 0,48,49
418.004882812 123.383789062 m 0,64,65
 426.94921875 132.328125 426.94921875 132.328125 442.154296875 144.850585938 c 128,-1,66
 457.360351562 157.372070312 457.360351562 157.372070312 471 169 c 128,-1,67
 484.639648438 180.627929688 484.639648438 180.627929688 493.360351562 190.2421875 c 128,-1,68
 502.081054688 199.857421875 502.081054688 199.857421875 498.056640625 202.98828125 c 0,69,70
 496.71484375 204.77734375 496.71484375 204.77734375 492.2421875 207.012695312 c 128,-1,71
 487.770507812 209.249023438 487.770507812 209.249023438 482.8515625 206.119140625 c 0,72,73
 479.2734375 203.435546875 479.2734375 203.435546875 467.421875 194.267578125 c 128,-1,74
 455.571289062 185.099609375 455.571289062 185.099609375 442.825195312 174.142578125 c 128,-1,75
 430.080078125 163.186523438 430.080078125 163.186523438 419.123046875 152.453125 c 128,-1,76
 408.166015625 141.719726562 408.166015625 141.719726562 405.483398438 136.353515625 c 0,77,78
 402.352539062 130.092773438 402.352539062 130.092773438 408.166015625 124.94921875 c 128,-1,79
 413.98046875 119.806640625 413.98046875 119.806640625 418.004882812 123.383789062 c 0,64,65
439 71 m 1,80,-1
 370 140 l 1,81,-1
 531 301 l 1,82,-1
 370 462 l 1,83,-1
 439 531 l 1,84,-1
 600 370 l 1,85,-1
 761 531 l 1,86,-1
 830 462 l 1,87,-1
 669 301 l 1,88,-1
 830 140 l 1,89,-1
 761 71 l 1,90,-1
 600 232 l 1,91,-1
 439 71 l 1,80,-1
EndSplineSet
EndChar

StartChar: Y
Encoding: 89 89 65
Width: 1200
Flags: W
LayerCount: 2
Fore
SplineSet
600.36328125 0 m 0,0,1
 574.36328125 0 574.36328125 0 560.86328125 16.5 c 128,-1,2
 547.36328125 33 547.36328125 33 547.36328125 52 c 2,3,-1
 547.36328125 191 l 2,4,5
 547.36328125 204 547.36328125 204 545.86328125 214.5 c 128,-1,6
 544.36328125 225 544.36328125 225 540.86328125 236 c 128,-1,7
 537.36328125 247 537.36328125 247 531.36328125 260.5 c 128,-1,8
 525.36328125 274 525.36328125 274 516.36328125 294 c 2,9,-1
 397.36328125 556 l 2,10,11
 394.36328125 563 394.36328125 563 396.86328125 573.5 c 128,-1,12
 399.36328125 584 399.36328125 584 406.86328125 593.5 c 128,-1,13
 414.36328125 603 414.36328125 603 426.36328125 609.5 c 128,-1,14
 438.36328125 616 438.36328125 616 454.36328125 616 c 0,15,16
 463.36328125 616 463.36328125 616 471.86328125 611.5 c 128,-1,17
 480.36328125 607 480.36328125 607 485.36328125 595 c 2,18,-1
 578.36328125 377 l 2,19,20
 583.36328125 366 583.36328125 366 589.86328125 354 c 128,-1,21
 596.36328125 342 596.36328125 342 602.36328125 342 c 256,22,23
 608.36328125 342 608.36328125 342 614.36328125 351.5 c 128,-1,24
 620.36328125 361 620.36328125 361 627.36328125 377 c 2,25,-1
 727.36328125 600 l 2,26,27
 732.36328125 611 732.36328125 611 742.36328125 613.5 c 128,-1,28
 752.36328125 616 752.36328125 616 759.36328125 616 c 0,29,30
 772.36328125 616 772.36328125 616 781.86328125 609 c 128,-1,31
 791.36328125 602 791.36328125 602 796.86328125 592 c 128,-1,32
 802.36328125 582 802.36328125 582 803.86328125 571 c 128,-1,33
 805.36328125 560 805.36328125 560 801.36328125 552 c 2,34,-1
 676.36328125 281 l 2,35,36
 669.36328125 266 669.36328125 266 665.36328125 255.5 c 128,-1,37
 661.36328125 245 661.36328125 245 659.86328125 234 c 128,-1,38
 658.36328125 223 658.36328125 223 657.86328125 209.5 c 128,-1,39
 657.36328125 196 657.36328125 196 657.36328125 174 c 2,40,-1
 657.36328125 52 l 2,41,42
 657.36328125 37 657.36328125 37 651.86328125 27 c 128,-1,43
 646.36328125 17 646.36328125 17 637.86328125 11 c 128,-1,44
 629.36328125 5 629.36328125 5 619.36328125 2.5 c 128,-1,45
 609.36328125 0 609.36328125 0 600.36328125 0 c 0,0,1
428.36328125 551 m 0,46,47
 426.36328125 559 426.36328125 559 426.86328125 564.5 c 128,-1,48
 427.36328125 570 427.36328125 570 426.36328125 575 c 256,49,50
 425.36328125 580 425.36328125 580 423.36328125 584 c 128,-1,51
 421.36328125 588 421.36328125 588 419.36328125 587 c 0,52,53
 408.36328125 582 408.36328125 582 409.86328125 568 c 128,-1,54
 411.36328125 554 411.36328125 554 414.36328125 546 c 0,55,56
 419.36328125 535 419.36328125 535 426.36328125 537 c 0,57,58
 430.36328125 539 430.36328125 539 430.36328125 543 c 128,-1,59
 430.36328125 547 430.36328125 547 428.36328125 551 c 0,46,47
584.36328125 33 m 0,60,61
 582.36328125 37 582.36328125 37 578.86328125 47 c 128,-1,62
 575.36328125 57 575.36328125 57 573.36328125 74 c 0,63,64
 572.36328125 97 572.36328125 97 568.36328125 97 c 0,65,66
 567.36328125 97 567.36328125 97 565.36328125 93.5 c 128,-1,67
 563.36328125 90 563.36328125 90 562.36328125 81 c 0,68,69
 560.36328125 49 560.36328125 49 567.86328125 35 c 128,-1,70
 575.36328125 21 575.36328125 21 584.36328125 21 c 0,71,72
 588.36328125 21 588.36328125 21 587.36328125 24.5 c 128,-1,73
 586.36328125 28 586.36328125 28 584.36328125 33 c 0,60,61
EndSplineSet

EndChar

StartChar: Z
Encoding: 90 90 66
Width: 1200
Flags: W
LayerCount: 2
Fore
SplineSet
499.5 0 m 2,0,1
 488.5 0 488.5 0 476 2.5 c 128,-1,2
 463.5 5 463.5 5 453.5 11.5 c 128,-1,3
 443.5 18 443.5 18 437 28.5 c 128,-1,4
 430.5 39 430.5 39 430.5 55 c 0,5,6
 430.5 65 430.5 65 432 76 c 128,-1,7
 433.5 87 433.5 87 441.5 102 c 2,8,-1
 522.5 262 l 1,9,-1
 498.5 262 l 2,10,11
 483.5 262 483.5 262 475.5 273 c 128,-1,12
 467.5 284 467.5 284 467.5 301 c 256,13,14
 467.5 318 467.5 318 474 328 c 128,-1,15
 480.5 338 480.5 338 498.5 338 c 2,16,-1
 560.5 338 l 1,17,-1
 649.5 513 l 2,18,19
 652.5 519 652.5 519 652.5 525 c 0,20,21
 651.5 531 651.5 531 641.5 531 c 2,22,-1
 463.5 533 l 2,23,24
 450.5 533 450.5 533 442 543.5 c 128,-1,25
 433.5 554 433.5 554 433.5 569 c 0,26,27
 433.5 598 433.5 598 448 608 c 128,-1,28
 462.5 618 462.5 618 481.5 618 c 2,29,-1
 727.5 616 l 2,30,31
 739.5 616 739.5 616 747.5 609.5 c 128,-1,32
 755.5 603 755.5 603 760 593.5 c 128,-1,33
 764.5 584 764.5 584 766.5 572 c 128,-1,34
 768.5 560 768.5 560 768.5 548 c 0,35,36
 768.5 518 768.5 518 753.5 488 c 2,37,-1
 674.5 338 l 1,38,-1
 704.5 338 l 2,39,40
 722.5 338 722.5 338 730 329.5 c 128,-1,41
 737.5 321 737.5 321 737.5 307 c 0,42,43
 737.5 287 737.5 287 731 274.5 c 128,-1,44
 724.5 262 724.5 262 708.5 262 c 2,45,-1
 634.5 262 l 1,46,-1
 579.5 158 l 2,47,48
 567.5 135 567.5 135 561 121.5 c 128,-1,49
 554.5 108 554.5 108 554.5 100 c 0,50,51
 554.5 87 554.5 87 582.5 87 c 2,52,-1
 730.5 86 l 2,53,54
 750.5 86 750.5 86 760 72 c 128,-1,55
 769.5 58 769.5 58 769.5 35 c 0,56,57
 769.5 21 769.5 21 760 10.5 c 128,-1,58
 750.5 0 750.5 0 742.5 0 c 2,59,-1
 499.5 0 l 2,0,1
463.5 574 m 0,60,61
 465.5 578 465.5 578 469.5 585 c 128,-1,62
 473.5 592 473.5 592 472.5 595 c 0,63,64
 472.5 597 472.5 597 469 599.5 c 128,-1,65
 465.5 602 465.5 602 463.5 602 c 0,66,67
 452.5 600 452.5 600 449.5 586 c 128,-1,68
 446.5 572 446.5 572 448.5 560 c 0,69,70
 448.5 558 448.5 558 450.5 555 c 128,-1,71
 452.5 552 452.5 552 454.5 552 c 0,72,73
 458.5 553 458.5 553 460.5 562.5 c 128,-1,74
 462.5 572 462.5 572 463.5 574 c 0,60,61
490.5 306 m 0,75,76
 490.5 311 490.5 311 493.5 318.5 c 128,-1,77
 496.5 326 496.5 326 491.5 326 c 256,78,79
 486.5 326 486.5 326 481.5 318.5 c 128,-1,80
 476.5 311 476.5 311 476.5 300 c 0,81,82
 476.5 293 476.5 293 479 285.5 c 128,-1,83
 481.5 278 481.5 278 486.5 278 c 256,84,85
 491.5 278 491.5 278 491 287.5 c 128,-1,86
 490.5 297 490.5 297 490.5 306 c 0,75,76
456.5 49 m 0,87,88
 460.5 49 460.5 49 464.5 57.5 c 128,-1,89
 468.5 66 468.5 66 472.5 77.5 c 128,-1,90
 476.5 89 476.5 89 479 100.5 c 128,-1,91
 481.5 112 481.5 112 481.5 117 c 0,92,93
 481.5 121 481.5 121 477.5 121 c 0,94,95
 472.5 121 472.5 121 467.5 114 c 128,-1,96
 462.5 107 462.5 107 458 99 c 128,-1,97
 453.5 91 453.5 91 450.5 82.5 c 128,-1,98
 447.5 74 447.5 74 447.5 71 c 0,99,100
 446.5 63 446.5 63 449 56 c 128,-1,101
 451.5 49 451.5 49 456.5 49 c 0,87,88
471.5 27 m 0,102,103
 471.5 34 471.5 34 466.5 34 c 0,104,105
 457.5 34 457.5 34 457.5 25 c 0,106,107
 457.5 19 457.5 19 462.5 19 c 0,108,109
 465.5 19 465.5 19 468.5 21.5 c 128,-1,110
 471.5 24 471.5 24 471.5 27 c 0,102,103
EndSplineSet
EndChar

StartChar: a
Encoding: 97 97 67
Width: 1200
Flags: W
LayerCount: 2
Fore
SplineSet
606 621 m 0,0,1
 638 621 638 621 659 611 c 128,-1,2
 680 601 680 601 688 587 c 0,3,4
 694 575 694 575 705.5 534 c 128,-1,5
 717 493 717 493 730.5 437 c 128,-1,6
 744 381 744 381 758.5 318 c 128,-1,7
 773 255 773 255 785 199 c 128,-1,8
 797 143 797 143 804.5 101.5 c 128,-1,9
 812 60 812 60 812 48 c 0,10,11
 812 28 812 28 791 12.5 c 128,-1,12
 770 -3 770 -3 746 -3 c 256,13,14
 722 -3 722 -3 713 11 c 0,15,16
 709 17 709 17 703 32 c 128,-1,17
 697 47 697 47 691 67 c 128,-1,18
 685 87 685 87 679.5 109 c 128,-1,19
 674 131 674 131 670 152 c 0,20,21
 666 172 666 172 658.5 176.5 c 128,-1,22
 651 181 651 181 641 181 c 0,23,24
 612 181 612 181 590 181.5 c 128,-1,25
 568 182 568 182 557 182 c 0,26,27
 537 182 537 182 527.5 177.5 c 128,-1,28
 518 173 518 173 515 162 c 2,29,-1
 489 62 l 2,30,31
 481 33 481 33 463.5 15.5 c 128,-1,32
 446 -2 446 -2 424 -2 c 0,33,34
 388 -2 388 -2 388 48 c 0,35,36
 388 65 388 65 392 95.5 c 128,-1,37
 396 126 396 126 402.5 164.5 c 128,-1,38
 409 203 409 203 418.5 246.5 c 128,-1,39
 428 290 428 290 438.5 334.5 c 128,-1,40
 449 379 449 379 460 421 c 128,-1,41
 471 463 471 463 482 497 c 0,42,43
 494 535 494 535 506.5 559 c 128,-1,44
 519 583 519 583 533 597 c 128,-1,45
 547 611 547 611 564.5 616 c 128,-1,46
 582 621 582 621 606 621 c 0,0,1
545 561 m 0,47,48
 556 574 556 574 565 585.5 c 128,-1,49
 574 597 574 597 567 598 c 0,50,51
 551 601 551 601 535 579 c 0,52,53
 524 562 524 562 519 543 c 128,-1,54
 514 524 514 524 522 522 c 0,55,56
 524 522 524 522 526 525.5 c 128,-1,57
 528 529 528 529 530 535 c 128,-1,58
 532 541 532 541 535.5 548 c 128,-1,59
 539 555 539 555 545 561 c 0,47,48
561 377 m 0,60,61
 550 320 550 320 546.5 298.5 c 128,-1,62
 543 277 543 277 552 277 c 2,63,-1
 640 277 l 2,64,65
 648 277 648 277 644 296.5 c 128,-1,66
 640 316 640 316 632 357 c 0,67,68
 630 368 630 368 627 393.5 c 128,-1,69
 624 419 624 419 619.5 445 c 128,-1,70
 615 471 615 471 610 491.5 c 128,-1,71
 605 512 605 512 599 512 c 0,72,73
 594 512 594 512 588 494 c 128,-1,74
 582 476 582 476 576.5 452.5 c 128,-1,75
 571 429 571 429 567 407 c 128,-1,76
 563 385 563 385 561 377 c 0,60,61
420 63 m 0,77,78
 422 75 422 75 420 82 c 128,-1,79
 418 89 418 89 414 90 c 0,80,81
 412 90 412 90 409.5 87.5 c 128,-1,82
 407 85 407 85 405 77 c 0,83,84
 401 57 401 57 404 38.5 c 128,-1,85
 407 20 407 20 415 18 c 0,86,87
 425 16 425 16 419 33 c 0,88,89
 417 39 417 39 417.5 46.5 c 128,-1,90
 418 54 418 54 420 63 c 0,77,78
725 64 m 0,91,92
 718 78 718 78 716 83 c 128,-1,93
 714 88 714 88 712 88 c 0,94,95
 709 88 709 88 707 78 c 0,96,97
 707 74 707 74 709.5 63.5 c 128,-1,98
 712 53 712 53 716 42.5 c 128,-1,99
 720 32 720 32 725.5 24 c 128,-1,100
 731 16 731 16 736 16 c 0,101,102
 739 16 739 16 739 21 c 128,-1,103
 739 26 739 26 736.5 34 c 128,-1,104
 734 42 734 42 731 50 c 128,-1,105
 728 58 728 58 725 64 c 0,91,92
EndSplineSet
EndChar

StartChar: b
Encoding: 98 98 68
Width: 1200
Flags: W
LayerCount: 2
Fore
SplineSet
319.5 566 m 0,0,1
 403.5 566 403.5 566 453.5 539 c 128,-1,2
 503.5 512 503.5 512 537.5 469 c 1,3,-1
 557.5 428 l 1,4,-1
 569.5 266 l 1,5,-1
 569.5 0 l 1,6,-1
 483.5 0 l 1,7,-1
 483.5 306 l 2,8,9
 483.5 365 483.5 365 473 400 c 128,-1,10
 462.5 435 462.5 435 439.5 456 c 0,11,12
 418.5 475 418.5 475 391 484.5 c 128,-1,13
 363.5 494 363.5 494 318.5 494 c 0,14,15
 246.5 494 246.5 494 194 460.5 c 128,-1,16
 141.5 427 141.5 427 113 369.5 c 128,-1,17
 84.5 312 84.5 312 84.5 239 c 2,18,-1
 84.5 228 l 2,19,20
 84.5 172 84.5 172 99.5 134 c 128,-1,21
 114.5 96 114.5 96 141 77 c 128,-1,22
 167.5 58 167.5 58 203.5 58 c 0,23,24
 228.5 58 228.5 58 247.5 69.5 c 128,-1,25
 266.5 81 266.5 81 277.5 103 c 128,-1,26
 288.5 125 288.5 125 288.5 157 c 0,27,28
 288.5 207 288.5 207 262.5 232.5 c 128,-1,29
 236.5 258 236.5 258 194.5 258 c 0,30,31
 155.5 258 155.5 258 120.5 238 c 128,-1,32
 85.5 218 85.5 218 56.5 186 c 1,33,-1
 41.5 248 l 1,34,35
 70.5 284 70.5 284 115.5 306 c 128,-1,36
 160.5 328 160.5 328 209.5 328 c 0,37,38
 257.5 328 257.5 328 294 309 c 128,-1,39
 330.5 290 330.5 290 351 253.5 c 128,-1,40
 371.5 217 371.5 217 371.5 165 c 0,41,42
 371.5 110 371.5 110 350.5 70 c 128,-1,43
 329.5 30 329.5 30 291.5 9 c 128,-1,44
 253.5 -12 253.5 -12 201.5 -12 c 256,45,46
 149.5 -12 149.5 -12 104 14 c 128,-1,47
 58.5 40 58.5 40 31 96 c 128,-1,48
 3.5 152 3.5 152 3.5 241 c 0,49,50
 3.5 347 3.5 347 46 419 c 128,-1,51
 88.5 491 88.5 491 160 528.5 c 128,-1,52
 231.5 566 231.5 566 319.5 566 c 0,0,1
1196.5 554 m 1,53,-1
 1196.5 0 l 1,54,-1
 782.5 0 l 1,55,-1
 746.5 54 l 1,56,57
 774.5 81 774.5 81 799 112.5 c 128,-1,58
 823.5 144 823.5 144 839.5 187 c 128,-1,59
 855.5 230 855.5 230 855.5 292 c 0,60,61
 855.5 350 855.5 350 836.5 395.5 c 128,-1,62
 817.5 441 817.5 441 783 467.5 c 128,-1,63
 748.5 494 748.5 494 701.5 494 c 0,64,65
 660.5 494 660.5 494 634.5 479.5 c 128,-1,66
 608.5 465 608.5 465 591.5 436 c 0,67,68
 579.5 414 579.5 414 574.5 382 c 128,-1,69
 569.5 350 569.5 350 569.5 285 c 2,70,-1
 569.5 0 l 1,71,-1
 483.5 0 l 1,72,-1
 483.5 258 l 1,73,-1
 532.5 422 l 1,74,-1
 527.5 477 l 1,75,76
 557.5 524 557.5 524 599.5 545 c 128,-1,77
 641.5 566 641.5 566 702.5 566 c 0,78,79
 779.5 566 779.5 566 833.5 529.5 c 128,-1,80
 887.5 493 887.5 493 915.5 431 c 128,-1,81
 943.5 369 943.5 369 943.5 292 c 0,82,83
 943.5 236 943.5 236 931.5 194 c 128,-1,84
 919.5 152 919.5 152 900.5 120 c 128,-1,85
 881.5 88 881.5 88 858.5 61 c 1,86,-1
 838.5 70 l 1,87,-1
 1110.5 70 l 1,88,-1
 1110.5 554 l 1,89,-1
 1196.5 554 l 1,53,-1
EndSplineSet
EndChar

StartChar: c
Encoding: 99 99 69
Width: 1200
Flags: W
LayerCount: 2
Fore
SplineSet
669 -10 m 4,0,1
 551 -10 551 -10 486 57 c 132,-1,2
 421 124 421 124 421 245 c 4,3,4
 421 325 421 325 450 380.5 c 132,-1,5
 479 436 479 436 533 465 c 5,6,-1
 374 465 l 5,7,-1
 374 537 l 5,8,-1
 826 537 l 5,9,-1
 826 465 l 5,10,-1
 713 465 l 6,11,12
 619 465 619 465 565.5 411.5 c 132,-1,13
 512 358 512 358 512 252 c 4,14,15
 512 165 512 165 555 114.5 c 132,-1,16
 598 64 598 64 678 64 c 4,17,18
 715 64 715 64 749 73.5 c 132,-1,19
 783 83 783 83 815 99 c 5,20,-1
 815 21 l 5,21,22
 786 5 786 5 751 -2.5 c 132,-1,23
 716 -10 716 -10 669 -10 c 4,0,1
EndSplineSet
EndChar

StartChar: d
Encoding: 100 100 70
Width: 1200
Flags: W
LayerCount: 2
Fore
SplineSet
584.5 -12 m 4,0,1
 540.5 -12 540.5 -12 504.5 2.5 c 132,-1,2
 468.5 17 468.5 17 443.5 47 c 4,3,4
 430.5 63 430.5 63 418.5 85 c 132,-1,5
 406.5 107 406.5 107 399.5 146 c 132,-1,6
 392.5 185 392.5 185 392.5 251 c 6,7,-1
 392.5 285 l 6,8,9
 392.5 340 392.5 340 387.5 381.5 c 132,-1,10
 382.5 423 382.5 423 365.5 448 c 4,11,12
 352.5 469 352.5 469 329.5 481.5 c 132,-1,13
 306.5 494 306.5 494 262.5 494 c 260,14,15
 218.5 494 218.5 494 185 468.5 c 132,-1,16
 151.5 443 151.5 443 133.5 397 c 132,-1,17
 115.5 351 115.5 351 115.5 289 c 4,18,19
 115.5 233 115.5 233 131 188 c 132,-1,20
 146.5 143 146.5 143 173.5 109.5 c 132,-1,21
 200.5 76 200.5 76 235.5 51 c 5,22,-1
 182.5 -11 l 5,23,24
 132.5 29 132.5 29 97.5 73 c 132,-1,25
 62.5 117 62.5 117 45 171 c 132,-1,26
 27.5 225 27.5 225 27.5 292 c 4,27,28
 27.5 378 27.5 378 56.5 439.5 c 132,-1,29
 85.5 501 85.5 501 139.5 533.5 c 132,-1,30
 193.5 566 193.5 566 266.5 566 c 4,31,32
 323.5 566 323.5 566 362.5 549.5 c 132,-1,33
 401.5 533 401.5 533 427.5 503 c 4,34,35
 446.5 481 446.5 481 458 454.5 c 132,-1,36
 469.5 428 469.5 428 474.5 393 c 132,-1,37
 479.5 358 479.5 358 479.5 308 c 6,38,-1
 479.5 259 l 6,39,40
 479.5 189 479.5 189 487 152 c 132,-1,41
 494.5 115 494.5 115 512.5 94 c 4,42,43
 526.5 78 526.5 78 546.5 69 c 132,-1,44
 566.5 60 566.5 60 596.5 60 c 4,45,46
 624.5 60 624.5 60 645.5 70 c 132,-1,47
 666.5 80 666.5 80 680.5 97 c 4,48,49
 697.5 118 697.5 118 705.5 151 c 132,-1,50
 713.5 184 713.5 184 713.5 245 c 6,51,-1
 713.5 554 l 5,52,-1
 799.5 554 l 5,53,-1
 799.5 262 l 6,54,55
 799.5 206 799.5 206 804 173.5 c 132,-1,56
 808.5 141 808.5 141 821.5 118 c 4,57,58
 838.5 89 838.5 89 865 74.5 c 132,-1,59
 891.5 60 891.5 60 927.5 60 c 4,60,61
 973.5 60 973.5 60 1009 86.5 c 132,-1,62
 1044.5 113 1044.5 113 1064.5 159 c 132,-1,63
 1084.5 205 1084.5 205 1084.5 263 c 4,64,65
 1084.5 324 1084.5 324 1068.5 368.5 c 132,-1,66
 1052.5 413 1052.5 413 1025 445.5 c 132,-1,67
 997.5 478 997.5 478 964.5 500 c 5,68,-1
 1022.5 563 l 5,69,70
 1065.5 528 1065.5 528 1099.5 486.5 c 132,-1,71
 1133.5 445 1133.5 445 1153 390.5 c 132,-1,72
 1172.5 336 1172.5 336 1172.5 263 c 4,73,74
 1172.5 187 1172.5 187 1143.5 124.5 c 132,-1,75
 1114.5 62 1114.5 62 1059 25 c 132,-1,76
 1003.5 -12 1003.5 -12 923.5 -12 c 4,77,78
 858.5 -12 858.5 -12 819.5 13.5 c 132,-1,79
 780.5 39 780.5 39 752.5 82 c 5,80,-1
 757.5 81 l 5,81,82
 729.5 34 729.5 34 686.5 11 c 132,-1,83
 643.5 -12 643.5 -12 584.5 -12 c 4,0,1
EndSplineSet
EndChar

StartChar: e
Encoding: 101 101 71
Width: 1200
Flags: W
LayerCount: 2
Fore
SplineSet
616.83984375 -10 m 0,0,1
 571.83984375 -10 571.83984375 -10 535.33984375 11.5 c 128,-1,2
 498.83984375 33 498.83984375 33 472.83984375 73 c 128,-1,3
 446.83984375 113 446.83984375 113 432.33984375 168.5 c 128,-1,4
 417.83984375 224 417.83984375 224 417.83984375 292 c 0,5,6
 417.83984375 364 417.83984375 364 433.83984375 424.5 c 128,-1,7
 449.83984375 485 449.83984375 485 478.33984375 529.5 c 128,-1,8
 506.83984375 574 506.83984375 574 546.33984375 598.5 c 128,-1,9
 585.83984375 623 585.83984375 623 631.83984375 623 c 0,10,11
 665.83984375 623 665.83984375 623 694.33984375 610 c 128,-1,12
 722.83984375 597 722.83984375 597 742.83984375 573.5 c 128,-1,13
 762.83984375 550 762.83984375 550 773.33984375 518.5 c 128,-1,14
 783.83984375 487 783.83984375 487 781.83984375 450 c 0,15,16
 779.83984375 407 779.83984375 407 761.83984375 366.5 c 128,-1,17
 743.83984375 326 743.83984375 326 713.83984375 295 c 128,-1,18
 683.83984375 264 683.83984375 264 644.33984375 245.5 c 128,-1,19
 604.83984375 227 604.83984375 227 559.83984375 227 c 0,20,21
 542.83984375 227 542.83984375 227 542.83984375 213 c 0,22,23
 542.83984375 149 542.83984375 149 565.33984375 118.5 c 128,-1,24
 587.83984375 88 587.83984375 88 622.83984375 88 c 0,25,26
 648.83984375 88 648.83984375 88 666.33984375 107 c 128,-1,27
 683.83984375 126 683.83984375 126 683.83984375 155 c 0,28,29
 683.83984375 179 683.83984375 179 696.83984375 193.5 c 128,-1,30
 709.83984375 208 709.83984375 208 729.83984375 208 c 0,31,32
 752.83984375 208 752.83984375 208 766.33984375 189.5 c 128,-1,33
 779.83984375 171 779.83984375 171 779.83984375 139 c 0,34,35
 779.83984375 109 779.83984375 109 766.83984375 81.5 c 128,-1,36
 753.83984375 54 753.83984375 54 731.83984375 34 c 128,-1,37
 709.83984375 14 709.83984375 14 679.83984375 2 c 128,-1,38
 649.83984375 -10 649.83984375 -10 616.83984375 -10 c 0,0,1
486.83984375 477 m 0,39,40
 489.83984375 477 489.83984375 477 499.33984375 491.5 c 128,-1,41
 508.83984375 506 508.83984375 506 521.83984375 523.5 c 128,-1,42
 534.83984375 541 534.83984375 541 549.83984375 556.5 c 128,-1,43
 564.83984375 572 564.83984375 572 579.83984375 573 c 0,44,45
 584.83984375 574 584.83984375 574 589.33984375 576.5 c 128,-1,46
 593.83984375 579 593.83984375 579 592.83984375 582 c 0,47,48
 592.83984375 592 592.83984375 592 579.83984375 590 c 0,49,50
 562.83984375 589 562.83984375 589 545.33984375 576 c 128,-1,51
 527.83984375 563 527.83984375 563 513.33984375 545.5 c 128,-1,52
 498.83984375 528 498.83984375 528 489.83984375 510 c 128,-1,53
 480.83984375 492 480.83984375 492 481.83984375 481 c 0,54,55
 483.83984375 474 483.83984375 474 486.83984375 477 c 0,39,40
539.83984375 315 m 0,56,57
 542.83984375 311 542.83984375 311 553.83984375 311 c 0,58,59
 579.83984375 311 579.83984375 311 603.83984375 324 c 128,-1,60
 627.83984375 337 627.83984375 337 645.83984375 357 c 128,-1,61
 663.83984375 377 663.83984375 377 674.83984375 403 c 128,-1,62
 685.83984375 429 685.83984375 429 685.83984375 454 c 0,63,64
 685.83984375 486 685.83984375 486 670.33984375 507 c 128,-1,65
 654.83984375 528 654.83984375 528 631.83984375 528 c 0,66,67
 614.83984375 528 614.83984375 528 600.33984375 513.5 c 128,-1,68
 585.83984375 499 585.83984375 499 574.33984375 477.5 c 128,-1,69
 562.83984375 456 562.83984375 456 554.83984375 429.5 c 128,-1,70
 546.83984375 403 546.83984375 403 542.33984375 379.5 c 128,-1,71
 537.83984375 356 537.83984375 356 536.83984375 338 c 128,-1,72
 535.83984375 320 535.83984375 320 539.83984375 315 c 0,56,57
473.83984375 467 m 0,73,74
 468.83984375 466 468.83984375 466 465.83984375 459.5 c 128,-1,75
 462.83984375 453 462.83984375 453 463.83984375 445 c 0,76,77
 465.83984375 436 465.83984375 436 467.83984375 437 c 0,78,79
 472.83984375 437 472.83984375 437 476.83984375 446 c 128,-1,80
 480.83984375 455 480.83984375 455 478.83984375 462 c 0,81,82
 476.83984375 468 476.83984375 468 473.83984375 467 c 0,73,74
EndSplineSet
EndChar

StartChar: f
Encoding: 102 102 72
Width: 1200
Flags: W
LayerCount: 2
Fore
SplineSet
280 346 m 4,0,1
 348 346 348 346 391.5 320.5 c 132,-1,2
 435 295 435 295 456.5 255.5 c 132,-1,3
 478 216 478 216 478 173 c 4,4,5
 478 133 478 133 465 102 c 132,-1,6
 452 71 452 71 433 57 c 5,7,-1
 408 70 l 5,8,-1
 685 70 l 5,9,-1
 685 0 l 5,10,-1
 379 0 l 5,11,-1
 350 52 l 5,12,13
 370 72 370 72 382 96.5 c 132,-1,14
 394 121 394 121 394 158 c 4,15,16
 394 212 394 212 365 244 c 132,-1,17
 336 276 336 276 280 276 c 4,18,19
 245 276 245 276 219.5 260.5 c 132,-1,20
 194 245 194 245 180.5 220 c 132,-1,21
 167 195 167 195 167 164 c 4,22,23
 167 130 167 130 181 101.5 c 132,-1,24
 195 73 195 73 226 51 c 5,25,-1
 180 -7 l 5,26,27
 137 23 137 23 110 66 c 132,-1,28
 83 109 83 109 83 166 c 4,29,30
 83 219 83 219 107.5 259.5 c 132,-1,31
 132 300 132 300 176.5 323 c 132,-1,32
 221 346 221 346 280 346 c 4,0,1
867 566 m 4,33,34
 929 566 929 566 975 549 c 132,-1,35
 1021 532 1021 532 1052 501 c 4,36,37
 1086 468 1086 468 1101.5 419 c 132,-1,38
 1117 370 1117 370 1117 292 c 6,39,-1
 1117 0 l 5,40,-1
 624 0 l 5,41,-1
 624 292 l 6,42,43
 624 347 624 347 631 385.5 c 132,-1,44
 638 424 638 424 652.5 452 c 132,-1,45
 667 480 667 480 689 502 c 4,46,47
 720 532 720 532 764.5 549 c 132,-1,48
 809 566 809 566 867 566 c 4,33,34
868 494 m 4,49,50
 831 494 831 494 802.5 482.5 c 132,-1,51
 774 471 774 471 754 451 c 4,52,53
 733 429 733 429 721.5 391.5 c 132,-1,54
 710 354 710 354 710 279 c 6,55,-1
 710 70 l 5,56,-1
 1031 70 l 5,57,-1
 1031 271 l 6,58,59
 1031 345 1031 345 1019 387 c 132,-1,60
 1007 429 1007 429 985 451 c 4,61,62
 965 471 965 471 937 482.5 c 132,-1,63
 909 494 909 494 868 494 c 4,49,50
EndSplineSet
EndChar

StartChar: g
Encoding: 103 103 73
Width: 1200
Flags: W
LayerCount: 2
Fore
SplineSet
619.5 -5 m 0,0,1
 552.5 -5 552.5 -5 508.5 28 c 128,-1,2
 464.5 61 464.5 61 438.5 111 c 128,-1,3
 412.5 161 412.5 161 402.5 219 c 128,-1,4
 392.5 277 392.5 277 392.5 328 c 0,5,6
 392.5 384 392.5 384 404 437.5 c 128,-1,7
 415.5 491 415.5 491 442.5 532.5 c 128,-1,8
 469.5 574 469.5 574 513 599.5 c 128,-1,9
 556.5 625 556.5 625 620.5 625 c 0,10,11
 651.5 625 651.5 625 680 616.5 c 128,-1,12
 708.5 608 708.5 608 730.5 589.5 c 128,-1,13
 752.5 571 752.5 571 765.5 540.5 c 128,-1,14
 778.5 510 778.5 510 778.5 466 c 0,15,16
 778.5 450 778.5 450 772 440.5 c 128,-1,17
 765.5 431 765.5 431 756 425.5 c 128,-1,18
 746.5 420 746.5 420 736.5 418.5 c 128,-1,19
 726.5 417 726.5 417 720.5 417 c 0,20,21
 706.5 417 706.5 417 694 427 c 128,-1,22
 681.5 437 681.5 437 681.5 466 c 0,23,24
 681.5 511 681.5 511 661 529 c 128,-1,25
 640.5 547 640.5 547 611.5 547 c 0,26,27
 591.5 547 591.5 547 573 530.5 c 128,-1,28
 554.5 514 554.5 514 540.5 483.5 c 128,-1,29
 526.5 453 526.5 453 518.5 410 c 128,-1,30
 510.5 367 510.5 367 510.5 314 c 0,31,32
 510.5 285 510.5 285 514 245 c 128,-1,33
 517.5 205 517.5 205 529.5 169 c 128,-1,34
 541.5 133 541.5 133 563.5 107.5 c 128,-1,35
 585.5 82 585.5 82 621.5 82 c 0,36,37
 650.5 82 650.5 82 667 96.5 c 128,-1,38
 683.5 111 683.5 111 691 132 c 128,-1,39
 698.5 153 698.5 153 700 175.5 c 128,-1,40
 701.5 198 701.5 198 700.5 214 c 256,41,42
 699.5 230 699.5 230 687 231.5 c 128,-1,43
 674.5 233 674.5 233 651.5 233 c 2,44,-1
 600.5 233 l 2,45,46
 594.5 233 594.5 233 589.5 239 c 128,-1,47
 584.5 245 584.5 245 581.5 253.5 c 128,-1,48
 578.5 262 578.5 262 576.5 271 c 128,-1,49
 574.5 280 574.5 280 574.5 286 c 0,50,51
 574.5 302 574.5 302 585 314.5 c 128,-1,52
 595.5 327 595.5 327 618.5 327 c 2,53,-1
 726.5 326 l 2,54,55
 757.5 326 757.5 326 782.5 306 c 128,-1,56
 807.5 286 807.5 286 807.5 249 c 0,57,58
 807.5 206 807.5 206 798 161 c 128,-1,59
 788.5 116 788.5 116 766.5 79 c 128,-1,60
 744.5 42 744.5 42 708.5 18.5 c 128,-1,61
 672.5 -5 672.5 -5 619.5 -5 c 0,0,1
524.5 58 m 0,62,63
 524.5 62 524.5 62 504.5 84 c 0,64,65
 495.5 93 495.5 93 486.5 106.5 c 128,-1,66
 477.5 120 477.5 120 470 133 c 128,-1,67
 462.5 146 462.5 146 458 157.5 c 128,-1,68
 453.5 169 453.5 169 453.5 173 c 0,69,70
 453.5 178 453.5 178 450.5 179.5 c 128,-1,71
 447.5 181 447.5 181 446.5 181 c 0,72,73
 438.5 181 438.5 181 438.5 170 c 256,74,75
 438.5 159 438.5 159 447.5 139 c 128,-1,76
 456.5 119 456.5 119 469 99.5 c 128,-1,77
 481.5 80 481.5 80 495 66 c 128,-1,78
 508.5 52 508.5 52 518.5 52 c 0,79,80
 524.5 52 524.5 52 524.5 58 c 0,62,63
547.5 45 m 0,81,82
 547.5 52 547.5 52 540.5 52 c 0,83,84
 536.5 52 536.5 52 535 49 c 128,-1,85
 533.5 46 533.5 46 533.5 44 c 0,86,87
 533.5 39 533.5 39 536 38 c 128,-1,88
 538.5 37 538.5 37 540.5 37 c 0,89,90
 547.5 37 547.5 37 547.5 45 c 0,81,82
EndSplineSet
EndChar

StartChar: h
Encoding: 104 104 74
Width: 1200
Flags: W
LayerCount: 2
Fore
SplineSet
472.509765625 0 m 0,0,1
 447.509765625 0 447.509765625 0 437.509765625 14.5 c 128,-1,2
 427.509765625 29 427.509765625 29 427.509765625 65 c 2,3,-1
 427.509765625 343 l 2,4,5
 427.509765625 434 427.509765625 434 425.509765625 518 c 0,6,7
 424.509765625 616 424.509765625 616 475.509765625 616 c 0,8,9
 494.509765625 616 494.509765625 616 512.509765625 606.5 c 128,-1,10
 530.509765625 597 530.509765625 597 530.509765625 571 c 2,11,-1
 530.509765625 358 l 2,12,13
 530.509765625 318 530.509765625 318 534.509765625 318 c 256,14,15
 538.509765625 318 538.509765625 318 543.509765625 334 c 128,-1,16
 548.509765625 350 548.509765625 350 560.509765625 369.5 c 128,-1,17
 572.509765625 389 572.509765625 389 594.509765625 405 c 128,-1,18
 616.509765625 421 616.509765625 421 652.509765625 421 c 0,19,20
 716.509765625 421 716.509765625 421 745.509765625 358 c 128,-1,21
 774.509765625 295 774.509765625 295 774.509765625 157 c 2,22,-1
 774.509765625 31 l 2,23,24
 774.509765625 0 774.509765625 0 718.509765625 0 c 0,25,26
 691.509765625 0 691.509765625 0 679.509765625 11.5 c 128,-1,27
 667.509765625 23 667.509765625 23 667.509765625 34 c 2,28,-1
 667.509765625 148 l 2,29,30
 667.509765625 200 667.509765625 200 664.509765625 232 c 128,-1,31
 661.509765625 264 661.509765625 264 655.509765625 282 c 128,-1,32
 649.509765625 300 649.509765625 300 640.009765625 306.5 c 128,-1,33
 630.509765625 313 630.509765625 313 616.509765625 313 c 0,34,35
 595.509765625 313 595.509765625 313 580.009765625 293.5 c 128,-1,36
 564.509765625 274 564.509765625 274 554.509765625 241 c 128,-1,37
 544.509765625 208 544.509765625 208 540.009765625 163.5 c 0,38,39
 535.509765625 123 535.509765625 123 535.509765625 121 c 2,40,-1
 535.509765625 45 l 2,41,42
 535.509765625 30 535.509765625 30 528.009765625 21 c 128,-1,43
 520.509765625 12 520.509765625 12 510.509765625 7.5 c 128,-1,44
 500.509765625 3 500.509765625 3 490.009765625 1.5 c 128,-1,45
 479.509765625 0 479.509765625 0 472.509765625 0 c 0,0,1
447.509765625 316 m 0,46,47
 450.509765625 316 450.509765625 316 452.509765625 328 c 128,-1,48
 454.509765625 340 454.509765625 340 456.509765625 355 c 128,-1,49
 458.509765625 370 458.509765625 370 459.509765625 482 c 128,-1,50
 460.509765625 594 460.509765625 594 460.509765625 595 c 0,51,52
 460.509765625 597 460.509765625 597 460.009765625 600 c 128,-1,53
 459.509765625 603 459.509765625 603 457.509765625 603 c 0,54,55
 452.509765625 603 452.509765625 603 449.009765625 595.5 c 128,-1,56
 445.509765625 588 445.509765625 588 443.509765625 479 c 128,-1,57
 441.509765625 370 441.509765625 370 440.509765625 360.5 c 128,-1,58
 439.509765625 351 439.509765625 351 439.509765625 348 c 0,59,60
 439.509765625 340 439.509765625 340 441.509765625 328 c 128,-1,61
 443.509765625 316 443.509765625 316 447.509765625 316 c 0,46,47
704.509765625 29 m 0,62,63
 704.509765625 35 704.509765625 35 702.509765625 38 c 128,-1,64
 700.509765625 41 700.509765625 41 698.009765625 43 c 128,-1,65
 695.509765625 45 695.509765625 45 693.509765625 49 c 128,-1,66
 691.509765625 53 691.509765625 53 691.509765625 60 c 0,67,68
 691.509765625 76 691.509765625 76 690.009765625 80 c 128,-1,69
 688.509765625 84 688.509765625 84 683.509765625 84 c 256,70,71
 678.509765625 84 678.509765625 84 677.009765625 76.5 c 128,-1,72
 675.509765625 69 675.509765625 69 675.509765625 59 c 0,73,74
 675.509765625 39 675.509765625 39 681.509765625 27 c 128,-1,75
 687.509765625 15 687.509765625 15 695.509765625 15 c 0,76,77
 698.509765625 15 698.509765625 15 701.509765625 18.5 c 128,-1,78
 704.509765625 22 704.509765625 22 704.509765625 29 c 0,62,63
471.509765625 26 m 0,79,80
 471.509765625 31 471.509765625 31 469.009765625 33.5 c 128,-1,81
 466.509765625 36 466.509765625 36 463.509765625 38.5 c 128,-1,82
 460.509765625 41 460.509765625 41 458.009765625 45 c 128,-1,83
 455.509765625 49 455.509765625 49 455.509765625 56 c 0,84,85
 455.509765625 77 455.509765625 77 448.509765625 77 c 0,86,87
 446.509765625 77 446.509765625 77 444.509765625 69.5 c 128,-1,88
 442.509765625 62 442.509765625 62 442.509765625 51 c 0,89,90
 442.509765625 36 442.509765625 36 449.009765625 24 c 128,-1,91
 455.509765625 12 455.509765625 12 463.509765625 12 c 0,92,93
 465.509765625 12 465.509765625 12 468.509765625 16 c 128,-1,94
 471.509765625 20 471.509765625 20 471.509765625 26 c 0,79,80
EndSplineSet
EndChar

StartChar: i
Encoding: 105 105 75
Width: 1200
Flags: W
LayerCount: 2
Fore
SplineSet
591.674804688 -4 m 256,0,1
 567.674804688 -4 567.674804688 -4 554.674804688 6.5 c 128,-1,2
 541.674804688 17 541.674804688 17 541.674804688 32 c 2,3,-1
 541.674804688 387 l 2,4,5
 541.674804688 396 541.674804688 396 544.174804688 408 c 128,-1,6
 546.674804688 420 546.674804688 420 552.174804688 430 c 128,-1,7
 557.674804688 440 557.674804688 440 567.174804688 447 c 128,-1,8
 576.674804688 454 576.674804688 454 591.674804688 454 c 256,9,10
 606.674804688 454 606.674804688 454 617.174804688 448 c 128,-1,11
 627.674804688 442 627.674804688 442 634.174804688 433 c 128,-1,12
 640.674804688 424 640.674804688 424 644.174804688 413 c 128,-1,13
 647.674804688 402 647.674804688 402 647.674804688 392 c 2,14,-1
 647.674804688 32 l 2,15,16
 647.674804688 16 647.674804688 16 631.674804688 6 c 128,-1,17
 615.674804688 -4 615.674804688 -4 591.674804688 -4 c 256,0,1
559.674804688 357 m 0,18,19
 562.674804688 357 562.674804688 357 563.674804688 363 c 128,-1,20
 564.674804688 369 564.674804688 369 564.674804688 377.5 c 128,-1,21
 564.674804688 386 564.674804688 386 565.174804688 395.5 c 128,-1,22
 565.674804688 405 565.674804688 405 567.674804688 411 c 0,23,24
 568.674804688 415 568.674804688 415 570.674804688 422 c 128,-1,25
 572.674804688 429 572.674804688 429 569.674804688 429 c 0,26,27
 564.674804688 429 564.674804688 429 561.174804688 423.5 c 128,-1,28
 557.674804688 418 557.674804688 418 555.174804688 410.5 c 128,-1,29
 552.674804688 403 552.674804688 403 551.674804688 395.5 c 128,-1,30
 550.674804688 388 550.674804688 388 550.674804688 383 c 0,31,32
 550.674804688 374 550.674804688 374 552.674804688 365.5 c 128,-1,33
 554.674804688 357 554.674804688 357 559.674804688 357 c 0,18,19
595.141601562 523.2265625 m 4,34,35
 559.674804688 523 559.674804688 523 534.676757812 552.055664062 c 132,-1,36
 509.674804688 581 509.674804688 581 509.51953125 626.186523438 c 4,37,38
 509.674804688 651 509.674804688 651 517.022460938 673.033203125 c 4,39,40
 524.674804688 695 524.674804688 695 537.765625 711.12890625 c 4,41,42
 550.674804688 727 550.674804688 727 569.54296875 736.868164062 c 4,43,44
 587.674804688 747 587.674804688 747 610.147460938 746.649414062 c 4,45,46
 627.674804688 747 627.674804688 747 642.806640625 737.8984375 c 4,47,48
 657.674804688 729 657.674804688 729 668.40625 713.702148438 c 4,49,50
 678.674804688 698 678.674804688 698 684.735351562 678.696289062 c 4,51,52
 690.674804688 659 690.674804688 659 690.473632812 637.51171875 c 4,53,54
 690.674804688 610 690.674804688 610 682.969726562 588.606445312 c 4,55,56
 675.674804688 567 675.674804688 567 662.2265625 553.083984375 c 132,-1,57
 648.674804688 539 648.674804688 539 631.7734375 530.948242188 c 4,58,59
 613.674804688 523 613.674804688 523 595.141601562 523.2265625 c 4,34,35
562.481445312 701.34765625 m 4,60,61
 568.674804688 709 568.674804688 709 569.984375 713.702148438 c 4,62,63
 571.674804688 719 571.674804688 719 569.54296875 718.850585938 c 4,64,65
 562.674804688 719 562.674804688 719 554.537109375 711.12890625 c 4,66,67
 546.674804688 703 546.674804688 703 539.97265625 692.595703125 c 4,68,69
 533.674804688 682 533.674804688 682 528.939453125 669.4296875 c 4,70,71
 523.674804688 654 523.674804688 654 524.525390625 646.778320312 c 4,72,73
 524.674804688 645 524.674804688 645 525.848632812 638.541015625 c 4,74,75
 526.674804688 632 526.674804688 632 529.822265625 632.36328125 c 4,76,77
 533.674804688 633 533.674804688 633 538.6484375 655.015625 c 4,78,79
 541.674804688 669 541.674804688 669 548.358398438 681.26953125 c 4,80,81
 554.674804688 693 554.674804688 693 562.481445312 701.34765625 c 4,60,61
598.671875 581.913085938 m 4,82,83
 609.674804688 582 609.674804688 582 623.829101562 596.328125 c 4,84,85
 638.674804688 611 638.674804688 611 638.393554688 637.51171875 c 4,86,87
 638.674804688 658 638.674804688 658 629.125976562 672.002929688 c 132,-1,88
 619.674804688 686 619.674804688 686 604.850585938 685.903320312 c 260,89,90
 589.674804688 686 589.674804688 686 577.487304688 672.002929688 c 4,91,92
 564.674804688 657 564.674804688 657 565.12890625 633.393554688 c 260,93,94
 565.674804688 609 565.674804688 609 574.838867188 595.298828125 c 4,95,96
 584.674804688 582 584.674804688 582 598.671875 581.913085938 c 4,82,83
EndSplineSet


EndChar

StartChar: j
Encoding: 106 106 76
Width: 1200
Flags: W
LayerCount: 2
Fore
SplineSet
636 559 m 256,0,1
 610 559 610 559 594 574.5 c 128,-1,2
 578 590 578 590 578 616 c 0,3,4
 578 643 578 643 594.5 660 c 128,-1,5
 611 677 611 677 638 677 c 256,6,7
 665 677 665 677 682 661.5 c 128,-1,8
 699 646 699 646 699 621 c 0,9,10
 699 595 699 595 680.5 577 c 128,-1,11
 662 559 662 559 636 559 c 256,0,1
604 618 m 0,12,13
 606 627 606 627 609.5 631.5 c 128,-1,14
 613 636 613 636 617 638.5 c 128,-1,15
 621 641 621 641 624 643.5 c 128,-1,16
 627 646 627 646 627 650 c 0,17,18
 627 660 627 660 617 660 c 0,19,20
 605 660 605 660 597 646.5 c 128,-1,21
 589 633 589 633 589 618 c 0,22,23
 589 611 589 611 590.5 601.5 c 128,-1,24
 592 592 592 592 598 592 c 0,25,26
 603 592 603 592 603 603.5 c 128,-1,27
 603 615 603 615 604 618 c 0,12,13
691 82 m 2,28,29
 691 35 691 35 684.5 -3.5 c 128,-1,30
 678 -42 678 -42 663 -69.5 c 128,-1,31
 648 -97 648 -97 622.5 -112 c 128,-1,32
 597 -127 597 -127 558 -127 c 0,33,34
 527 -127 527 -127 514 -113.5 c 128,-1,35
 501 -100 501 -100 501 -72 c 0,36,37
 501 -56 501 -56 506 -38.5 c 128,-1,38
 511 -21 511 -21 525 -21 c 0,39,40
 532 -21 532 -21 538.5 -23.5 c 128,-1,41
 545 -26 545 -26 553 -26 c 0,42,43
 569 -26 569 -26 577 -3 c 128,-1,44
 585 20 585 20 585 82 c 2,45,-1
 585 439 l 2,46,47
 585 448 585 448 587.5 460 c 128,-1,48
 590 472 590 472 595.5 482 c 128,-1,49
 601 492 601 492 610.5 499 c 128,-1,50
 620 506 620 506 635 506 c 256,51,52
 650 506 650 506 660.5 500 c 128,-1,53
 671 494 671 494 677.5 485 c 128,-1,54
 684 476 684 476 687.5 465 c 128,-1,55
 691 454 691 454 691 444 c 2,56,-1
 691 82 l 2,28,29
603 409 m 0,57,58
 606 409 606 409 607 415 c 128,-1,59
 608 421 608 421 608 429.5 c 128,-1,60
 608 438 608 438 608.5 447.5 c 128,-1,61
 609 457 609 457 611 463 c 0,62,63
 612 467 612 467 614 474 c 128,-1,64
 616 481 616 481 613 481 c 0,65,66
 608 481 608 481 604.5 475.5 c 128,-1,67
 601 470 601 470 598.5 462.5 c 128,-1,68
 596 455 596 455 595 447.5 c 128,-1,69
 594 440 594 440 594 435 c 0,70,71
 594 426 594 426 596 417.5 c 128,-1,72
 598 409 598 409 603 409 c 0,57,58
545 -103 m 0,73,74
 545 -91 545 -91 536.5 -83 c 128,-1,75
 528 -75 528 -75 528 -66 c 0,76,77
 528 -52 528 -52 525.5 -47.5 c 128,-1,78
 523 -43 523 -43 519 -43 c 0,79,80
 516 -43 516 -43 514.5 -49.5 c 128,-1,81
 513 -56 513 -56 513 -64 c 0,82,83
 513 -83 513 -83 520 -97 c 128,-1,84
 527 -111 527 -111 535 -111 c 0,85,86
 538 -111 538 -111 541.5 -109.5 c 128,-1,87
 545 -108 545 -108 545 -103 c 0,73,74
EndSplineSet


EndChar

StartChar: k
Encoding: 107 107 77
Width: 1200
Flags: W
LayerCount: 2
Fore
SplineSet
297 -12 m 4,0,1
 207 -12 207 -12 160 32 c 132,-1,2
 113 76 113 76 113 152 c 4,3,4
 113 199 113 199 134 233.5 c 132,-1,5
 155 268 155 268 190 288 c 4,6,7
 214 302 214 302 243.5 311 c 132,-1,8
 273 320 273 320 314.5 324 c 132,-1,9
 356 328 356 328 414 328 c 6,10,-1
 797 328 l 6,11,12
 883 328 883 328 934.5 318 c 132,-1,13
 986 308 986 308 1023 282 c 4,14,15
 1052 262 1052 262 1069.5 230.5 c 132,-1,16
 1087 199 1087 199 1087 152 c 4,17,18
 1087 76 1087 76 1042 32 c 132,-1,19
 997 -12 997 -12 913 -12 c 4,20,21
 888 -12 888 -12 861.5 -9.5 c 132,-1,22
 835 -7 835 -7 812 0 c 5,23,-1
 831 67 l 5,24,25
 845 63 845 63 864.5 60.5 c 132,-1,26
 884 58 884 58 900 58 c 4,27,28
 951 58 951 58 976 81.5 c 132,-1,29
 1001 105 1001 105 1001 151 c 4,30,31
 1001 180 1001 180 990 198.5 c 132,-1,32
 979 217 979 217 961 229 c 4,33,34
 933 247 933 247 892.5 252.5 c 132,-1,35
 852 258 852 258 789 258 c 6,36,-1
 412 258 l 6,37,38
 341 258 341 258 303.5 252.5 c 132,-1,39
 266 247 266 247 238 229 c 4,40,41
 220 218 220 218 209.5 199 c 132,-1,42
 199 180 199 180 199 154 c 4,43,44
 199 121 199 121 211.5 99.5 c 132,-1,45
 224 78 224 78 247 68 c 132,-1,46
 270 58 270 58 300 58 c 4,47,48
 332 58 332 58 364.5 68.5 c 132,-1,49
 397 79 397 79 433 106 c 5,50,-1
 483 52 l 5,51,52
 453 30 453 30 424 16 c 132,-1,53
 395 2 395 2 364.5 -5 c 132,-1,54
 334 -12 334 -12 297 -12 c 4,0,1
604 566 m 4,55,56
 684 566 684 566 735.5 528.5 c 132,-1,57
 787 491 787 491 812 426.5 c 132,-1,58
 837 362 837 362 837 279 c 4,59,60
 837 185 837 185 809 120 c 132,-1,61
 781 55 781 55 729 21.5 c 132,-1,62
 677 -12 677 -12 605 -12 c 4,63,64
 551 -12 551 -12 507.5 6.5 c 132,-1,65
 464 25 464 25 433 62 c 260,66,67
 402 99 402 99 385.5 153.5 c 132,-1,68
 369 208 369 208 369 279 c 4,69,70
 369 413 369 413 432 489.5 c 132,-1,71
 495 566 495 566 604 566 c 4,55,56
604 496 m 4,72,73
 528 496 528 496 491.5 442 c 132,-1,74
 455 388 455 388 455 278 c 4,75,76
 455 204 455 204 471.5 155 c 132,-1,77
 488 106 488 106 521 82 c 132,-1,78
 554 58 554 58 602 58 c 4,79,80
 651 58 651 58 684 81.5 c 132,-1,81
 717 105 717 105 734 154 c 132,-1,82
 751 203 751 203 751 278 c 260,83,84
 751 353 751 353 734.5 401.5 c 132,-1,85
 718 450 718 450 685 473 c 132,-1,86
 652 496 652 496 604 496 c 4,72,73
EndSplineSet
EndChar

StartChar: l
Encoding: 108 108 78
Width: 1200
Flags: W
LayerCount: 2
Fore
SplineSet
962.5 554 m 5,0,-1
 962.5 0 l 5,1,-1
 237.5 0 l 5,2,-1
 237.5 313 l 6,3,4
 237.5 387 237.5 387 254 431 c 132,-1,5
 270.5 475 270.5 475 300.5 504 c 4,6,7
 332.5 535 332.5 535 377 550.5 c 132,-1,8
 421.5 566 421.5 566 479.5 566 c 4,9,10
 539.5 566 539.5 566 584 551 c 132,-1,11
 628.5 536 628.5 536 657.5 507 c 4,12,13
 689.5 476 689.5 476 704 429.5 c 132,-1,14
 718.5 383 718.5 383 718.5 322 c 6,15,-1
 718.5 222 l 5,16,-1
 323.5 222 l 5,17,-1
 323.5 70 l 5,18,-1
 876.5 70 l 5,19,-1
 876.5 554 l 5,20,-1
 962.5 554 l 5,0,-1
478.5 496 m 4,21,22
 397.5 496 397.5 496 360.5 454.5 c 132,-1,23
 323.5 413 323.5 413 323.5 321 c 6,24,-1
 323.5 292 l 5,25,-1
 632.5 292 l 5,26,-1
 632.5 320 l 6,27,28
 632.5 415 632.5 415 595.5 455.5 c 132,-1,29
 558.5 496 558.5 496 478.5 496 c 4,21,22
EndSplineSet
EndChar

StartChar: m
Encoding: 109 109 79
Width: 1200
Flags: W
LayerCount: 2
Fore
SplineSet
592.5 566 m 4,0,1
 671.5 566 671.5 566 728 547.5 c 132,-1,2
 784.5 529 784.5 529 821.5 494 c 4,3,4
 849.5 469 849.5 469 867 437 c 132,-1,5
 884.5 405 884.5 405 893 363 c 132,-1,6
 901.5 321 901.5 321 901.5 266 c 6,7,-1
 901.5 0 l 5,8,-1
 298.5 0 l 5,9,-1
 298.5 268 l 6,10,11
 298.5 320 298.5 320 307 361.5 c 132,-1,12
 315.5 403 315.5 403 333 435.5 c 132,-1,13
 350.5 468 350.5 468 376.5 493 c 4,14,15
 413.5 528 413.5 528 466 547 c 132,-1,16
 518.5 566 518.5 566 592.5 566 c 4,0,1
545.5 495 m 4,17,18
 503.5 495 503.5 495 471.5 474 c 132,-1,19
 439.5 453 439.5 453 419.5 418 c 4,20,21
 403.5 390 403.5 390 394 349.5 c 132,-1,22
 384.5 309 384.5 309 384.5 249 c 6,23,-1
 384.5 68 l 5,24,-1
 389.5 68 l 5,25,26
 457.5 119 457.5 119 510.5 175 c 132,-1,27
 563.5 231 563.5 231 594 289 c 132,-1,28
 624.5 347 624.5 347 624.5 402 c 4,29,30
 624.5 430 624.5 430 616 450.5 c 132,-1,31
 607.5 471 607.5 471 590.5 483 c 132,-1,32
 573.5 495 573.5 495 545.5 495 c 4,17,18
710.5 393 m 4,33,34
 710.5 334 710.5 334 683.5 277 c 132,-1,35
 656.5 220 656.5 220 606.5 162.5 c 132,-1,36
 556.5 105 556.5 105 487.5 45 c 5,37,-1
 485.5 65 l 5,38,39
 514.5 67 514.5 67 542.5 68.5 c 132,-1,40
 570.5 70 570.5 70 598.5 70 c 6,41,-1
 815.5 70 l 5,42,-1
 815.5 249 l 6,43,44
 815.5 323 815.5 323 801 372 c 132,-1,45
 786.5 421 786.5 421 753.5 450.5 c 132,-1,46
 720.5 480 720.5 480 666.5 494 c 5,47,-1
 668.5 501 l 5,48,49
 687.5 479 687.5 479 699 454.5 c 132,-1,50
 710.5 430 710.5 430 710.5 393 c 4,33,34
EndSplineSet
EndChar

StartChar: n
Encoding: 110 110 80
Width: 1200
Flags: W
LayerCount: 2
Fore
SplineSet
432.5 566 m 4,0,1
 478.5 566 478.5 566 511.5 552.5 c 132,-1,2
 544.5 539 544.5 539 567.5 516.5 c 132,-1,3
 590.5 494 590.5 494 606.5 465 c 5,4,-1
 593.5 466 l 5,5,6
 624.5 518 624.5 518 667.5 542 c 132,-1,7
 710.5 566 710.5 566 774.5 566 c 4,8,9
 851.5 566 851.5 566 905.5 529.5 c 132,-1,10
 959.5 493 959.5 493 988 431 c 132,-1,11
 1016.5 369 1016.5 369 1016.5 292 c 4,12,13
 1016.5 226 1016.5 226 998.5 173 c 132,-1,14
 980.5 120 980.5 120 946 75.5 c 132,-1,15
 911.5 31 911.5 31 861.5 -8 c 5,16,-1
 807.5 53 l 5,17,18
 842.5 78 842.5 78 870 111.5 c 132,-1,19
 897.5 145 897.5 145 913 189.5 c 132,-1,20
 928.5 234 928.5 234 928.5 292 c 260,21,22
 928.5 350 928.5 350 909.5 395.5 c 132,-1,23
 890.5 441 890.5 441 855.5 467.5 c 132,-1,24
 820.5 494 820.5 494 773.5 494 c 4,25,26
 732.5 494 732.5 494 706 479.5 c 132,-1,27
 679.5 465 679.5 465 663.5 436 c 4,28,29
 650.5 414 650.5 414 646.5 382 c 132,-1,30
 642.5 350 642.5 350 642.5 291 c 6,31,-1
 642.5 0 l 5,32,-1
 556.5 0 l 5,33,-1
 556.5 291 l 6,34,35
 556.5 348 556.5 348 552.5 381 c 132,-1,36
 548.5 414 548.5 414 534.5 436 c 4,37,38
 517.5 465 517.5 465 491.5 479.5 c 132,-1,39
 465.5 494 465.5 494 428.5 494 c 4,40,41
 382.5 494 382.5 494 347 467.5 c 132,-1,42
 311.5 441 311.5 441 291.5 395.5 c 132,-1,43
 271.5 350 271.5 350 271.5 292 c 4,44,45
 271.5 232 271.5 232 288 187 c 132,-1,46
 304.5 142 304.5 142 331.5 110 c 132,-1,47
 358.5 78 358.5 78 391.5 55 c 5,48,-1
 333.5 -8 l 5,49,50
 290.5 27 290.5 27 256.5 68.5 c 132,-1,51
 222.5 110 222.5 110 203 164.5 c 132,-1,52
 183.5 219 183.5 219 183.5 292 c 4,53,54
 183.5 373 183.5 373 214 434.5 c 132,-1,55
 244.5 496 244.5 496 300.5 531 c 132,-1,56
 356.5 566 356.5 566 432.5 566 c 4,0,1
EndSplineSet
EndChar

StartChar: o
Encoding: 111 111 81
Width: 1200
Flags: W
LayerCount: 2
Fore
SplineSet
505 266 m 1,0,-1
 505 330 l 1,1,-1
 701 330 l 1,2,-1
 701 266 l 1,3,-1
 505 266 l 1,0,-1
606 -9 m 0,4,5
 551 -9 551 -9 510.5 17.5 c 128,-1,6
 470 44 470 44 443.5 87.5 c 128,-1,7
 417 131 417 131 404 185.5 c 128,-1,8
 391 240 391 240 391 296 c 256,9,10
 391 352 391 352 403 410.5 c 128,-1,11
 415 469 415 469 441 516.5 c 128,-1,12
 467 564 467 564 508 594.5 c 128,-1,13
 549 625 549 625 607 625 c 0,14,15
 660 625 660 625 698 597.5 c 128,-1,16
 736 570 736 570 760.5 524 c 128,-1,17
 785 478 785 478 797 417.5 c 128,-1,18
 809 357 809 357 809 291 c 0,19,20
 809 236 809 236 797 182 c 128,-1,21
 785 128 785 128 760.5 85.5 c 128,-1,22
 736 43 736 43 697.5 17 c 128,-1,23
 659 -9 659 -9 606 -9 c 0,4,5
454 468 m 0,24,25
 457 468 457 468 461 473.5 c 128,-1,26
 465 479 465 479 469.5 487.5 c 128,-1,27
 474 496 474 496 479.5 505 c 128,-1,28
 485 514 485 514 490 521 c 0,29,30
 512 550 512 550 531.5 567 c 128,-1,31
 551 584 551 584 551 589 c 0,32,33
 551 592 551 592 546 593 c 0,34,35
 534 593 534 593 517.5 579 c 128,-1,36
 501 565 501 565 486 545.5 c 128,-1,37
 471 526 471 526 460.5 505.5 c 128,-1,38
 450 485 450 485 450 473 c 0,39,40
 450 468 450 468 454 468 c 0,24,25
606 71 m 0,41,42
 636 71 636 71 654.5 93.5 c 128,-1,43
 673 116 673 116 683.5 149.5 c 128,-1,44
 694 183 694 183 698 223 c 128,-1,45
 702 263 702 263 702 299 c 256,46,47
 702 335 702 335 699.5 376 c 128,-1,48
 697 417 697 417 687 452 c 128,-1,49
 677 487 677 487 658 510 c 128,-1,50
 639 533 639 533 607 533 c 0,51,52
 576 533 576 533 556 505 c 128,-1,53
 536 477 536 477 524.5 438.5 c 128,-1,54
 513 400 513 400 509 360 c 128,-1,55
 505 320 505 320 505 296 c 256,56,57
 505 272 505 272 508 233.5 c 128,-1,58
 511 195 511 195 521.5 159 c 128,-1,59
 532 123 532 123 552 97 c 128,-1,60
 572 71 572 71 606 71 c 0,41,42
455 446 m 256,61,62
 455 454 455 454 448 456 c 0,63,64
 445 456 445 456 440 452.5 c 128,-1,65
 435 449 435 449 435 441 c 0,66,67
 435 432 435 432 443 432 c 0,68,69
 446 432 446 432 450.5 435 c 128,-1,70
 455 438 455 438 455 446 c 256,61,62
EndSplineSet
EndChar

StartChar: p
Encoding: 112 112 82
Width: 1200
Flags: W
LayerCount: 2
Fore
SplineSet
400.5 346 m 4,0,1
 468.5 346 468.5 346 512 320.5 c 132,-1,2
 555.5 295 555.5 295 577 255.5 c 132,-1,3
 598.5 216 598.5 216 598.5 173 c 4,4,5
 598.5 133 598.5 133 585.5 102 c 132,-1,6
 572.5 71 572.5 71 553.5 57 c 5,7,-1
 528.5 70 l 5,8,-1
 910.5 70 l 5,9,-1
 910.5 554 l 5,10,-1
 996.5 554 l 5,11,-1
 996.5 0 l 5,12,-1
 499.5 0 l 5,13,-1
 470.5 52 l 5,14,15
 490.5 72 490.5 72 502.5 96.5 c 132,-1,16
 514.5 121 514.5 121 514.5 158 c 4,17,18
 514.5 212 514.5 212 485.5 244 c 132,-1,19
 456.5 276 456.5 276 400.5 276 c 4,20,21
 365.5 276 365.5 276 340 260.5 c 132,-1,22
 314.5 245 314.5 245 301 220 c 132,-1,23
 287.5 195 287.5 195 287.5 164 c 4,24,25
 287.5 130 287.5 130 301.5 102 c 132,-1,26
 315.5 74 315.5 74 346.5 51 c 5,27,-1
 300.5 -7 l 5,28,29
 258.5 24 258.5 24 231 66.5 c 132,-1,30
 203.5 109 203.5 109 203.5 166 c 4,31,32
 203.5 219 203.5 219 228 259.5 c 132,-1,33
 252.5 300 252.5 300 297 323 c 132,-1,34
 341.5 346 341.5 346 400.5 346 c 4,0,1
EndSplineSet
EndChar

